<svg width="1202px" height="838px" viewBox="0 0 1202 838" xmlns="http://www.w3.org/2000/svg" xmlns:xlink="http://www.w3.org/1999/xlink"><g transform="matrix(1, 0, 0, 1, 0, 0)" clip-path="url(#mainClip3204)"><g transform="matrix(1, 0, 0, 1, 24, 259)"><g transform="matrix(1, 0, 0, 1, 499.3652768318941, -160.93775712569186)"><path d="M 0,133.49509828859297 C 51.53279893645333,82.2135219053352 107.97459249584415,37.89626177722087 170.01734216000045,0" fill="none" stroke="black" stroke-width="2" stroke-linecap="butt" stroke-linejoin="miter" stroke-miterlimit="10" transform="matrix(1, 0, 0, 1, 1, 17.29853786918538)"/><path d="M 0,0 L 8,4.62 L 0,9.24 z" fill="#000000" stroke="none" transform="matrix(1.706793156503294, -1.0425243982341716, 1.0425243982341716, 1.706793156503294, 151.69313760988058, 18.274610871130623)"/><path d="M 0,0 L 8,4.62 L 0,9.24 z" fill="none" stroke="#000000" stroke-width="1" stroke-linecap="butt" stroke-linejoin="miter" stroke-miterlimit="10" transform="matrix(1.706793156503294, -1.0425243982341716, 1.0425243982341716, 1.706793156503294, 151.69313760988058, 18.274610871130623)"/><g transform="matrix(1, 0, 0, 1, 36.067439557111584, 59.02659403621803)"><g transform="matrix(1, 0, 0, 1, 0, 0)"><g transform="matrix(1, 0, 0, 1, 0, 0)"><path d="M 0,4 A 4,4 0 0,1 3.999999999999999,0 L 83,0 A 4,4 0 0,1 87,3.999999999999999 L 87,36 A 4,4 0 0,1 83,40 L 4,40 A 4,4 0 0,1 0,36 z" fill="white" stroke="none" transform="matrix(1, 0, 0, 1, 1, 1)"/><path d="M 0,4 A 4,4 0 0,1 3.999999999999999,0 L 83,0 A 4,4 0 0,1 87,3.999999999999999 L 87,36 A 4,4 0 0,1 83,40 L 4,40 A 4,4 0 0,1 0,36 z" fill="none" stroke="#373f47" stroke-width="2" stroke-linecap="butt" stroke-linejoin="miter" stroke-miterlimit="10" transform="matrix(1, 0, 0, 1, 1, 1)"/><text x="39" y="12.557989883422852" style="font: 14px Lato" text-anchor="middle" fill="black" stroke="none" transform="matrix(1, 0, 0, 1, 6.2999999999999945, 6.011202697753906)">exists at</text><g transform="matrix(1, 0, 0, 1, 0, 0)" clip-path="url(#CLIP3205)"><path d="M 0,0 L 86,0 L 86,9 A 5,5 0 0,1 81,14 L 5,14 A 5,5 0 0,1 0,9 z" fill="#aaccff" stroke="none" transform="matrix(1, 0, 0, 1, 1.4999999999999971, 26.499999999999996)"/><path d="M 0,0 L 86,0 L 86,9 A 5,5 0 0,1 81,14 L 5,14 A 5,5 0 0,1 0,9 z" fill="none" stroke="#373f47" stroke-width="1" stroke-linecap="butt" stroke-linejoin="miter" stroke-miterlimit="10" transform="matrix(1, 0, 0, 1, 1.4999999999999971, 26.499999999999996)"/></g><g transform="matrix(1, 0, 0, 1, 0, 0)" clip-path="url(#CLIP3206)"><text x="15" y="8.969997024536134" style="font: 10px Lato" text-anchor="middle" fill="black" stroke="none" transform="matrix(1, 0, 0, 1, 29.499999999999996, 28.919999999999998)">0</text></g></g></g></g></g><g transform="matrix(1, 0, 0, 1, 84.39360344631945, -49.23936094826686)"><path d="M 273.01400041963154,63.9554207532135 L 267.0737772199407,63.1105844744854 M 260.83654286026535,62.22350638182089 L 254.89631966057456,61.37867010309279 M 248.65908530089922,60.49159201042828 L 242.71886210120843,59.646755731700175 M 238.14841013965844,58.996732408081215 M 236.4881460084008,58.71765976397746 L 230.57115317166134,57.72307654977465 M 224.35831069308492,56.678764174861705 L 218.44131785634545,55.6841809606589 M 212.22847537776903,54.63986858574595 L 206.31148254102956,53.645285371543146 M 203.5089207386272,53.174204705680566 M 200.11428565407581,52.51461276722178 L 194.22443863386832,51.37019060798466 M 188.04009926265044,50.16854734078569 L 182.15025224244295,49.02412518154858 M 175.96591287122507,47.82248191434961 L 170.07606585101757,46.67805975511249 M 169.0880303809982,46.48608028907152 M 163.91910794151778,45.34448664875313 L 158.060296946873,44.05052616673315 M 151.90854540249597,42.69186766061217 L 146.0497344078512,41.397907178592185 M 139.89798286347417,40.0392486724712 L 134.87823723123185,38.93060180131407 L 134.0441654630354,38.723971449593286 M 127.92902531062536,37.20902560357019 L 122.1050823083301,35.766220035929145 M 115.98994215592006,34.25127418990605 L 110.1659991536248,32.808468622265 M 104.05085900121476,31.293522776241907 L 100.87203945378849,30.506011885468208 L 98.2444515425227,29.78360550842088 M 92.16985101278506,28.113507186731027 L 86.3845171749397,26.522937356550216 M 80.30991664520207,24.852839034860363 L 74.5245828073567,23.262269204679548 M 68.44998227761906,21.592170882989695 L 67.06193521312848,21.210553184593916 L 62.696744989178136,19.89039768890528 M 56.66648400927301,18.06667827127721 L 50.92337831412527,16.32980263544095 M 44.89311733422015,14.506083217812876 L 39.15001163907241,12.769207581976614 M 33.44042267371216,11.042468341751178 M 33.122302104734395,10.937420736759082 L 27.42489176466184,9.056060745467052 M 21.44261090758566,7.080632754610422 L 15.745200567513105,5.199272763318392 M 9.762919710436924,3.223844772461762 L 4.065509370364369,1.3424847811697327 M 1.0658141036401503e-14,2.1760371282653068e-14" fill="none" stroke="black" stroke-width="2" stroke-linecap="butt" stroke-linejoin="miter" stroke-miterlimit="10" transform="matrix(1, 0, 0, 1, 34.121762768768065, 12.06939819868591)"/><path d="M 0,0 L 8,4.62 L 0,9.24 z" fill="white" stroke="none" transform="matrix(-1.8911051942214845, -0.6509386640755959, 0.6509386640755959, -1.8911051942214845, 47.18882029162144, 26.339282840631732)"/><path d="M 0,0 L 8,4.62 L 0,9.24 z" fill="none" stroke="black" stroke-width="1" stroke-linecap="butt" stroke-linejoin="miter" stroke-miterlimit="10" transform="matrix(-1.8911051942214845, -0.6509386640755959, 0.6509386640755959, -1.8911051942214845, 47.18882029162144, 26.339282840631732)"/></g><g transform="matrix(1, 0, 0, 1, -8.376609796865921, -5.930040806868156)"><path d="M 158.33962543345146,242.37074243980072 L 154.63330412925524,237.65235475012736 M 150.74166675984918,232.69804767597034 L 147.03534545565296,227.97965998629698 M 143.1437080862469,223.02535291213997 L 139.43738678205068,218.3069652224666 M 135.88397629160275,213.78324292793616 M 135.55652431226036,213.34440824913267 L 131.96827535086368,208.53561740412437 M 128.20061394139717,203.48638701686565 L 124.61236498000049,198.67759617185735 M 120.84470357053398,193.62836578459863 L 117.25645460913731,188.81957493959032 M 114.1973537568177,184.71992178540515 M 113.5126552653551,183.75299729998514 L 110.04524711501519,178.85635756247572 M 106.40446855715828,173.71488583809082 L 102.93706040681838,168.8182461005814 M 99.29628184896147,163.6767743761965 L 95.82887369862156,158.7801346386871 M 93.27570109165978,155.17456935709657 M 92.22678179007626,153.611987005921 L 88.88271095967471,148.63030151993763 M 85.37143658775308,143.39953175965508 L 82.02736575735153,138.4178462736717 M 78.5160913854299,133.18707651338914 L 75.17202055502835,128.20539102740577 M 73.11496155869253,125.14097598789921 M 71.71533903197331,122.93895602488374 L 68.49680830829064,117.87525579869433 M 65.11735104842383,112.55837056119545 L 61.89882032474115,107.49467033500603 M 58.51936306487435,102.17778509750715 L 55.30083234119167,97.11408487131774 M 53.711078420479424,94.61293202270203 M 51.99223453704782,91.75339313813052 L 48.90113461729687,86.61091306659736 M 45.65547970155837,81.21130899148754 L 42.56437978180742,76.06882891995438 M 39.31872486606892,70.66922484484456 L 36.22762494631797,65.5267447733114 M 35.05999493958396,63.58422780639384 M 33.06868818368873,60.076474080717226 L 30.10658309694264,54.85862649238418 M 26.996372755859248,49.379886524634486 L 24.03426766911316,44.16203893630144 M 20.924057328029768,38.683298968551746 L 17.96195224128368,33.4654513802187 M 17.157654378569667,32.04865368386355 M 14.953115691012474,27.930812435210917 L 12.121232294917824,22.64115871961446 M 9.147754729018441,17.087022318238176 L 6.315871332923791,11.797368602641717 M 3.342393767024409,6.243232201265434 L 0.5105103709297589,0.9535784856689746 M 8.471001677889944e-14,1.31117339208231e-13" fill="none" stroke="black" stroke-width="2" stroke-linecap="butt" stroke-linejoin="miter" stroke-miterlimit="10" transform="matrix(1, 0, 0, 1, 95.8850384413075, 4.721348583110647)"/><path d="M 0,0 L 8,4.62 L 0,9.24 z" fill="white" stroke="none" transform="matrix(-0.9221383951387983, -1.774728368007578, 1.774728368007578, -0.9221383951387983, 95.52396973979228, 24.06681909671631)"/><path d="M 0,0 L 8,4.62 L 0,9.24 z" fill="none" stroke="black" stroke-width="1" stroke-linecap="butt" stroke-linejoin="miter" stroke-miterlimit="10" transform="matrix(-0.9221383951387983, -1.774728368007578, 1.774728368007578, -0.9221383951387983, 95.52396973979228, 24.06681909671631)"/></g><g transform="matrix(1, 0, 0, 1, 473.1184172607592, 64.19667838759851)"><path d="M 132.381355109707,148.24271562976412 C 82.04796032472723,104.1562814490841 38.13390227754917,54.98063119348845 0,0" fill="none" stroke="black" stroke-width="2" stroke-linecap="butt" stroke-linejoin="miter" stroke-miterlimit="10" transform="matrix(1, 0, 0, 1, 18.356520283950992, 23.39209352342344)"/><path d="M 0,0 L 8,4.62 L 0,9.24 z" fill="#000000" stroke="none" transform="matrix(-1.139841798272192, -1.6433991222194368, 1.6433991222194368, -1.139841798272192, 20.452671624610822, 42.62705517030618)"/><path d="M 0,0 L 8,4.62 L 0,9.24 z" fill="none" stroke="#000000" stroke-width="1" stroke-linecap="butt" stroke-linejoin="miter" stroke-miterlimit="10" transform="matrix(-1.139841798272192, -1.6433991222194368, 1.6433991222194368, -1.139841798272192, 20.452671624610822, 42.62705517030618)"/><g transform="matrix(1, 0, 0, 1, 13.972388148518, 81.59877521810866)"><g transform="matrix(1, 0, 0, 1, 0, 0)"><g transform="matrix(1, 0, 0, 1, 0, 0)"><path d="M 0,4 A 4,4 0 0,1 3.999999999999999,0 L 123,0 A 4,4 0 0,1 127,3.999999999999999 L 127,36 A 4,4 0 0,1 123,40 L 4,40 A 4,4 0 0,1 0,36 z" fill="white" stroke="none" transform="matrix(1, 0, 0, 1, 1, 1)"/><path d="M 0,4 A 4,4 0 0,1 3.999999999999999,0 L 123,0 A 4,4 0 0,1 127,3.999999999999999 L 127,36 A 4,4 0 0,1 123,40 L 4,40 A 4,4 0 0,1 0,36 z" fill="none" stroke="#373f47" stroke-width="2" stroke-linecap="butt" stroke-linejoin="miter" stroke-miterlimit="10" transform="matrix(1, 0, 0, 1, 1, 1)"/><text x="59" y="12.557989883422852" style="font: 14px Lato" text-anchor="middle" fill="black" stroke="none" transform="matrix(1, 0, 0, 1, 6.2999999999999945, 6.011202697753906)">is realized in</text><g transform="matrix(1, 0, 0, 1, 0, 0)" clip-path="url(#CLIP3207)"><path d="M 0,0 L 126,0 L 126,9 A 5,5 0 0,1 121,14 L 5,14 A 5,5 0 0,1 0,9 z" fill="#aaccff" stroke="none" transform="matrix(1, 0, 0, 1, 1.4999999999999971, 26.499999999999996)"/><path d="M 0,0 L 126,0 L 126,9 A 5,5 0 0,1 121,14 L 5,14 A 5,5 0 0,1 0,9 z" fill="none" stroke="#373f47" stroke-width="1" stroke-linecap="butt" stroke-linejoin="miter" stroke-miterlimit="10" transform="matrix(1, 0, 0, 1, 1.4999999999999971, 26.499999999999996)"/></g><g transform="matrix(1, 0, 0, 1, 0, 0)" clip-path="url(#CLIP3208)"><text x="15" y="8.969997024536134" style="font: 10px Lato" text-anchor="middle" fill="black" stroke="none" transform="matrix(1, 0, 0, 1, 49.5, 28.919999999999998)">0</text></g></g></g></g></g><g transform="matrix(1, 0, 0, 1, 496.3687814728321, 337.5689474723045)"><path d="M 8.080977225931633,93.13057695071745 L 6.889262413609423,87.25011644102165 M 5.637961860671101,81.07563290584105 L 4.446247048348891,75.19517239614524 M 3.3897676907210577,69.98202485648075 M 3.2764547972288143,69.0077136215124 L 2.5833235730486814,63.04788400095556 M 1.8555357876595422,56.790062899370895 L 1.1624045634794093,50.83023327881406 M 0.7001961212519783,46.85597347235846 M 0.631055880450293,44.55806046198848 L 0.45060788635384963,38.56077453238444 M 0.26113749255258406,32.2636243063002 L 0.08068949845614065,26.26633837669616 M 6.665501484093284e-14,23.584579589736293 M 0.1955467851864101,19.97284178141061 L 0.519923827928259,13.981616569974971 M 0.8605197228072002,7.690830097967547 L 1.184896765549049,1.6996048865319056 M 1.2769168094409913,-1.3766765505351941e-14" fill="none" stroke="black" stroke-width="2" stroke-linecap="butt" stroke-linejoin="miter" stroke-miterlimit="10" transform="matrix(1, 0, 0, 1, 168.29980387874798, 4.144026527641529)"/><path d="M 0,0 L 8,4.62 L 0,9.24 z" fill="white" stroke="none" transform="matrix(0.18920305746809837, -1.991030437498313, 1.991030437498313, 0.18920305746809837, 158.76993407846794, 20.193667120874572)"/><path d="M 0,0 L 8,4.62 L 0,9.24 z" fill="none" stroke="black" stroke-width="1" stroke-linecap="butt" stroke-linejoin="miter" stroke-miterlimit="10" transform="matrix(0.18920305746809837, -1.991030437498313, 1.991030437498313, 0.18920305746809837, 158.76993407846794, 20.193667120874572)"/></g><g transform="matrix(1, 0, 0, 1, 612.7930025426708, 314.32223910333795)"><path d="M 132.67004491881858,94.44308282356576 L 127.40543075433209,91.5649171405155 M 121.87758588162127,88.54284317331273 L 116.61297171713478,85.66467749026248 M 114.64056570565988,84.58636270442996 M 111.15211850477469,82.5247901547039 L 105.98670032079855,79.4721757039996 M 100.5630112276236,76.26693053076009 L 97.04635072051501,74.18868472376573 L 95.4314717658422,73.15914011927806 M 90.11922879882414,69.77239025261134 L 85.05994978261646,66.54691418911924 M 79.87629979199228,63.24214706465016 M 79.75057052777314,63.1558367192969 L 74.80395955394593,59.760098232073204 M 69.61001803142736,56.194572820488325 L 64.66340705760015,52.79883433326463 M 63.11931274869993,51.73884791016034 M 59.557017440274294,49.110319340575714 L 54.72906491696792,45.547893982382284 M 49.659714767496226,41.80734735627918 L 46.76428941924627,39.67088544337334 L 44.881396020774346,38.17999796283738 M 39.942243777958275,34.26914445979166 L 35.23828926099059,30.54452207593859 M 30.800129632239546,27.03035784736624 M 30.31283257483627,26.616960269148823 L 25.73746932610843,22.735459123690966 M 20.933337914944204,18.659882920960214 L 16.357974666216364,14.778381775502359 M 15.215733216288038,13.809363305216095 M 11.659780634736151,10.582082674256746 L 7.216781274274684,6.54974381412371 M 2.5516319457901435,2.315788010984022 L 2.042810365310288e-14,-9.769962616701378e-15" fill="none" stroke="black" stroke-width="2" stroke-linecap="butt" stroke-linejoin="miter" stroke-miterlimit="10" transform="matrix(1, 0, 0, 1, 105.88068725130017, 7.4677903670353665)"/><path d="M 0,0 L 8,4.62 L 0,9.24 z" fill="white" stroke="none" transform="matrix(-1.4585528060615947, -1.3684384209491667, 1.3684384209491667, -1.4585528060615947, 111.95620059803858, 25.83803090910785)"/><path d="M 0,0 L 8,4.62 L 0,9.24 z" fill="none" stroke="black" stroke-width="1" stroke-linecap="butt" stroke-linejoin="miter" stroke-miterlimit="10" transform="matrix(-1.4585528060615947, -1.3684384209491667, 1.3684384209491667, -1.4585528060615947, 111.95620059803858, 25.83803090910785)"/></g><g transform="matrix(1, 0, 0, 1, 286.2709762802291, 61.25167023076969)"><path d="M 0,150.06182551859794 C 26.623627374886837,95.60609666262366 59.45048446196017,45.880206637234494 99.06425200251192,0" fill="none" stroke="black" stroke-width="2" stroke-linecap="butt" stroke-linejoin="miter" stroke-miterlimit="10" transform="matrix(1, 0, 0, 1, 27.83917656086834, 22.190249526953725)"/><path d="M 0,0 L 8,4.62 L 0,9.24 z" fill="#000000" stroke="none" transform="matrix(1.3070498486372064, -1.5138099924288568, 1.5138099924288568, 1.3070498486372064, 108.79970268494269, 29.019064161895116)"/><path d="M 0,0 L 8,4.62 L 0,9.24 z" fill="none" stroke="#000000" stroke-width="1" stroke-linecap="butt" stroke-linejoin="miter" stroke-miterlimit="10" transform="matrix(1.3070498486372064, -1.5138099924288568, 1.5138099924288568, 1.3070498486372064, 108.79970268494269, 29.019064161895116)"/><g transform="matrix(1, 0, 0, 1, 0, 74.00534145422529)"><g transform="matrix(1, 0, 0, 1, 0, 0)"><g transform="matrix(1, 0, 0, 1, 0, 0)"><path d="M 0,4 A 4,4 0 0,1 3.999999999999999,0 L 136,0 A 4,4 0 0,1 140,3.999999999999999 L 140,36 A 4,4 0 0,1 136,40 L 4,40 A 4,4 0 0,1 0,36 z" fill="white" stroke="none" transform="matrix(1, 0, 0, 1, 1, 1)"/><path d="M 0,4 A 4,4 0 0,1 3.999999999999999,0 L 136,0 A 4,4 0 0,1 140,3.999999999999999 L 140,36 A 4,4 0 0,1 136,40 L 4,40 A 4,4 0 0,1 0,36 z" fill="none" stroke="#373f47" stroke-width="2" stroke-linecap="butt" stroke-linejoin="miter" stroke-miterlimit="10" transform="matrix(1, 0, 0, 1, 1, 1)"/><text x="62.5" y="12.557989883422852" style="font: 14px Lato" text-anchor="middle" fill="black" stroke="none" transform="matrix(1, 0, 0, 1, 9.300000000000008, 6.011202697753906)">is participant in</text><g transform="matrix(1, 0, 0, 1, 0, 0)" clip-path="url(#CLIP3209)"><path d="M 0,0 L 139,0 L 139,9 A 5,5 0 0,1 134,14 L 5,14 A 5,5 0 0,1 0,9 z" fill="#aaccff" stroke="none" transform="matrix(1, 0, 0, 1, 1.5000000000000113, 26.499999999999996)"/><path d="M 0,0 L 139,0 L 139,9 A 5,5 0 0,1 134,14 L 5,14 A 5,5 0 0,1 0,9 z" fill="none" stroke="#373f47" stroke-width="1" stroke-linecap="butt" stroke-linejoin="miter" stroke-miterlimit="10" transform="matrix(1, 0, 0, 1, 1.5000000000000113, 26.499999999999996)"/></g><g transform="matrix(1, 0, 0, 1, 0, 0)" clip-path="url(#CLIP3210)"><text x="15" y="8.969997024536134" style="font: 10px Lato" text-anchor="middle" fill="black" stroke="none" transform="matrix(1, 0, 0, 1, 56.000000000000014, 28.919999999999998)">0</text></g></g></g></g></g><g transform="matrix(1, 0, 0, 1, 348.3748983183795, 250.81153687817255)"><path d="M 0,11.922387981752308 C 86.07445844544668,-0.19682121554973264 172.09863539780855,-3.0940085222354696 258.7934485950373,3.206546448758843" fill="none" stroke="black" stroke-width="2" stroke-linecap="butt" stroke-linejoin="miter" stroke-miterlimit="10" transform="matrix(1, 0, 0, 1, 1, 19.342944347855564)"/><path d="M 0,0 L 8,4.62 L 0,9.24 z" fill="#000000" stroke="none" transform="matrix(1.9947391589557253, 0.1449678851629067, -0.1449678851629067, 1.9947391589557253, 243.5079173733663, 12.101568858354248)"/><path d="M 0,0 L 8,4.62 L 0,9.24 z" fill="none" stroke="#000000" stroke-width="1" stroke-linecap="butt" stroke-linejoin="miter" stroke-miterlimit="10" transform="matrix(1.9947391589557253, 0.1449678851629067, -0.1449678851629067, 1.9947391589557253, 243.5079173733663, 12.101568858354248)"/><g transform="matrix(1, 0, 0, 1, 68.16409126560035, 0)"><g transform="matrix(1, 0, 0, 1, 0, 0)"><g transform="matrix(1, 0, 0, 1, 0, 0)"><path d="M 0,4 A 4,4 0 0,1 3.999999999999999,0 L 115,0 A 4,4 0 0,1 119,3.999999999999999 L 119,36 A 4,4 0 0,1 115,40 L 4,40 A 4,4 0 0,1 0,36 z" fill="white" stroke="none" transform="matrix(1, 0, 0, 1, 1, 1)"/><path d="M 0,4 A 4,4 0 0,1 3.999999999999999,0 L 115,0 A 4,4 0 0,1 119,3.999999999999999 L 119,36 A 4,4 0 0,1 115,40 L 4,40 A 4,4 0 0,1 0,36 z" fill="none" stroke="#373f47" stroke-width="2" stroke-linecap="butt" stroke-linejoin="miter" stroke-miterlimit="10" transform="matrix(1, 0, 0, 1, 1, 1)"/><text x="55" y="12.557989883422852" style="font: 14px Lato" text-anchor="middle" fill="black" stroke="none" transform="matrix(1, 0, 0, 1, 6.2999999999999945, 6.011202697753906)">has attribute</text><g transform="matrix(1, 0, 0, 1, 0, 0)" clip-path="url(#CLIP3211)"><path d="M 0,0 L 118,0 L 118,9 A 5,5 0 0,1 113,14 L 5,14 A 5,5 0 0,1 0,9 z" fill="#aaccff" stroke="none" transform="matrix(1, 0, 0, 1, 1.4999999999999971, 26.499999999999996)"/><path d="M 0,0 L 118,0 L 118,9 A 5,5 0 0,1 113,14 L 5,14 A 5,5 0 0,1 0,9 z" fill="none" stroke="#373f47" stroke-width="1" stroke-linecap="butt" stroke-linejoin="miter" stroke-miterlimit="10" transform="matrix(1, 0, 0, 1, 1.4999999999999971, 26.499999999999996)"/></g><g transform="matrix(1, 0, 0, 1, 0, 0)" clip-path="url(#CLIP3212)"><text x="15" y="8.969997024536134" style="font: 10px Lato" text-anchor="middle" fill="black" stroke="none" transform="matrix(1, 0, 0, 1, 45.5, 28.919999999999998)">0</text></g></g></g></g></g><g transform="matrix(1, 0, 0, 1, 711.4611513524982, 156.45241889964547)"><path d="M 0,81.64491646692977 L 5.640065157955982,79.5980493452018 M 11.562133573809763,77.44883886738742 L 17.202198731765748,75.40197174565945 M 23.124267147619527,73.25276126784507 L 28.764332305575508,71.2058941461171 M 34.68640072142929,69.05668366830272 L 36.79813449881137,68.29030272806332 L 40.355814676611594,67.09377485767624 M 46.32714308716266,65.08548279392015 L 52.014122525782724,63.172823685581015 M 57.98545093633379,61.16453162182492 L 63.672430374953855,59.251872513485786 M 69.64375878550491,57.24358044972969 L 73.82019801026172,55.83894999346164 L 75.34239754045157,55.36700355655062 M 81.35981648615665,53.50134838158669 L 87.09069167254242,51.72453392924008 M 93.1081106182475,49.85887875427615 L 98.83898580463327,48.08206430192954 M 104.85640475033834,46.21640912696561 L 110.58727993672412,44.439594674619 M 111.07272926453336,44.28908478677805 M 116.64403311520229,42.70637046865742 L 122.41565682230404,41.06674862700582 M 128.4758617147609,39.34514569327165 L 134.24748542186265,37.70552385162005 M 140.3076903143195,35.983920917885875 L 146.07931402142125,34.34429907623428 M 148.56226699180866,33.63893363166596 M 152.16275799867412,32.70837763774805 L 157.9718762003382,31.206996367352307 M 164.07145031208546,29.63054603343678 L 169.88056851374952,28.129164763041036 M 175.9801426254968,26.55271442912551 L 181.78926082716086,25.051333158729765 M 186.2953499222699,23.886723051778727 M 187.89820443561317,23.51300620729368 L 193.74147954071924,22.15060536831584 M 199.87691840108062,20.72008448738911 L 205.7201935061867,19.357683648411268 M 211.85563236654806,17.927162767484536 L 217.69890747165414,16.564761928506694 M 223.8343463320155,15.134241047579962 L 224.2785167860995,15.03067957076974 L 229.70604314925714,13.900650743854369 M 235.87377989758065,12.616507681972314 L 241.747814895984,11.39351428970369 M 247.9155516443075,10.109371227821635 L 253.78958664271084,8.886377835553011 M 259.9573233910343,7.602234773670956 L 262.5183063134798,7.0690297122923695 L 265.8467718698958,6.457933124842387 M 272.04320309318126,5.320286389210969 L 277.94456616297697,4.236813307657236 M 284.1409973862624,3.099166572025818 L 290.04236045605813,2.0156934904720862 M 296.2387916793436,0.8780467548406679 L 301.021257234593,5.10702591327572e-15" fill="none" stroke="black" stroke-width="2" stroke-linecap="butt" stroke-linejoin="miter" stroke-miterlimit="10" transform="matrix(1, 0, 0, 1, 20.437733008191344, 17.361066368334036)"/><path d="M 0,0 L 8,4.62 L 0,9.24 z" fill="white" stroke="none" transform="matrix(1.9712455751474167, -0.337921414624362, 0.337921414624362, 1.9712455751474167, 303.142205918467, 11.126243835460052)"/><path d="M 0,0 L 8,4.62 L 0,9.24 z" fill="none" stroke="black" stroke-width="1" stroke-linecap="butt" stroke-linejoin="miter" stroke-miterlimit="10" transform="matrix(1.9712455751474167, -0.337921414624362, 0.337921414624362, 1.9712455751474167, 303.142205918467, 11.126243835460052)"/></g><g transform="matrix(1, 0, 0, 1, 514.0440489146139, 0.14911308311542126)"><path d="M 0,11.698862405805217 C 31.41953870740906,0.10726583371037046 61.515401689381974,-2.7332425825657274 93.96766018330788,2.277035268557182" fill="none" stroke="black" stroke-width="2" stroke-linecap="butt" stroke-linejoin="miter" stroke-miterlimit="10" transform="matrix(1, 0, 0, 1, 1, 1.0000000000000002)"/></g><g transform="matrix(1, 0, 0, 1, 492.6464281519541, 33.33479369740005)"><path d="M 102.13849773813979,0 C 63.12933312357086,13.859854537058546 33.033470141597945,16.70036295333464 0,11.191971710809007" fill="none" stroke="black" stroke-width="2" stroke-linecap="butt" stroke-linejoin="miter" stroke-miterlimit="10" transform="matrix(1, 0, 0, 1, 25.48191104717686, 1)"/><path d="M 0,0 L 8,4.62 L 0,9.24 z" fill="black" stroke="none" transform="matrix(-1.9727605999728421, -0.3289614190065333, 0.3289614190065333, -1.9727605999728421, 40.73057439113583, 24.102297744239074)"/><path d="M 0,0 L 8,4.62 L 0,9.24 z" fill="none" stroke="black" stroke-width="1" stroke-linecap="butt" stroke-linejoin="miter" stroke-miterlimit="10" transform="matrix(-1.9727605999728421, -0.3289614190065333, 0.3289614190065333, -1.9727605999728421, 40.73057439113583, 24.102297744239074)"/></g><g transform="matrix(1, 0, 0, 1, 142.35242567225168, 225.7399773511357)"><path d="M 80.05635992954191,50.90562711189747 C 52.37570875942882,44.99971255183286 30.382270244371796,33.424218596539646 0,0" fill="none" stroke="black" stroke-width="2" stroke-linecap="butt" stroke-linejoin="miter" stroke-miterlimit="10" transform="matrix(1, 0, 0, 1, 1, 1)"/></g><g transform="matrix(1, 0, 0, 1, 191.9907772009321, 214.36696274153888)"><path d="M 0,0 C 4.031240357322531,0.5513220870373345 26.024678872379553,12.126816042330518 46.564586655945874,31.600143036834027" fill="none" stroke="black" stroke-width="2" stroke-linecap="butt" stroke-linejoin="miter" stroke-miterlimit="10" transform="matrix(1, 0, 0, 1, 1, 1)"/><path d="M 0,0 L 8,4.62 L 0,9.24 z" fill="black" stroke="none" transform="matrix(1.451394879472563, 1.3760279444258476, -1.3760279444258476, 1.451394879472563, 41.5849792836765, 14.198461166051079)"/><path d="M 0,0 L 8,4.62 L 0,9.24 z" fill="none" stroke="black" stroke-width="1" stroke-linecap="butt" stroke-linejoin="miter" stroke-miterlimit="10" transform="matrix(1.451394879472563, 1.3760279444258476, -1.3760279444258476, 1.451394879472563, 41.5849792836765, 14.198461166051079)"/></g><g transform="matrix(1, 0, 0, 1, 1015, 82)"><path d="M 64,0 C 99.3462239891708,0 128,28.653776010829212 128,64 C 128,99.3462239891708 99.3462239891708,128 64,128 C 28.653776010829212,128 0,99.3462239891708 0,64 C 0,28.653776010829212 28.653776010829212,0 64,0 z" fill="transparent" stroke="none" transform="matrix(1, 0, 0, 1, 17, 17)"/><g transform="matrix(1, 0, 0, 1, 0, 0)"><g transform="matrix(1, 0, 0, 1, 0, 0)" clip-path="url(#CLIP3213)"/></g><path d="M 64,0 C 99.3462239891708,0 128,28.653776010829212 128,64 C 128,99.3462239891708 99.3462239891708,128 64,128 C 28.653776010829212,128 0,99.3462239891708 0,64 C 0,28.653776010829212 28.653776010829212,0 64,0 z" fill="#AACCFF" stroke="none" transform="matrix(1, 0, 0, 1, 17, 17)"/><path d="M 64,0 C 99.3462239891708,0 128,28.653776010829212 128,64 C 128,99.3462239891708 99.3462239891708,128 64,128 C 28.653776010829212,128 0,99.3462239891708 0,64 C 0,28.653776010829212 28.653776010829212,0 64,0 z" fill="none" stroke="#373f47" stroke-width="2" stroke-linecap="butt" stroke-linejoin="miter" stroke-miterlimit="10" transform="matrix(1, 0, 0, 1, 17, 17)"/><text x="50" y="37.88199920654297" style="font: 18px Lato" text-anchor="middle" fill="black" stroke="none" transform="matrix(1, 0, 0, 1, 31, 48.5)">Attribute</text><g transform="matrix(1, 0, 0, 1, 28, 16.909996471002003)"><path d="M 0,99 C 19.233073572552435,127.99494936611666 58.32961093261506,135.90851327382072 87.32456029873171,116.67543970126829 C 94.33782793162888,112.02336424273551 100.34792454146724,106.01326763289717 105,98.99999999999999 L 0,99 z" fill="#aaccff" stroke="none" transform="matrix(1, 0, 0, 1, 0.5, 0.5)"/><path d="M 0,99 C 19.233073572552435,127.99494936611666 58.32961093261506,135.90851327382072 87.32456029873171,116.67543970126829 C 94.33782793162888,112.02336424273551 100.34792454146724,106.01326763289717 105,98.99999999999999 L 0,99 z" fill="none" stroke="#373f47" stroke-width="1" stroke-linecap="butt" stroke-linejoin="miter" stroke-miterlimit="10" transform="matrix(1, 0, 0, 1, 0.5, 0.5)"/><g transform="matrix(1, 0, 0, 1, 0, 0)" clip-path="url(#CLIP3214)"><text x="0" y="8.969997024536134" style="font: 10px Lato" text-anchor="start" fill="black" stroke="none" transform="matrix(1, 0, 0, 1, 50, 108)">0</text></g></g></g><g transform="matrix(1, 0, 0, 1, 827, 365)"><path d="M 64,0 C 99.3462239891708,0 128,28.653776010829212 128,64 C 128,99.3462239891708 99.3462239891708,128 64,128 C 28.653776010829212,128 0,99.3462239891708 0,64 C 0,28.653776010829212 28.653776010829212,0 64,0 z" fill="transparent" stroke="none" transform="matrix(1, 0, 0, 1, 17, 17)"/><g transform="matrix(1, 0, 0, 1, 0, 0)"><g transform="matrix(1, 0, 0, 1, 0, 0)" clip-path="url(#CLIP3215)"/></g><path d="M 64,0 C 99.3462239891708,0 128,28.653776010829212 128,64 C 128,99.3462239891708 99.3462239891708,128 64,128 C 28.653776010829212,128 0,99.3462239891708 0,64 C 0,28.653776010829212 28.653776010829212,0 64,0 z" fill="#AACCFF" stroke="none" transform="matrix(1, 0, 0, 1, 17, 17)"/><path d="M 64,0 C 99.3462239891708,0 128,28.653776010829212 128,64 C 128,99.3462239891708 99.3462239891708,128 64,128 C 28.653776010829212,128 0,99.3462239891708 0,64 C 0,28.653776010829212 28.653776010829212,0 64,0 z" fill="none" stroke="#373f47" stroke-width="2" stroke-linecap="butt" stroke-linejoin="miter" stroke-miterlimit="10" transform="matrix(1, 0, 0, 1, 17, 17)"/><text x="50" y="37.88199920654297" style="font: 18px Lato" text-anchor="middle" fill="black" stroke="none" transform="matrix(1, 0, 0, 1, 31, 48.5)">role</text><g transform="matrix(1, 0, 0, 1, 28, 16.909996471002003)"><path d="M 0,99 C 19.233073572552435,127.99494936611666 58.32961093261506,135.90851327382072 87.32456029873171,116.67543970126829 C 94.33782793162888,112.02336424273551 100.34792454146724,106.01326763289717 105,98.99999999999999 L 0,99 z" fill="#aaccff" stroke="none" transform="matrix(1, 0, 0, 1, 0.5, 0.5)"/><path d="M 0,99 C 19.233073572552435,127.99494936611666 58.32961093261506,135.90851327382072 87.32456029873171,116.67543970126829 C 94.33782793162888,112.02336424273551 100.34792454146724,106.01326763289717 105,98.99999999999999 L 0,99 z" fill="none" stroke="#373f47" stroke-width="1" stroke-linecap="butt" stroke-linejoin="miter" stroke-miterlimit="10" transform="matrix(1, 0, 0, 1, 0.5, 0.5)"/><g transform="matrix(1, 0, 0, 1, 0, 0)" clip-path="url(#CLIP3216)"><text x="0" y="8.969997024536134" style="font: 10px Lato" text-anchor="start" fill="black" stroke="none" transform="matrix(1, 0, 0, 1, 50, 108)">0</text></g></g></g><g transform="matrix(1, 0, 0, 1, 205, 210)"><path d="M 64,0 C 99.3462239891708,0 128,28.653776010829212 128,64 C 128,99.3462239891708 99.3462239891708,128 64,128 C 28.653776010829212,128 0,99.3462239891708 0,64 C 0,28.653776010829212 28.653776010829212,0 64,0 z" fill="transparent" stroke="none" transform="matrix(1, 0, 0, 1, 17, 17)"/><g transform="matrix(1, 0, 0, 1, 0, 0)"><g transform="matrix(1, 0, 0, 1, 0, 0)" clip-path="url(#CLIP3217)"/></g><path d="M 64,0 C 99.3462239891708,0 128,28.653776010829212 128,64 C 128,99.3462239891708 99.3462239891708,128 64,128 C 28.653776010829212,128 0,99.3462239891708 0,64 C 0,28.653776010829212 28.653776010829212,0 64,0 z" fill="#AACCFF" stroke="none" transform="matrix(1, 0, 0, 1, 17, 17)"/><path d="M 64,0 C 99.3462239891708,0 128,28.653776010829212 128,64 C 128,99.3462239891708 99.3462239891708,128 64,128 C 28.653776010829212,128 0,99.3462239891708 0,64 C 0,28.653776010829212 28.653776010829212,0 64,0 z" fill="none" stroke="#373f47" stroke-width="2" stroke-linecap="butt" stroke-linejoin="miter" stroke-miterlimit="10" transform="matrix(1, 0, 0, 1, 17, 17)"/><text x="50" y="37.88199920654297" style="font: 18px Lato" text-anchor="middle" fill="black" stroke="none" transform="matrix(1, 0, 0, 1, 31, 48.5)">Object</text><g transform="matrix(1, 0, 0, 1, 28, 16.909996471002003)"><path d="M 0,99 C 19.233073572552435,127.99494936611666 58.32961093261506,135.90851327382072 87.32456029873171,116.67543970126829 C 94.33782793162888,112.02336424273551 100.34792454146724,106.01326763289717 105,98.99999999999999 L 0,99 z" fill="#aaccff" stroke="none" transform="matrix(1, 0, 0, 1, 0.5, 0.5)"/><path d="M 0,99 C 19.233073572552435,127.99494936611666 58.32961093261506,135.90851327382072 87.32456029873171,116.67543970126829 C 94.33782793162888,112.02336424273551 100.34792454146724,106.01326763289717 105,98.99999999999999 L 0,99 z" fill="none" stroke="#373f47" stroke-width="1" stroke-linecap="butt" stroke-linejoin="miter" stroke-miterlimit="10" transform="matrix(1, 0, 0, 1, 0.5, 0.5)"/><g transform="matrix(1, 0, 0, 1, 0, 0)" clip-path="url(#CLIP3218)"><text x="0" y="8.969997024536134" style="font: 10px Lato" text-anchor="start" fill="black" stroke="none" transform="matrix(1, 0, 0, 1, 50, 108)">0</text></g></g></g><g transform="matrix(1, 0, 0, 1, 644, -258)"><path d="M 64,0 C 99.3462239891708,0 128,28.653776010829212 128,64 C 128,99.3462239891708 99.3462239891708,128 64,128 C 28.653776010829212,128 0,99.3462239891708 0,64 C 0,28.653776010829212 28.653776010829212,0 64,0 z" fill="transparent" stroke="none" transform="matrix(1, 0, 0, 1, 17, 17)"/><g transform="matrix(1, 0, 0, 1, 0, 0)"><g transform="matrix(1, 0, 0, 1, 0, 0)" clip-path="url(#CLIP3219)"/></g><path d="M 64,0 C 99.3462239891708,0 128,28.653776010829212 128,64 C 128,99.3462239891708 99.3462239891708,128 64,128 C 28.653776010829212,128 0,99.3462239891708 0,64 C 0,28.653776010829212 28.653776010829212,0 64,0 z" fill="#AACCFF" stroke="none" transform="matrix(1, 0, 0, 1, 17, 17)"/><path d="M 64,0 C 99.3462239891708,0 128,28.653776010829212 128,64 C 128,99.3462239891708 99.3462239891708,128 64,128 C 28.653776010829212,128 0,99.3462239891708 0,64 C 0,28.653776010829212 28.653776010829212,0 64,0 z" fill="none" stroke="#373f47" stroke-width="2" stroke-linecap="butt" stroke-linejoin="miter" stroke-miterlimit="10" transform="matrix(1, 0, 0, 1, 17, 17)"/><g transform="matrix(1, 0, 0, 1, 0, 0)"><text x="50" y="27.118000793457032" style="font: 18px Lato" text-anchor="middle" fill="black" stroke="none" transform="matrix(1, 0, 0, 1, 31, 48.5)">Time</text><text x="50" y="48.6459976196289" style="font: 18px Lato" text-anchor="middle" fill="black" stroke="none" transform="matrix(1, 0, 0, 1, 31, 48.5)">Interval</text></g><g transform="matrix(1, 0, 0, 1, 28, 16.909996471002003)"><path d="M 0,99 C 19.233073572552435,127.99494936611666 58.32961093261506,135.90851327382072 87.32456029873171,116.67543970126829 C 94.33782793162888,112.02336424273551 100.34792454146724,106.01326763289717 105,98.99999999999999 L 0,99 z" fill="#aaccff" stroke="none" transform="matrix(1, 0, 0, 1, 0.5, 0.5)"/><path d="M 0,99 C 19.233073572552435,127.99494936611666 58.32961093261506,135.90851327382072 87.32456029873171,116.67543970126829 C 94.33782793162888,112.02336424273551 100.34792454146724,106.01326763289717 105,98.99999999999999 L 0,99 z" fill="none" stroke="#373f47" stroke-width="1" stroke-linecap="butt" stroke-linejoin="miter" stroke-miterlimit="10" transform="matrix(1, 0, 0, 1, 0.5, 0.5)"/><g transform="matrix(1, 0, 0, 1, 0, 0)" clip-path="url(#CLIP3220)"><text x="0" y="8.969997024536134" style="font: 10px Lato" text-anchor="start" fill="black" stroke="none" transform="matrix(1, 0, 0, 1, 50, 108)">0</text></g></g></g><g transform="matrix(1, 0, 0, 1, 607, 416)"><path d="M 64,0 C 99.3462239891708,0 128,28.653776010829212 128,64 C 128,99.3462239891708 99.3462239891708,128 64,128 C 28.653776010829212,128 0,99.3462239891708 0,64 C 0,28.653776010829212 28.653776010829212,0 64,0 z" fill="transparent" stroke="none" transform="matrix(1, 0, 0, 1, 17, 17)"/><g transform="matrix(1, 0, 0, 1, 0, 0)"><g transform="matrix(1, 0, 0, 1, 0, 0)" clip-path="url(#CLIP3221)"/></g><path d="M 64,0 C 99.3462239891708,0 128,28.653776010829212 128,64 C 128,99.3462239891708 99.3462239891708,128 64,128 C 28.653776010829212,128 0,99.3462239891708 0,64 C 0,28.653776010829212 28.653776010829212,0 64,0 z" fill="#AACCFF" stroke="none" transform="matrix(1, 0, 0, 1, 17, 17)"/><path d="M 64,0 C 99.3462239891708,0 128,28.653776010829212 128,64 C 128,99.3462239891708 99.3462239891708,128 64,128 C 28.653776010829212,128 0,99.3462239891708 0,64 C 0,28.653776010829212 28.653776010829212,0 64,0 z" fill="none" stroke="#373f47" stroke-width="2" stroke-linecap="butt" stroke-linejoin="miter" stroke-miterlimit="10" transform="matrix(1, 0, 0, 1, 17, 17)"/><text x="50" y="37.88199920654297" style="font: 18px Lato" text-anchor="middle" fill="black" stroke="none" transform="matrix(1, 0, 0, 1, 31, 48.5)">capability</text><g transform="matrix(1, 0, 0, 1, 28, 16.909996471002003)"><path d="M 0,99 C 19.233073572552435,127.99494936611666 58.32961093261506,135.90851327382072 87.32456029873171,116.67543970126829 C 94.33782793162888,112.02336424273551 100.34792454146724,106.01326763289717 105,98.99999999999999 L 0,99 z" fill="#aaccff" stroke="none" transform="matrix(1, 0, 0, 1, 0.5, 0.5)"/><path d="M 0,99 C 19.233073572552435,127.99494936611666 58.32961093261506,135.90851327382072 87.32456029873171,116.67543970126829 C 94.33782793162888,112.02336424273551 100.34792454146724,106.01326763289717 105,98.99999999999999 L 0,99 z" fill="none" stroke="#373f47" stroke-width="1" stroke-linecap="butt" stroke-linejoin="miter" stroke-miterlimit="10" transform="matrix(1, 0, 0, 1, 0.5, 0.5)"/><g transform="matrix(1, 0, 0, 1, 0, 0)" clip-path="url(#CLIP3222)"><text x="0" y="8.969997024536134" style="font: 10px Lato" text-anchor="start" fill="black" stroke="none" transform="matrix(1, 0, 0, 1, 50, 108)">0</text></g></g></g><g transform="matrix(1, 0, 0, 1, 591, 197)"><path d="M 64,0 C 99.3462239891708,0 128,28.653776010829212 128,64 C 128,99.3462239891708 99.3462239891708,128 64,128 C 28.653776010829212,128 0,99.3462239891708 0,64 C 0,28.653776010829212 28.653776010829212,0 64,0 z" fill="transparent" stroke="none" transform="matrix(1, 0, 0, 1, 17, 17)"/><g transform="matrix(1, 0, 0, 1, 0, 0)"><g transform="matrix(1, 0, 0, 1, 0, 0)" clip-path="url(#CLIP3223)"/></g><path d="M 64,0 C 99.3462239891708,0 128,28.653776010829212 128,64 C 128,99.3462239891708 99.3462239891708,128 64,128 C 28.653776010829212,128 0,99.3462239891708 0,64 C 0,28.653776010829212 28.653776010829212,0 64,0 z" fill="#AACCFF" stroke="none" transform="matrix(1, 0, 0, 1, 17, 17)"/><path d="M 64,0 C 99.3462239891708,0 128,28.653776010829212 128,64 C 128,99.3462239891708 99.3462239891708,128 64,128 C 28.653776010829212,128 0,99.3462239891708 0,64 C 0,28.653776010829212 28.653776010829212,0 64,0 z" fill="none" stroke="#373f47" stroke-width="2" stroke-linecap="butt" stroke-linejoin="miter" stroke-miterlimit="10" transform="matrix(1, 0, 0, 1, 17, 17)"/><g transform="matrix(1, 0, 0, 1, 0, 0)"><text x="50" y="27.118000793457032" style="font: 18px Lato" text-anchor="middle" fill="black" stroke="none" transform="matrix(1, 0, 0, 1, 31, 48.5)">Realizable</text><text x="50" y="48.6459976196289" style="font: 18px Lato" text-anchor="middle" fill="black" stroke="none" transform="matrix(1, 0, 0, 1, 31, 48.5)">Entity</text></g><g transform="matrix(1, 0, 0, 1, 28, 16.909996471002003)"><path d="M 0,99 C 19.233073572552435,127.99494936611666 58.32961093261506,135.90851327382072 87.32456029873171,116.67543970126829 C 94.33782793162888,112.02336424273551 100.34792454146724,106.01326763289717 105,98.99999999999999 L 0,99 z" fill="#aaccff" stroke="none" transform="matrix(1, 0, 0, 1, 0.5, 0.5)"/><path d="M 0,99 C 19.233073572552435,127.99494936611666 58.32961093261506,135.90851327382072 87.32456029873171,116.67543970126829 C 94.33782793162888,112.02336424273551 100.34792454146724,106.01326763289717 105,98.99999999999999 L 0,99 z" fill="none" stroke="#373f47" stroke-width="1" stroke-linecap="butt" stroke-linejoin="miter" stroke-miterlimit="10" transform="matrix(1, 0, 0, 1, 0.5, 0.5)"/><g transform="matrix(1, 0, 0, 1, 0, 0)" clip-path="url(#CLIP3224)"><text x="0" y="8.969997024536134" style="font: 10px Lato" text-anchor="start" fill="black" stroke="none" transform="matrix(1, 0, 0, 1, 50, 108)">0</text></g></g></g><g transform="matrix(1, 0, 0, 1, -23, -139)"><path d="M 64,0 C 99.3462239891708,0 128,28.653776010829212 128,64 C 128,99.3462239891708 99.3462239891708,128 64,128 C 28.653776010829212,128 0,99.3462239891708 0,64 C 0,28.653776010829212 28.653776010829212,0 64,0 z" fill="transparent" stroke="none" transform="matrix(1, 0, 0, 1, 17, 17)"/><g transform="matrix(1, 0, 0, 1, 0, 0)"><g transform="matrix(1, 0, 0, 1, 0, 0)" clip-path="url(#CLIP3225)"/></g><path d="M 64,0 C 99.3462239891708,0 128,28.653776010829212 128,64 C 128,99.3462239891708 99.3462239891708,128 64,128 C 28.653776010829212,128 0,99.3462239891708 0,64 C 0,28.653776010829212 28.653776010829212,0 64,0 z" fill="#AACCFF" stroke="none" transform="matrix(1, 0, 0, 1, 17, 17)"/><path d="M 64,0 C 99.3462239891708,0 128,28.653776010829212 128,64 C 128,99.3462239891708 99.3462239891708,128 64,128 C 28.653776010829212,128 0,99.3462239891708 0,64 C 0,28.653776010829212 28.653776010829212,0 64,0 z" fill="none" stroke="#373f47" stroke-width="2" stroke-linecap="butt" stroke-linejoin="miter" stroke-miterlimit="10" transform="matrix(1, 0, 0, 1, 17, 17)"/><text x="50" y="37.88199920654297" style="font: 18px Lato" text-anchor="middle" fill="black" stroke="none" transform="matrix(1, 0, 0, 1, 31, 48.5)">Entity</text><g transform="matrix(1, 0, 0, 1, 28, 16.909996471002003)"><path d="M 0,99 C 19.233073572552435,127.99494936611666 58.32961093261506,135.90851327382072 87.32456029873171,116.67543970126829 C 94.33782793162888,112.02336424273551 100.34792454146724,106.01326763289717 105,98.99999999999999 L 0,99 z" fill="#aaccff" stroke="none" transform="matrix(1, 0, 0, 1, 0.5, 0.5)"/><path d="M 0,99 C 19.233073572552435,127.99494936611666 58.32961093261506,135.90851327382072 87.32456029873171,116.67543970126829 C 94.33782793162888,112.02336424273551 100.34792454146724,106.01326763289717 105,98.99999999999999 L 0,99 z" fill="none" stroke="#373f47" stroke-width="1" stroke-linecap="butt" stroke-linejoin="miter" stroke-miterlimit="10" transform="matrix(1, 0, 0, 1, 0.5, 0.5)"/><g transform="matrix(1, 0, 0, 1, 0, 0)" clip-path="url(#CLIP3226)"><text x="0" y="8.969997024536134" style="font: 10px Lato" text-anchor="start" fill="black" stroke="none" transform="matrix(1, 0, 0, 1, 50, 108)">0</text></g></g></g><g transform="matrix(1, 0, 0, 1, 374, -46)"><path d="M 64,0 C 99.3462239891708,0 128,28.653776010829212 128,64 C 128,99.3462239891708 99.3462239891708,128 64,128 C 28.653776010829212,128 0,99.3462239891708 0,64 C 0,28.653776010829212 28.653776010829212,0 64,0 z" fill="transparent" stroke="none" transform="matrix(1, 0, 0, 1, 17, 17)"/><g transform="matrix(1, 0, 0, 1, 0, 0)"><g transform="matrix(1, 0, 0, 1, 0, 0)" clip-path="url(#CLIP3227)"/></g><path d="M 64,0 C 99.3462239891708,0 128,28.653776010829212 128,64 C 128,99.3462239891708 99.3462239891708,128 64,128 C 28.653776010829212,128 0,99.3462239891708 0,64 C 0,28.653776010829212 28.653776010829212,0 64,0 z" fill="#AACCFF" stroke="none" transform="matrix(1, 0, 0, 1, 17, 17)"/><path d="M 64,0 C 99.3462239891708,0 128,28.653776010829212 128,64 C 128,99.3462239891708 99.3462239891708,128 64,128 C 28.653776010829212,128 0,99.3462239891708 0,64 C 0,28.653776010829212 28.653776010829212,0 64,0 z" fill="none" stroke="#373f47" stroke-width="2" stroke-linecap="butt" stroke-linejoin="miter" stroke-miterlimit="10" transform="matrix(1, 0, 0, 1, 17, 17)"/><text x="50" y="37.88199920654297" style="font: 18px Lato" text-anchor="middle" fill="black" stroke="none" transform="matrix(1, 0, 0, 1, 31, 48.5)">Process</text><g transform="matrix(1, 0, 0, 1, 28, 16.909996471002003)"><path d="M 0,99 C 19.233073572552435,127.99494936611666 58.32961093261506,135.90851327382072 87.32456029873171,116.67543970126829 C 94.33782793162888,112.02336424273551 100.34792454146724,106.01326763289717 105,98.99999999999999 L 0,99 z" fill="#aaccff" stroke="none" transform="matrix(1, 0, 0, 1, 0.5, 0.5)"/><path d="M 0,99 C 19.233073572552435,127.99494936611666 58.32961093261506,135.90851327382072 87.32456029873171,116.67543970126829 C 94.33782793162888,112.02336424273551 100.34792454146724,106.01326763289717 105,98.99999999999999 L 0,99 z" fill="none" stroke="#373f47" stroke-width="1" stroke-linecap="butt" stroke-linejoin="miter" stroke-miterlimit="10" transform="matrix(1, 0, 0, 1, 0.5, 0.5)"/><g transform="matrix(1, 0, 0, 1, 0, 0)" clip-path="url(#CLIP3228)"><text x="0" y="8.969997024536134" style="font: 10px Lato" text-anchor="start" fill="black" stroke="none" transform="matrix(1, 0, 0, 1, 50, 108)">0</text></g></g></g><g transform="matrix(1, 0, 0, 1, 609, -7)"><g transform="matrix(1, 0, 0, 1, 0, 0)"><g transform="matrix(1, 0, 0, 1, 0, 0)"><g transform="matrix(1, 0, 0, 1, 0, 0)"><path d="M 0,4 A 4,4 0 0,1 3.999999999999999,0 L 131,0 A 4,4 0 0,1 135,3.999999999999999 L 135,36 A 4,4 0 0,1 131,40 L 4,40 A 4,4 0 0,1 0,36 z" fill="white" stroke="none" transform="matrix(1, 0, 0, 1, 1, 1)"/><path d="M 0,4 A 4,4 0 0,1 3.999999999999999,0 L 131,0 A 4,4 0 0,1 135,3.999999999999999 L 135,36 A 4,4 0 0,1 131,40 L 4,40 A 4,4 0 0,1 0,36 z" fill="none" stroke="#373f47" stroke-width="2" stroke-linecap="butt" stroke-linejoin="miter" stroke-miterlimit="10" transform="matrix(1, 0, 0, 1, 1, 1)"/><text x="63" y="12.557989883422852" style="font: 14px Lato" text-anchor="middle" fill="black" stroke="none" transform="matrix(1, 0, 0, 1, 6.300000000000009, 8.411202697753906)">has proper part</text><g transform="matrix(1, 0, 0, 1, 0, 0)" clip-path="url(#CLIP3229)"><path d="M 0,0 L 135,0 L 135,9 A 5,5 0 0,1 130,14 L 5,14 A 5,5 0 0,1 0,9 z" fill="#aaccff" stroke="none" transform="matrix(1, 0, 0, 1, 1.0000000000000113, 26.499999999999996)"/><path d="M 0,0 L 135,0 L 135,9 A 5,5 0 0,1 130,14 L 5,14 A 5,5 0 0,1 0,9 z" fill="none" stroke="#373f47" stroke-width="1" stroke-linecap="butt" stroke-linejoin="miter" stroke-miterlimit="10" transform="matrix(1, 0, 0, 1, 1.0000000000000113, 26.499999999999996)"/></g><g transform="matrix(1, 0, 0, 1, 0, 0)" clip-path="url(#CLIP3230)"><text x="15" y="8.969997024536134" style="font: 10px Lato" text-anchor="middle" fill="black" stroke="none" transform="matrix(1, 0, 0, 1, 53.500000000000014, 28.919999999999998)">0</text></g></g></g></g></g><g transform="matrix(1, 0, 0, 1, 56, 185)"><g transform="matrix(1, 0, 0, 1, 0, 0)"><g transform="matrix(1, 0, 0, 1, 0, 0)"><g transform="matrix(1, 0, 0, 1, 0, 0)"><path d="M 0,4 A 4,4 0 0,1 3.999999999999999,0 L 131,0 A 4,4 0 0,1 135,3.999999999999999 L 135,36 A 4,4 0 0,1 131,40 L 4,40 A 4,4 0 0,1 0,36 z" fill="white" stroke="none" transform="matrix(1, 0, 0, 1, 1, 1)"/><path d="M 0,4 A 4,4 0 0,1 3.999999999999999,0 L 131,0 A 4,4 0 0,1 135,3.999999999999999 L 135,36 A 4,4 0 0,1 131,40 L 4,40 A 4,4 0 0,1 0,36 z" fill="none" stroke="#373f47" stroke-width="2" stroke-linecap="butt" stroke-linejoin="miter" stroke-miterlimit="10" transform="matrix(1, 0, 0, 1, 1, 1)"/><text x="63" y="12.557989883422852" style="font: 14px Lato" text-anchor="middle" fill="black" stroke="none" transform="matrix(1, 0, 0, 1, 6.300000000000009, 8.411202697753906)">has proper part</text><g transform="matrix(1, 0, 0, 1, 0, 0)" clip-path="url(#CLIP3231)"><path d="M 0,0 L 135,0 L 135,9 A 5,5 0 0,1 130,14 L 5,14 A 5,5 0 0,1 0,9 z" fill="#aaccff" stroke="none" transform="matrix(1, 0, 0, 1, 1.0000000000000113, 26.499999999999996)"/><path d="M 0,0 L 135,0 L 135,9 A 5,5 0 0,1 130,14 L 5,14 A 5,5 0 0,1 0,9 z" fill="none" stroke="#373f47" stroke-width="1" stroke-linecap="butt" stroke-linejoin="miter" stroke-miterlimit="10" transform="matrix(1, 0, 0, 1, 1.0000000000000113, 26.499999999999996)"/></g><g transform="matrix(1, 0, 0, 1, 0, 0)" clip-path="url(#CLIP3232)"><text x="15" y="8.969997024536134" style="font: 10px Lato" text-anchor="middle" fill="black" stroke="none" transform="matrix(1, 0, 0, 1, 53.500000000000014, 28.919999999999998)">0</text></g></g></g></g></g></g></g><clipPath id="mainClip3204"><rect x="0" y="0" width="1202" height="838"/></clipPath><clipPath id="CLIP3205"><path d="M 1.2,1.2 L 87.8,1.2 L 87.8,42 L 1.2,42 z" transform="matrix(1, 0, 0, 1, 0, 0)"/></clipPath><clipPath id="CLIP3206"><path d="M 29.499999999999996,28.919999999999998 L 59.5,28.919999999999998 L 59.5,38.92 L 29.499999999999996,38.92 z" transform="matrix(1, 0, 0, 1, 0, 0)"/></clipPath><clipPath id="CLIP3207"><path d="M 1.2,1.2 L 127.8,1.2 L 127.8,42 L 1.2,42 z" transform="matrix(1, 0, 0, 1, 0, 0)"/></clipPath><clipPath id="CLIP3208"><path d="M 49.5,28.919999999999998 L 79.5,28.919999999999998 L 79.5,38.92 L 49.5,38.92 z" transform="matrix(1, 0, 0, 1, 0, 0)"/></clipPath><clipPath id="CLIP3209"><path d="M 1.2,1.2 L 140.8,1.2 L 140.8,42 L 1.2,42 z" transform="matrix(1, 0, 0, 1, 0, 0)"/></clipPath><clipPath id="CLIP3210"><path d="M 56.000000000000014,28.919999999999998 L 86.00000000000001,28.919999999999998 L 86.00000000000001,38.92 L 56.000000000000014,38.92 z" transform="matrix(1, 0, 0, 1, 0, 0)"/></clipPath><clipPath id="CLIP3211"><path d="M 1.2,1.2 L 119.8,1.2 L 119.8,42 L 1.2,42 z" transform="matrix(1, 0, 0, 1, 0, 0)"/></clipPath><clipPath id="CLIP3212"><path d="M 45.5,28.919999999999998 L 75.5,28.919999999999998 L 75.5,38.92 L 45.5,38.92 z" transform="matrix(1, 0, 0, 1, 0, 0)"/></clipPath><clipPath id="CLIP3213"><path d="M -1,-1 L 162,-1 L 162,162 L -1,162 z" transform="matrix(1, 0, 0, 1, 0, 0)"/></clipPath><clipPath id="CLIP3214"><path d="M 50,108 L 80,108 L 80,118 L 50,118 z" transform="matrix(1, 0, 0, 1, 0, 0)"/></clipPath><clipPath id="CLIP3215"><path d="M -1,-1 L 162,-1 L 162,162 L -1,162 z" transform="matrix(1, 0, 0, 1, 0, 0)"/></clipPath><clipPath id="CLIP3216"><path d="M 50,108 L 80,108 L 80,118 L 50,118 z" transform="matrix(1, 0, 0, 1, 0, 0)"/></clipPath><clipPath id="CLIP3217"><path d="M -1,-1 L 162,-1 L 162,162 L -1,162 z" transform="matrix(1, 0, 0, 1, 0, 0)"/></clipPath><clipPath id="CLIP3218"><path d="M 50,108 L 80,108 L 80,118 L 50,118 z" transform="matrix(1, 0, 0, 1, 0, 0)"/></clipPath><clipPath id="CLIP3219"><path d="M -1,-1 L 162,-1 L 162,162 L -1,162 z" transform="matrix(1, 0, 0, 1, 0, 0)"/></clipPath><clipPath id="CLIP3220"><path d="M 50,108 L 80,108 L 80,118 L 50,118 z" transform="matrix(1, 0, 0, 1, 0, 0)"/></clipPath><clipPath id="CLIP3221"><path d="M -1,-1 L 162,-1 L 162,162 L -1,162 z" transform="matrix(1, 0, 0, 1, 0, 0)"/></clipPath><clipPath id="CLIP3222"><path d="M 50,108 L 80,108 L 80,118 L 50,118 z" transform="matrix(1, 0, 0, 1, 0, 0)"/></clipPath><clipPath id="CLIP3223"><path d="M -1,-1 L 162,-1 L 162,162 L -1,162 z" transform="matrix(1, 0, 0, 1, 0, 0)"/></clipPath><clipPath id="CLIP3224"><path d="M 50,108 L 80,108 L 80,118 L 50,118 z" transform="matrix(1, 0, 0, 1, 0, 0)"/></clipPath><clipPath id="CLIP3225"><path d="M -1,-1 L 162,-1 L 162,162 L -1,162 z" transform="matrix(1, 0, 0, 1, 0, 0)"/></clipPath><clipPath id="CLIP3226"><path d="M 50,108 L 80,108 L 80,118 L 50,118 z" transform="matrix(1, 0, 0, 1, 0, 0)"/></clipPath><clipPath id="CLIP3227"><path d="M -1,-1 L 162,-1 L 162,162 L -1,162 z" transform="matrix(1, 0, 0, 1, 0, 0)"/></clipPath><clipPath id="CLIP3228"><path d="M 50,108 L 80,108 L 80,118 L 50,118 z" transform="matrix(1, 0, 0, 1, 0, 0)"/></clipPath><clipPath id="CLIP3229"><path d="M 1.2,1.2 L 135.8,1.2 L 135.8,42 L 1.2,42 z" transform="matrix(1, 0, 0, 1, 0, 0)"/></clipPath><clipPath id="CLIP3230"><path d="M 53.500000000000014,28.919999999999998 L 83.50000000000001,28.919999999999998 L 83.50000000000001,38.92 L 53.500000000000014,38.92 z" transform="matrix(1, 0, 0, 1, 0, 0)"/></clipPath><clipPath id="CLIP3231"><path d="M 1.2,1.2 L 135.8,1.2 L 135.8,42 L 1.2,42 z" transform="matrix(1, 0, 0, 1, 0, 0)"/></clipPath><clipPath id="CLIP3232"><path d="M 53.500000000000014,28.919999999999998 L 83.50000000000001,28.919999999999998 L 83.50000000000001,38.92 L 53.500000000000014,38.92 z" transform="matrix(1, 0, 0, 1, 0, 0)"/></clipPath></svg>