<svg version="1.1" xmlns="http://www.w3.org/2000/svg" viewBox="0 0 1458.9695185106248 802.7942962646484" width="1458.9695185106248" height="802.7942962646484">
  <!-- svg-source:excalidraw -->
  
  <defs>
    <style>
      @font-face {
        font-family: "Virgil";
        src: url("https://excalidraw.com/Virgil.woff2");
      }
      @font-face {
        font-family: "Cascadia";
        src: url("https://excalidraw.com/Cascadia.woff2");
      }
    </style>
  </defs>
  <rect x="0" y="0" width="1458.9695185106248" height="802.7942962646484" fill="#ffffff"></rect><g stroke-linecap="round" transform="translate(939.7178955078125 214.77529907226562) rotate(0 67.94384765625 32.257354736328125)"><path d="M16.13 0 M16.13 0 C52.83 1.51, 89.04 0.7, 119.76 0 M119.76 0 C132.36 0.01, 137.18 4.98, 135.89 16.13 M135.89 16.13 C135.86 23.93, 137.77 29.51, 135.89 48.39 M135.89 48.39 C134.57 60.27, 130.04 66, 119.76 64.51 M119.76 64.51 C98.01 64.85, 75.72 63.49, 16.13 64.51 M16.13 64.51 C3.78 63.66, -0.55 58.59, 0 48.39 M0 48.39 C1.72 37.16, -1.71 23.47, 0 16.13 M0 16.13 C1.39 3.54, 6.37 0.92, 16.13 0" stroke="#000000" stroke-width="1.5" fill="none" stroke-dasharray="1.5 7"></path></g><g transform="translate(969.4686279296875 219.89382934570312) rotate(0 38 25)"><text x="38" y="18" font-family="Virgil, Segoe UI Emoji" font-size="20px" fill="#000000" text-anchor="middle" style="white-space: pre;" direction="ltr">Physical</text><text x="38" y="43" font-family="Virgil, Segoe UI Emoji" font-size="20px" fill="#000000" text-anchor="middle" style="white-space: pre;" direction="ltr">Object</text></g><g stroke-linecap="round" transform="translate(636.7474365234375 215.9815673828125) rotate(0 63.1324462890625 31.589767456054688)"><path d="M15.79 0 M15.79 0 C38.86 -0.35, 62.96 -0.4, 110.47 0 M110.47 0 C122.3 -0.4, 124.62 6.62, 126.26 15.79 M126.26 15.79 C127.89 26.68, 124.91 40.02, 126.26 47.38 M126.26 47.38 C125.79 59.4, 119.39 63.76, 110.47 63.18 M110.47 63.18 C86.68 62.81, 58.29 62.65, 15.79 63.18 M15.79 63.18 C4.72 62.63, 1.3 57.14, 0 47.38 M0 47.38 C-2.09 37.83, 1.14 29.17, 0 15.79 M0 15.79 C0.99 6.18, 5.55 -0.62, 15.79 0" stroke="#000000" stroke-width="1.5" fill="none" stroke-dasharray="1.5 7"></path></g><g transform="translate(658.8798828125 222.5713348388672) rotate(0 41 25)"><text x="41" y="18" font-family="Virgil, Segoe UI Emoji" font-size="20px" fill="#000000" text-anchor="middle" style="white-space: pre;" direction="ltr">Physical</text><text x="41" y="43" font-family="Virgil, Segoe UI Emoji" font-size="20px" fill="#000000" text-anchor="middle" style="white-space: pre;" direction="ltr">Artifact</text></g><g stroke-linecap="round" transform="translate(334.4901123046875 217.02731323242188) rotate(0 63.1324462890625 31.589767456054688)"><path d="M15.79 0 M15.79 0 C48.72 -0.38, 86.52 -1.6, 110.47 0 M15.79 0 C47.05 -0.57, 77.64 0.32, 110.47 0 M110.47 0 C122.84 0.63, 124.67 3.79, 126.26 15.79 M110.47 0 C120.98 1.27, 126.63 4.32, 126.26 15.79 M126.26 15.79 C126.27 28.73, 126.05 40.98, 126.26 47.38 M126.26 15.79 C125.49 26.63, 125.84 36.59, 126.26 47.38 M126.26 47.38 C128.04 57.36, 122.67 63.83, 110.47 63.18 M126.26 47.38 C124.51 60.1, 120.92 62.56, 110.47 63.18 M110.47 63.18 C90.3 63.85, 70.61 63.2, 15.79 63.18 M110.47 63.18 C75.78 62.55, 41.69 61.65, 15.79 63.18 M15.79 63.18 C4.62 63.69, -0.13 56.65, 0 47.38 M15.79 63.18 C3 62.45, 1.08 58.73, 0 47.38 M0 47.38 C0.53 35.82, 1.81 27.04, 0 15.79 M0 47.38 C0.28 36.95, 0.55 26.25, 0 15.79 M0 15.79 C1.45 6.99, 5.92 1.84, 15.79 0 M0 15.79 C-2.07 5.92, 7.48 -1.26, 15.79 0" stroke="#000000" stroke-width="1" fill="none"></path></g><g transform="translate(356.12255859375 223.61708068847656) rotate(0 41.5 25)"><text x="41.5" y="18" font-family="Virgil, Segoe UI Emoji" font-size="20px" fill="#000000" text-anchor="middle" style="white-space: pre;" direction="ltr">Designed</text><text x="41.5" y="43" font-family="Virgil, Segoe UI Emoji" font-size="20px" fill="#000000" text-anchor="middle" style="white-space: pre;" direction="ltr">Artifact</text></g><g stroke-linecap="round"><g transform="translate(770.3028564453125 245.04190063476562) rotate(0 83.3609513156116 -0.8947917930781841)"><path d="M-0.81 0.47 C36.98 0.26, 73.87 -0.62, 167.53 -2.26" stroke="#000000" stroke-width="4.5" fill="none" stroke-dasharray="8 12"></path></g><g transform="translate(770.3028564453125 245.04190063476562) rotate(0 83.3609513156116 -0.8947917930781841)"><path d="M138.72 8.98 C145.82 5.73, 152.12 2.84, 168.34 -2.85" stroke="#000000" stroke-width="4.5" fill="none"></path></g><g transform="translate(770.3028564453125 245.04190063476562) rotate(0 83.3609513156116 -0.8947917930781841)"><path d="M138.35 -11.54 C145.72 -10.26, 152.1 -8.62, 168.34 -2.85" stroke="#000000" stroke-width="4.5" fill="none"></path></g></g><g transform="translate(797.4578857421875 216.36953735351562) rotate(0 55 12.5)"><text x="0" y="18" font-family="Virgil, Segoe UI Emoji" font-size="20px" fill="#000000" text-anchor="start" style="white-space: pre;" direction="ltr">subClassOf</text></g><g stroke-linecap="round"><g transform="translate(465.8231201171875 248.96498652407047) rotate(0 84.74613897874951 0.21693097679980156)"><path d="M-1.69 1.63 C52.98 -0.08, 103.78 -0.74, 171.18 -1.2" stroke="#000000" stroke-width="4.5" fill="none" stroke-dasharray="8 12"></path></g><g transform="translate(465.8231201171875 248.96498652407047) rotate(0 84.74613897874951 0.21693097679980156)"><path d="M141.39 10.94 C152.42 5.91, 159.55 1.87, 173.07 -2.84" stroke="#000000" stroke-width="4.5" fill="none"></path></g><g transform="translate(465.8231201171875 248.96498652407047) rotate(0 84.74613897874951 0.21693097679980156)"><path d="M141.21 -9.58 C152.23 -8.27, 159.42 -5.96, 173.07 -2.84" stroke="#000000" stroke-width="4.5" fill="none"></path></g></g><g transform="translate(490.1739501953125 218.6768798828125) rotate(0 55 12.5)"><text x="0" y="18" font-family="Virgil, Segoe UI Emoji" font-size="20px" fill="#000000" text-anchor="start" style="white-space: pre;" direction="ltr">subClassOf</text></g><g stroke-linecap="round" transform="translate(340.131103515625 13.967559814453125) rotate(0 63.1324462890625 31.5897674560547)"><path d="M15.79 0 M15.79 0 C43.91 -0.12, 71.2 0, 110.47 0 M15.79 0 C47.12 -0.42, 77.47 0.52, 110.47 0 M110.47 0 C122.68 -0.97, 125.73 5.45, 126.26 15.79 M110.47 0 C119.94 0.26, 128.42 7.04, 126.26 15.79 M126.26 15.79 C125.77 24.36, 125.42 28.05, 126.26 47.38 M126.26 15.79 C126.75 26.94, 126.53 40.34, 126.26 47.38 M126.26 47.38 C127.38 57.79, 121.64 63.69, 110.47 63.18 M126.26 47.38 C126.18 56.11, 122.38 63.87, 110.47 63.18 M110.47 63.18 C82.97 63.67, 54.48 65.47, 15.79 63.18 M110.47 63.18 C87.59 63.87, 65.95 62.73, 15.79 63.18 M15.79 63.18 C4.31 62.25, -1.89 56, 0 47.38 M15.79 63.18 C4.5 61.03, -0.94 57.19, 0 47.38 M0 47.38 C-1.76 40.54, 1.56 31.75, 0 15.79 M0 47.38 C-0.55 37.28, -0.05 26.05, 0 15.79 M0 15.79 C-0.66 3.33, 5.68 -0.38, 15.79 0 M0 15.79 C1.86 3.19, 4.16 -0.27, 15.79 0" stroke="#000000" stroke-width="1" fill="none"></path></g><g transform="translate(372.7635498046875 20.557327270507812) rotate(0 30.5 12.5)"><text x="30.5" y="18" font-family="Virgil, Segoe UI Emoji" font-size="20px" fill="#000000" text-anchor="middle" style="white-space: pre;" direction="ltr">Design</text></g><g stroke-linecap="round"><g transform="translate(402.6929635761719 215.3251953125) rotate(0 1.3923076886151193 -68.06749771907926)"><path d="M0.2 1.35 C0.95 -55.6, 0.6 -109.8, 1.39 -137.49 M0.34 0.87 C1.9 -44.66, 3.36 -86.49, 2.13 -137.25" stroke="#000000" stroke-width="1" fill="none"></path></g><g transform="translate(402.6929635761719 215.3251953125) rotate(0 1.3923076886151193 -68.06749771907926)"><path d="M12.89 -107.82 C9.08 -121.8, 3.6 -133, 1.15 -138.12 M13.02 -108.31 C9.7 -119.16, 7.02 -126.26, 1.89 -137.89" stroke="#000000" stroke-width="1" fill="none"></path></g><g transform="translate(402.6929635761719 215.3251953125) rotate(0 1.3923076886151193 -68.06749771907926)"><path d="M-7.63 -107.61 C-3.31 -121.61, -0.66 -132.89, 1.15 -138.12 M-7.5 -108.09 C-4.26 -118.92, -0.36 -126.1, 1.89 -137.89" stroke="#000000" stroke-width="1" fill="none"></path></g></g><g transform="translate(423.6590576171875 139.9801025390625) rotate(0 66 12.5)"><text x="0" y="18" font-family="Virgil, Segoe UI Emoji" font-size="20px" fill="#000000" text-anchor="start" style="white-space: pre;" direction="ltr">isDescribedBy</text></g><g stroke-linecap="round" transform="translate(657.001220703125 10) rotate(0 63.1324462890625 31.5897674560547)"><path d="M15.79 0 M15.79 0 C32.77 -1.65, 52.86 1, 110.47 0 M15.79 0 C48.52 -0.9, 80.95 0.17, 110.47 0 M110.47 0 C121.66 -1.96, 126.83 7.15, 126.26 15.79 M110.47 0 C119.76 1.4, 124.77 7.21, 126.26 15.79 M126.26 15.79 C127.29 24.51, 126.7 34.34, 126.26 47.38 M126.26 15.79 C126.24 28.04, 125.49 39.24, 126.26 47.38 M126.26 47.38 C125.23 58.5, 122.64 63.63, 110.47 63.18 M126.26 47.38 C126.54 58.26, 122.56 62.7, 110.47 63.18 M110.47 63.18 C77.16 62, 42.54 62.42, 15.79 63.18 M110.47 63.18 C84.95 63.09, 58.91 64.3, 15.79 63.18 M15.79 63.18 C4.75 63.62, 0.92 56.84, 0 47.38 M15.79 63.18 C3.49 64.3, -0.36 58.48, 0 47.38 M0 47.38 C-1.01 34.85, 1.48 24.23, 0 15.79 M0 47.38 C-0.25 37.97, 0.82 27.83, 0 15.79 M0 15.79 C1.83 5.22, 4.68 0.17, 15.79 0 M0 15.79 C-1.03 7.01, 3.97 1.12, 15.79 0" stroke="#000000" stroke-width="1" fill="none"></path></g><g transform="translate(664.1336669921875 16.589767456054688) rotate(0 56 25)"><text x="56" y="18" font-family="Virgil, Segoe UI Emoji" font-size="20px" fill="#000000" text-anchor="middle" style="white-space: pre;" direction="ltr">Information</text><text x="56" y="43" font-family="Virgil, Segoe UI Emoji" font-size="20px" fill="#000000" text-anchor="middle" style="white-space: pre;" direction="ltr">Object</text></g><g stroke-linecap="round"><g transform="translate(467.3959960937502 42.76178144097605) rotate(0 96.24696768447745 0.12520952004830121)"><path d="M-1.15 1.83 C54.32 -2.13, 108.89 -2.26, 193.65 -0.51 M-0.25 -0.71 C66.19 0.17, 133.14 1.12, 193.05 0.15" stroke="#000000" stroke-width="1" fill="none"></path></g><g transform="translate(467.3959960937502 42.76178144097605) rotate(0 96.24696768447745 0.12520952004830121)"><path d="M163.78 12.45 C172.84 6.82, 181.01 3.55, 194.57 -0.97 M164.69 9.91 C174.05 6.99, 183.84 4.07, 193.97 -0.31" stroke="#000000" stroke-width="1" fill="none"></path></g><g transform="translate(467.3959960937502 42.76178144097605) rotate(0 96.24696768447745 0.12520952004830121)"><path d="M163.63 -8.07 C172.75 -7.9, 180.96 -5.36, 194.57 -0.97 M164.54 -10.61 C173.79 -6.38, 183.63 -2.14, 193.97 -0.31" stroke="#000000" stroke-width="1" fill="none"></path></g></g><g transform="translate(485.8851318359375 12.978866577148438) rotate(0 68.5 12.5)"><text x="0" y="18" font-family="Virgil, Segoe UI Emoji" font-size="20px" fill="#000000" text-anchor="start" style="white-space: pre;" direction="ltr">isExpressedBy</text></g><g stroke-linecap="round" transform="translate(437.0009765625 441.70521545410156) rotate(0 63.1324462890625 31.589767456054688)"><path d="M15.79 0 M15.79 0 C38.6 2.14, 63.96 -1.14, 110.47 0 M15.79 0 C51.32 -0.89, 88.15 -1.27, 110.47 0 M110.47 0 C119.5 0.99, 127.18 7.16, 126.26 15.79 M110.47 0 C121.08 -1.81, 124.16 4.93, 126.26 15.79 M126.26 15.79 C127.36 23.65, 127.16 31.04, 126.26 47.38 M126.26 15.79 C126.25 22.75, 126.74 31.58, 126.26 47.38 M126.26 47.38 C128.23 58.53, 120.23 62.42, 110.47 63.18 M126.26 47.38 C125.23 56.03, 122.67 62.99, 110.47 63.18 M110.47 63.18 C80.13 64.47, 48.36 64.35, 15.79 63.18 M110.47 63.18 C73 62.94, 35.71 64.68, 15.79 63.18 M15.79 63.18 C5.12 64.83, 0.19 57.14, 0 47.38 M15.79 63.18 C3.5 63.38, 0.95 57.32, 0 47.38 M0 47.38 C0.21 38.16, 0.22 29.85, 0 15.79 M0 47.38 C-0.46 34.33, -0.65 21.88, 0 15.79 M0 15.79 C0.89 4.42, 7.02 0.84, 15.79 0 M0 15.79 C1.79 7.07, 4.45 -0.12, 15.79 0" stroke="#000000" stroke-width="1" fill="none"></path></g><g transform="translate(450.9273681640625 448.29498291015625) rotate(0 48.5 25)"><text x="48.5" y="18" font-family="Virgil, Segoe UI Emoji" font-size="20px" fill="#000000" text-anchor="middle" style="white-space: pre;" direction="ltr">Functional</text><text x="48.5" y="43" font-family="Virgil, Segoe UI Emoji" font-size="20px" fill="#000000" text-anchor="middle" style="white-space: pre;" direction="ltr">System</text></g><g transform="translate(245.2274169921875 415.87713623046875) rotate(0 66.5 25)"><text x="0" y="18" font-family="Virgil, Segoe UI Emoji" font-size="20px" fill="#000000" text-anchor="start" style="white-space: pre;" direction="ltr">hasComponent</text><text x="0" y="43" font-family="Virgil, Segoe UI Emoji" font-size="20px" fill="#000000" text-anchor="start" style="white-space: pre;" direction="ltr">Part</text></g><g stroke-linecap="round" transform="translate(52.45166015625 125.53376770019531) rotate(0 63.1324462890625 31.589767456054688)"><path d="M15.79 0 M15.79 0 C45.16 -1.98, 70.68 0.49, 110.47 0 M15.79 0 C37.83 -0.99, 59.83 -1.69, 110.47 0 M110.47 0 C120.07 -0.53, 127.79 3.76, 126.26 15.79 M110.47 0 C119.48 0.83, 128.41 4.1, 126.26 15.79 M126.26 15.79 C125.33 22.95, 128.13 30.64, 126.26 47.38 M126.26 15.79 C125.36 25.67, 125.17 37.38, 126.26 47.38 M126.26 47.38 C125.76 57.48, 122.63 62.96, 110.47 63.18 M126.26 47.38 C126.78 58.19, 122.05 64.95, 110.47 63.18 M110.47 63.18 C79.93 63.28, 51.92 62.83, 15.79 63.18 M110.47 63.18 C78.33 63.49, 44.26 62.65, 15.79 63.18 M15.79 63.18 C5.39 64.28, -1.89 57.8, 0 47.38 M15.79 63.18 C7.06 65.04, -0.42 59.19, 0 47.38 M0 47.38 C-0.63 38.75, -1.3 28.79, 0 15.79 M0 47.38 C-0.88 40.84, -0.14 33.1, 0 15.79 M0 15.79 C-0.59 6.71, 4.37 -1.36, 15.79 0 M0 15.79 C-2.27 5.24, 3.08 -1.23, 15.79 0" stroke="#000000" stroke-width="1" fill="none"></path></g><g transform="translate(76.5841064453125 144.62353515625) rotate(0 39 12.5)"><text x="39" y="18" font-family="Virgil, Segoe UI Emoji" font-size="20px" fill="#000000" text-anchor="middle" style="white-space: pre;" direction="ltr">Function</text></g><g stroke-linecap="round"><g transform="translate(328.2884521484375 229.28083653614198) rotate(0 -73.84316190890968 -23.04330389809914)"><path d="M0.27 1.24 C-51.47 -13.09, -100.02 -29.75, -147.96 -46.13 M0.23 -0.51 C-54.33 -16.94, -110.83 -33.85, -147.49 -47.32" stroke="#000000" stroke-width="1" fill="none"></path></g><g transform="translate(328.2884521484375 229.28083653614198) rotate(0 -73.84316190890968 -23.04330389809914)"><path d="M-117.22 -46.65 C-128.36 -45.61, -136.42 -45.97, -148.39 -46.88 M-117.27 -48.4 C-127.99 -47.95, -140.71 -47.23, -147.92 -48.08" stroke="#000000" stroke-width="1" fill="none"></path></g><g transform="translate(328.2884521484375 229.28083653614198) rotate(0 -73.84316190890968 -23.04330389809914)"><path d="M-123.88 -27.24 C-132.76 -32.97, -138.52 -40.03, -148.39 -46.88 M-123.92 -28.99 C-132.18 -35.84, -142.4 -42.38, -147.92 -48.08" stroke="#000000" stroke-width="1" fill="none"></path></g></g><g transform="translate(176.9246826171875 220.77420043945312) rotate(0 56 12.5)"><text x="0" y="18" font-family="Virgil, Segoe UI Emoji" font-size="20px" fill="#000000" text-anchor="start" style="white-space: pre;" direction="ltr">hasFunction</text></g><g stroke-linecap="round" transform="translate(727.895263671875 331.1790466308594) rotate(0 63.1324462890625 31.589767456054688)"><path d="M15.79 0 M15.79 0 C38.28 -1.92, 62.06 0.66, 110.47 0 M110.47 0 C120.19 0.48, 125.1 4.83, 126.26 15.79 M126.26 15.79 C127.71 25.8, 124.61 40.06, 126.26 47.38 M126.26 47.38 C125.34 58.53, 121.35 61.98, 110.47 63.18 M110.47 63.18 C78.3 64.27, 50.98 61.85, 15.79 63.18 M15.79 63.18 C3.34 64.08, -0.81 59.27, 0 47.38 M0 47.38 C-0.64 39.95, 0.47 32.25, 0 15.79 M0 15.79 C-0.7 6.95, 5.85 -1.56, 15.79 0" stroke="#000000" stroke-width="1.5" fill="none" stroke-dasharray="1.5 7"></path></g><g transform="translate(741.3216552734375 337.76881408691406) rotate(0 49 25)"><text x="49" y="18" font-family="Virgil, Segoe UI Emoji" font-size="20px" fill="#000000" text-anchor="middle" style="white-space: pre;" direction="ltr">Object</text><text x="49" y="43" font-family="Virgil, Segoe UI Emoji" font-size="20px" fill="#000000" text-anchor="middle" style="white-space: pre;" direction="ltr">Aggregate</text></g><g stroke-linecap="round"><g transform="translate(568.8646240234375 454.3831864593824) rotate(0 79.66136481070134 -28.1082359513058)"><path d="M1.22 0.99 C44.77 -14.4, 86.32 -28.6, 158.1 -57.2" stroke="#000000" stroke-width="4.5" fill="none" stroke-dasharray="8 12"></path></g><g transform="translate(568.8646240234375 454.3831864593824) rotate(0 79.66136481070134 -28.1082359513058)"><path d="M136.76 -36.44 C143.51 -43.02, 148.51 -47.44, 157.48 -58.19" stroke="#000000" stroke-width="4.5" fill="none"></path></g><g transform="translate(568.8646240234375 454.3831864593824) rotate(0 79.66136481070134 -28.1082359513058)"><path d="M129.33 -55.57 C137.95 -56.95, 144.94 -56.24, 157.48 -58.19" stroke="#000000" stroke-width="4.5" fill="none"></path></g></g><g stroke-linecap="round" transform="translate(1229.9949951171875 213.82327270507812) rotate(0 67.94384765625 32.257354736328125)"><path d="M16.13 0 M16.13 0 C48.8 1.24, 82.64 -1.61, 119.76 0 M119.76 0 C130.97 -1.95, 137.5 3.72, 135.89 16.13 M135.89 16.13 C135.02 21.17, 136.29 31.04, 135.89 48.39 M135.89 48.39 C136.15 60.14, 129.18 63.71, 119.76 64.51 M119.76 64.51 C94.86 63.47, 72.15 65.25, 16.13 64.51 M16.13 64.51 C5.21 62.98, -1.09 57.59, 0 48.39 M0 48.39 C0.9 39.69, -0.72 35.65, 0 16.13 M0 16.13 C0.01 4.39, 6.75 1.97, 16.13 0" stroke="#000000" stroke-width="1.5" fill="none" stroke-dasharray="1.5 7"></path></g><g transform="translate(1269.0142822265625 229.80752563476562) rotate(0 32 12.5)"><text x="32" y="18" font-family="Virgil, Segoe UI Emoji" font-size="20px" fill="#000000" text-anchor="middle" style="white-space: pre;" direction="ltr">Object</text></g><g stroke-linecap="round"><g transform="translate(1082.5438232421875 249.826782400075) rotate(0 72.10759430937469 -1.2636207028054685)"><path d="M0.05 -0.59 C38.49 -1.61, 71.93 -0.23, 144.17 -1.94" stroke="#000000" stroke-width="4.5" fill="none" stroke-dasharray="8 12"></path></g><g transform="translate(1082.5438232421875 249.826782400075) rotate(0 72.10759430937469 -1.2636207028054685)"><path d="M116.18 8.16 C125.03 5.01, 128.84 3.91, 143.08 -3" stroke="#000000" stroke-width="4.5" fill="none"></path></g><g transform="translate(1082.5438232421875 249.826782400075) rotate(0 72.10759430937469 -1.2636207028054685)"><path d="M115.87 -12.36 C124.72 -10.33, 128.62 -6.24, 143.08 -3" stroke="#000000" stroke-width="4.5" fill="none"></path></g></g><g transform="translate(1098.5780029296875 221.766845703125) rotate(0 55 12.5)"><text x="0" y="18" font-family="Virgil, Segoe UI Emoji" font-size="20px" fill="#000000" text-anchor="start" style="white-space: pre;" direction="ltr">subClassOf</text></g><g stroke-linecap="round"><g transform="translate(1304.1400146484375 281.16119384765625) rotate(0 71.5181860011071 25.900288589764386)"><path d="M-1.79 -0.27 C-0.85 36.15, 2.12 69.95, 2.14 97.82 M0.15 -0.41 C0.18 24.86, 1.09 50.71, 2.17 95.53 M1.95 97.37 C50.28 92.86, 94.22 93.38, 144.83 92.64 M1.36 95.4 C56.15 92.75, 110.27 91.82, 143.58 90.25 M142.56 91.66 C139.99 36.87, 141.91 -15.9, 143.36 -44.54 M142.67 90.23 C142.43 60.85, 142.95 28.2, 141.52 -46.02 M143.4 -44.96 C115.02 -43.18, 88.13 -43.17, 64 -42.23 M142.68 -45.66 C125.22 -42.85, 105.71 -41.98, 62.42 -41.39" stroke="#000000" stroke-width="1" fill="none"></path></g><g transform="translate(1304.1400146484375 281.16119384765625) rotate(0 71.5181860011071 25.900288589764386)"><path d="M88.61 -52.47 C79.03 -46.99, 71.4 -44.03, 63.27 -39.65 M90.55 -52.61 C82.61 -49.21, 75.95 -45.44, 63.3 -41.94" stroke="#000000" stroke-width="1" fill="none"></path></g><g transform="translate(1304.1400146484375 281.16119384765625) rotate(0 71.5181860011071 25.900288589764386)"><path d="M89.01 -31.95 C79.3 -33.89, 71.53 -38.36, 63.27 -39.65 M90.96 -32.1 C82.82 -34, 76.05 -35.55, 63.3 -41.94" stroke="#000000" stroke-width="1" fill="none"></path></g></g><g transform="translate(1335.3204345703125 339.24786376953125) rotate(0 40.5 12.5)"><text x="40.5" y="18" font-family="Virgil, Segoe UI Emoji" font-size="20px" fill="#000000" text-anchor="middle" style="white-space: pre;" direction="ltr">hasPart</text></g><g stroke-linecap="round" transform="translate(10 567.4549713134766) rotate(0 63.1324462890625 31.589767456054688)"><path d="M15.79 0 M15.79 0 C46.64 -1.73, 81.82 -0.38, 110.47 0 M110.47 0 C121.92 0.26, 125.32 5.21, 126.26 15.79 M126.26 15.79 C124.7 25.18, 125.87 37.99, 126.26 47.38 M126.26 47.38 C125.05 56.33, 119.2 62.19, 110.47 63.18 M110.47 63.18 C79.54 63.58, 46.46 62.17, 15.79 63.18 M15.79 63.18 C4.05 63.84, -1.24 59.63, 0 47.38 M0 47.38 C1.96 37.08, -1.67 26.3, 0 15.79 M0 15.79 C-1.66 4.56, 5.88 -0.07, 15.79 0" stroke="#000000" stroke-width="1.5" fill="none" stroke-dasharray="1.5 7"></path></g><g transform="translate(33.4263916015625 574.0447387695312) rotate(0 39 25)"><text x="39" y="18" font-family="Virgil, Segoe UI Emoji" font-size="20px" fill="#000000" text-anchor="middle" style="white-space: pre;" direction="ltr">System</text><text x="39" y="43" font-family="Virgil, Segoe UI Emoji" font-size="20px" fill="#000000" text-anchor="middle" style="white-space: pre;" direction="ltr">Function</text></g><g stroke-linecap="round"><g transform="translate(434.5916748046875 486.5711158414223) rotate(0 -145.78180532219625 46.79250781958973)"><path d="M0.16 -0.19 C-95.85 30.83, -190.11 63.56, -291.81 93.29 M0.24 -0.07 C-78.85 25.55, -157.89 51.96, -290.52 93.77" stroke="#000000" stroke-width="1" fill="none"></path></g><g transform="translate(434.5916748046875 486.5711158414223) rotate(0 -145.78180532219625 46.79250781958973)"><path d="M-266.55 75.18 C-275.19 79.89, -281.16 88.83, -291.89 93.98 M-266.44 75.34 C-273.07 79.63, -280.18 86.31, -290.11 94.64" stroke="#000000" stroke-width="1" fill="none"></path></g><g transform="translate(434.5916748046875 486.5711158414223) rotate(0 -145.78180532219625 46.79250781958973)"><path d="M-260.32 94.74 C-271.07 93.06, -279.09 95.57, -291.89 93.98 M-260.21 94.9 C-268.38 93.93, -277.17 95.34, -290.11 94.64" stroke="#000000" stroke-width="1" fill="none"></path></g></g><g transform="translate(194.3394775390625 558.1962890625) rotate(0 90 12.5)"><text x="0" y="18" font-family="Virgil, Segoe UI Emoji" font-size="20px" fill="#000000" text-anchor="start" style="white-space: pre;" direction="ltr">hasSystemFunction</text></g><g stroke-linecap="round" transform="translate(164.340087890625 729.6147613525391) rotate(0 63.1324462890625 31.589767456054688)"><path d="M15.79 0 M15.79 0 C52.39 1.01, 91.8 0.66, 110.47 0 M110.47 0 C119.61 -1.81, 125.85 3.44, 126.26 15.79 M126.26 15.79 C124.52 26.15, 126.25 34.97, 126.26 47.38 M126.26 47.38 C127.32 56.76, 122.57 64.14, 110.47 63.18 M110.47 63.18 C85.84 63.47, 63.04 62.13, 15.79 63.18 M15.79 63.18 C3.76 61.73, 1.07 57.98, 0 47.38 M0 47.38 C1.08 34.63, 1.29 24.42, 0 15.79 M0 15.79 C-1.43 4.33, 5.92 -0.33, 15.79 0" stroke="#000000" stroke-width="1.5" fill="none" stroke-dasharray="1.5 7"></path></g><g transform="translate(197.2664794921875 736.2045288085938) rotate(0 29.5 12.5)"><text x="29.5" y="18" font-family="Virgil, Segoe UI Emoji" font-size="20px" fill="#000000" text-anchor="middle" style="white-space: pre;" direction="ltr">State</text></g><g stroke-linecap="round"><g transform="translate(468.79916370334536 509.02813720703125) rotate(0 -110.87190446643285 109.00815331927504)"><path d="M-0.52 -0.47 C-37.5 35.91, -185.49 182.07, -222.81 218.86 M1.41 -1.77 C-35.55 34.67, -185.34 182.53, -223.15 219.78" stroke="#000000" stroke-width="1" fill="none"></path></g><g transform="translate(468.79916370334536 509.02813720703125) rotate(0 -110.87190446643285 109.00815331927504)"><path d="M-211.07 194.59 C-215 197.9, -215.49 205.64, -223.75 219.01 M-209.42 192.47 C-215.12 202.55, -219.22 211.28, -223.18 219.32" stroke="#000000" stroke-width="1" fill="none"></path></g><g transform="translate(468.79916370334536 509.02813720703125) rotate(0 -110.87190446643285 109.00815331927504)"><path d="M-196.66 209.2 C-203.89 209.17, -207.61 213.64, -223.75 219.01 M-195.01 207.08 C-205.63 211.99, -214.78 215.59, -223.18 219.32" stroke="#000000" stroke-width="1" fill="none"></path></g></g><g transform="translate(348.3499755859375 637.4199523925781) rotate(0 46.5 12.5)"><text x="0" y="18" font-family="Virgil, Segoe UI Emoji" font-size="20px" fill="#000000" text-anchor="start" style="white-space: pre;" direction="ltr">hasState</text></g><g stroke-linecap="round" transform="translate(696.58935546875 577.9441375732422) rotate(0 63.1324462890625 31.589767456054688)"><path d="M15.79 0 M15.79 0 C42.36 0.1, 67.32 0.82, 110.47 0 M110.47 0 C119.21 -1.05, 127.96 6.36, 126.26 15.79 M126.26 15.79 C125.72 24.72, 124.86 30.81, 126.26 47.38 M126.26 47.38 C124.72 58.04, 121.65 61.34, 110.47 63.18 M110.47 63.18 C80.65 63.51, 47.1 63.01, 15.79 63.18 M15.79 63.18 C4.01 63.03, 0.83 59.02, 0 47.38 M0 47.38 C0.62 38.01, -0.95 24.06, 0 15.79 M0 15.79 C0.48 3.65, 6.13 -0.52, 15.79 0" stroke="#000000" stroke-width="1.5" fill="none" stroke-dasharray="1.5 7"></path></g><g transform="translate(730.5157470703125 584.5339050292969) rotate(0 28.5 12.5)"><text x="28.5" y="18" font-family="Virgil, Segoe UI Emoji" font-size="20px" fill="#000000" text-anchor="middle" style="white-space: pre;" direction="ltr">Asset</text></g><g transform="translate(627.2073974609375 437.0880889892578) rotate(0 55 12.5)"><text x="55" y="18" font-family="Virgil, Segoe UI Emoji" font-size="20px" fill="#000000" text-anchor="middle" style="white-space: pre;" direction="ltr">subClassOf</text></g><g stroke-linecap="round" transform="translate(12.91455078125 445.16859436035156) rotate(0 63.1324462890625 31.589767456054688)"><path d="M15.79 0 M15.79 0 C45.51 1.75, 73.72 0.9, 110.47 0 M15.79 0 C50 1.11, 84.45 -0.01, 110.47 0 M110.47 0 C122.9 -1.38, 127.64 6.07, 126.26 15.79 M110.47 0 C122.69 -1.08, 127.17 7.18, 126.26 15.79 M126.26 15.79 C127.8 25.13, 126.47 37.95, 126.26 47.38 M126.26 15.79 C126.41 26.05, 126.59 36.88, 126.26 47.38 M126.26 47.38 C127.65 57.2, 121.54 65.04, 110.47 63.18 M126.26 47.38 C128.35 57.13, 123.26 63.49, 110.47 63.18 M110.47 63.18 C86.09 61.74, 59.88 61.44, 15.79 63.18 M110.47 63.18 C74.76 64.14, 37.98 63.92, 15.79 63.18 M15.79 63.18 C6.68 64.33, -1.7 56.76, 0 47.38 M15.79 63.18 C4.7 64.34, 1.12 57.45, 0 47.38 M0 47.38 C-0.17 38.47, 0.83 32.52, 0 15.79 M0 47.38 C0.13 39.11, -0.66 32.37, 0 15.79 M0 15.79 C0.98 3.43, 5.8 1.31, 15.79 0 M0 15.79 C-1.9 3.28, 3.54 -0.71, 15.79 0" stroke="#000000" stroke-width="1" fill="none"></path></g><g transform="translate(27.0469970703125 464.25836181640625) rotate(0 49 12.5)"><text x="49" y="18" font-family="Virgil, Segoe UI Emoji" font-size="20px" fill="#000000" text-anchor="middle" style="white-space: pre;" direction="ltr">Component</text></g><g stroke-linecap="round"><g transform="translate(129.69026736318824 440.22027587890625) rotate(0 116.42602974989478 -80.81588523983953)"><path d="M1.12 1.16 C40.07 -25.84, 194.14 -135.38, 232.6 -162.8 M0.25 0.73 C39.2 -26.02, 193.58 -134.17, 232.06 -161.35" stroke="#000000" stroke-width="1" fill="none"></path></g><g transform="translate(129.69026736318824 440.22027587890625) rotate(0 116.42602974989478 -80.81588523983953)"><path d="M216.84 -135.43 C218.38 -141.97, 221.13 -145.95, 230.28 -160.95 M214.29 -136.01 C220.17 -143.77, 224.19 -149.66, 231.36 -160.36" stroke="#000000" stroke-width="1" fill="none"></path></g><g transform="translate(129.69026736318824 440.22027587890625) rotate(0 116.42602974989478 -80.81588523983953)"><path d="M205.04 -152.22 C208.95 -155.35, 214.19 -155.8, 230.28 -160.95 M202.49 -152.8 C211.58 -155.75, 218.94 -156.89, 231.36 -160.36" stroke="#000000" stroke-width="1" fill="none"></path></g></g><g transform="translate(142.4158935546875 334.74346923828125) rotate(0 55 12.5)"><text x="0" y="18" font-family="Virgil, Segoe UI Emoji" font-size="20px" fill="#000000" text-anchor="start" style="white-space: pre;" direction="ltr">subClassOf</text></g><g stroke-linecap="round"><g transform="translate(436.6511535644531 471.81341536960906) rotate(0 -146.4695253824769 1.6017490742569862)"><path d="M0.55 0.17 C-48.23 0.68, -243.71 2.06, -292.87 2.45 M-0.62 -0.78 C-49.49 -0.02, -244.94 3.21, -293.49 3.98" stroke="#000000" stroke-width="1" fill="none"></path></g><g transform="translate(436.6511535644531 471.81341536960906) rotate(0 -146.4695253824769 1.6017490742569862)"><path d="M-265.18 -5.71 C-273.59 -5.01, -281.54 -1.13, -294.93 5.8 M-264.55 -7.08 C-274.59 -2.96, -282.75 -0.08, -294.31 4.57" stroke="#000000" stroke-width="1" fill="none"></path></g><g transform="translate(436.6511535644531 471.81341536960906) rotate(0 -146.4695253824769 1.6017490742569862)"><path d="M-264.85 14.81 C-273.25 9.61, -281.3 7.59, -294.93 5.8 M-264.22 13.43 C-274.55 11, -282.82 7.32, -294.31 4.57" stroke="#000000" stroke-width="1" fill="none"></path></g></g><g transform="translate(467.1612548828125 605.3922729492188) rotate(0 67.5 12.5)"><text x="0" y="18" font-family="Virgil, Segoe UI Emoji" font-size="20px" fill="#000000" text-anchor="start" style="white-space: pre;" direction="ltr">hasSubSystem</text></g><g stroke-linecap="round"><g transform="translate(497.5601806640625 439.064697265625) rotate(0 -45.866021082322106 -79.27976186231712)"><path d="M-0.09 -0.65 C-15.23 -27.2, -75.59 -132.16, -90.74 -158.55 M-1.59 1.63 C-16.9 -25.32, -76.6 -133.08, -91.65 -160.19" stroke="#000000" stroke-width="1" fill="none"></path></g><g transform="translate(497.5601806640625 439.064697265625) rotate(0 -45.866021082322106 -79.27976186231712)"><path d="M-70.08 -140.39 C-74.67 -146.98, -82.45 -151.86, -93.63 -160.72 M-68.21 -140.08 C-74.19 -144.49, -79.23 -149.75, -91.08 -161.13" stroke="#000000" stroke-width="1" fill="none"></path></g><g transform="translate(497.5601806640625 439.064697265625) rotate(0 -45.866021082322106 -79.27976186231712)"><path d="M-88.02 -130.44 C-87.08 -140.12, -89.25 -148.12, -93.63 -160.72 M-86.16 -130.13 C-88.29 -136.87, -89.4 -144.3, -91.08 -161.13" stroke="#000000" stroke-width="1" fill="none"></path></g></g><g transform="translate(469.8248291015625 345.4521484375) rotate(0 55 12.5)"><text x="0" y="18" font-family="Virgil, Segoe UI Emoji" font-size="20px" fill="#000000" text-anchor="start" style="white-space: pre;" direction="ltr">subClassOf</text></g><g stroke-linecap="round"><g transform="translate(556.9254150390625 492.47412109375) rotate(0 64.84744088947775 45.09606196582314)"><path d="M-0.03 0.8 C21.43 15.88, 108.07 74.64, 129.72 89.39" stroke="#000000" stroke-width="4.5" fill="none" stroke-dasharray="8 12"></path></g><g transform="translate(556.9254150390625 492.47412109375) rotate(0 64.84744088947775 45.09606196582314)"><path d="M101.98 80.31 C112.2 83.4, 123.14 86.95, 129.38 87.42" stroke="#000000" stroke-width="4.5" fill="none"></path></g><g transform="translate(556.9254150390625 492.47412109375) rotate(0 64.84744088947775 45.09606196582314)"><path d="M113.51 63.34 C119.18 72.9, 125.72 82.92, 129.38 87.42" stroke="#000000" stroke-width="4.5" fill="none"></path></g></g><g transform="translate(624.7205810546875 513.6615600585938) rotate(0 55 12.5)"><text x="55" y="18" font-family="Virgil, Segoe UI Emoji" font-size="20px" fill="#000000" text-anchor="middle" style="white-space: pre;" direction="ltr">subClassOf</text></g><g stroke-linecap="round"><g transform="translate(467.9569091796875 508.4649658203125) rotate(0 42.023519983892356 46.74632575213906)"><path d="M0.4 0.36 C10.23 16.27, 45.88 96.07, 59.96 95.65 C74.04 95.23, 80.77 14.23, 84.89 -2.16 M-0.85 -0.5 C8.79 15.08, 45.16 94.08, 59.31 94.04 C73.46 94, 79.8 15.23, 84.06 -0.74" stroke="#000000" stroke-width="1" fill="none"></path></g><g transform="translate(467.9569091796875 508.4649658203125) rotate(0 42.023519983892356 46.74632575213906)"><path d="M90.18 29.69 C89.05 17.28, 85.65 5.75, 83.45 -2.68 M89.56 28.07 C87.5 19.08, 85.29 8.04, 83.55 -0.66" stroke="#000000" stroke-width="1" fill="none"></path></g><g transform="translate(467.9569091796875 508.4649658203125) rotate(0 42.023519983892356 46.74632575213906)"><path d="M69.93 26.34 C76.54 15.14, 80.87 4.89, 83.45 -2.68 M69.31 24.72 C74.03 16.97, 78.62 7.05, 83.55 -0.66" stroke="#000000" stroke-width="1" fill="none"></path></g></g></svg>