<svg version="1.1" xmlns="http://www.w3.org/2000/svg" viewBox="0 0 1784.8389892578125 1066.6141510009766" width="1784.8389892578125" height="1066.6141510009766">
  <!-- svg-source:excalidraw -->
  
  <defs>
    <style>
      @font-face {
        font-family: "Virgil";
        src: url("https://excalidraw.com/Virgil.woff2");
      }
      @font-face {
        font-family: "Cascadia";
        src: url("https://excalidraw.com/Cascadia.woff2");
      }
    </style>
  </defs>
  <rect x="0" y="0" width="1784.8389892578125" height="1066.6141510009766" fill="#ffffff"></rect><g stroke-linecap="round" transform="translate(448.2762451171875 344.0418243408203) rotate(0 115.6102294921875 61.59857177734375)"><path d="M30.8 0 M30.8 0 C89.65 -0.52, 147.13 -2, 200.42 0 M30.8 0 C88.34 0.99, 145.53 0.92, 200.42 0 M200.42 0 C219.33 -0.46, 229.78 10.26, 231.22 30.8 M200.42 0 C220.8 2.29, 230.44 10.82, 231.22 30.8 M231.22 30.8 C231.76 45.5, 233.29 62.15, 231.22 92.4 M231.22 30.8 C230.78 44.69, 231.16 59.29, 231.22 92.4 M231.22 92.4 C232.46 114.22, 222.45 121.7, 200.42 123.2 M231.22 92.4 C230.39 114.44, 220.6 123.59, 200.42 123.2 M200.42 123.2 C133.51 123.35, 69.05 121.22, 30.8 123.2 M200.42 123.2 C133.45 122.06, 65.94 122.3, 30.8 123.2 M30.8 123.2 C9.92 122.22, 0.25 113.52, 0 92.4 M30.8 123.2 C11.83 122.96, 0.61 112.5, 0 92.4 M0 92.4 C1.61 71.53, -1.5 55.55, 0 30.8 M0 92.4 C1.43 74.45, 1.12 55.83, 0 30.8 M0 30.8 C-0.15 10.85, 11.26 1.69, 30.8 0 M0 30.8 C1.98 12.56, 8.28 -0.51, 30.8 0" stroke="#000000" stroke-width="1" fill="none"></path></g><g transform="translate(531.6171875 381.4250946044922) rotate(0 32.5 25)"><text x="32.5" y="18" font-family="Virgil, Segoe UI Emoji" font-size="20px" fill="#000000" text-anchor="middle" style="white-space: pre;" direction="ltr">Failure</text><text x="32.5" y="43" font-family="Virgil, Segoe UI Emoji" font-size="20px" fill="#000000" text-anchor="middle" style="white-space: pre;" direction="ltr">Event</text></g><g stroke-linecap="round" transform="translate(447.8817138671875 10) rotate(0 115.6102294921875 61.59857177734375)"><path d="M30.8 0 M30.8 0 C88.39 1.14, 149.08 2.52, 200.42 0 M30.8 0 C76 0.79, 120.36 0.93, 200.42 0 M200.42 0 C220.4 0.65, 232.11 8.75, 231.22 30.8 M200.42 0 C220.42 -1.98, 231.58 9.15, 231.22 30.8 M231.22 30.8 C232.78 47.01, 232.02 63.79, 231.22 92.4 M231.22 30.8 C231.86 50.62, 231.98 69.08, 231.22 92.4 M231.22 92.4 C229.96 112.11, 220.42 123.19, 200.42 123.2 M231.22 92.4 C230.1 111.37, 220.48 121.58, 200.42 123.2 M200.42 123.2 C164.01 126.54, 124.72 126.62, 30.8 123.2 M200.42 123.2 C148.13 124.8, 95.26 125.18, 30.8 123.2 M30.8 123.2 C8.56 122.07, -0.82 114.85, 0 92.4 M30.8 123.2 C9.92 124.83, 2.23 114.8, 0 92.4 M0 92.4 C-2.11 70.35, -1.87 47.69, 0 30.8 M0 92.4 C0.42 76.85, -0.28 62.81, 0 30.8 M0 30.8 C1.3 12.08, 10.12 -0.34, 30.8 0 M0 30.8 C1.8 11.16, 11.58 0.56, 30.8 0" stroke="#000000" stroke-width="1" fill="none"></path></g><g transform="translate(535.72265625 59.883270263671875) rotate(0 28 12.5)"><text x="28" y="18" font-family="Virgil, Segoe UI Emoji" font-size="20px" fill="#000000" text-anchor="middle" style="white-space: pre;" direction="ltr">Event</text></g><g stroke-linecap="round"><g transform="translate(562.0621337890625 318.8526153564453) rotate(0 0.8192455802113159 -88.69614498953334)"><path d="M-0.63 0.21 C-0.18 -29.17, 2.15 -146.13, 2.27 -175.6 M1.24 -0.72 C1.66 -30.55, 1.67 -148.44, 1.85 -177.6" stroke="#000000" stroke-width="1" fill="none"></path></g><g transform="translate(562.0621337890625 318.8526153564453) rotate(0 0.8192455802113159 -88.69614498953334)"><path d="M12.38 -147.7 C9.56 -158.9, 5.18 -164.88, 0.89 -176 M11.67 -149.35 C7.24 -160.9, 4.35 -171.49, 1.88 -178.29" stroke="#000000" stroke-width="1" fill="none"></path></g><g transform="translate(562.0621337890625 318.8526153564453) rotate(0 0.8192455802113159 -88.69614498953334)"><path d="M-8.14 -147.76 C-5.52 -158.84, -4.46 -164.8, 0.89 -176 M-8.85 -149.41 C-5.46 -160.88, -0.53 -171.44, 1.88 -178.29" stroke="#000000" stroke-width="1" fill="none"></path></g></g><g transform="translate(583.5833740234375 221.5241241455078) rotate(0 77.5 12.5)"><text x="0" y="18" font-family="Virgil, Segoe UI Emoji" font-size="20px" fill="#000000" text-anchor="start" style="white-space: pre;" direction="ltr">rdfs:subClassOf</text></g><g stroke-linecap="round" transform="translate(954.879638671875 344.3394317626953) rotate(0 115.6102294921875 61.59857177734375)"><path d="M30.8 0 M30.8 0 C66.02 0.38, 99.66 -1.33, 200.42 0 M30.8 0 C64.28 -0.55, 98.55 -0.71, 200.42 0 M200.42 0 C220.76 -1.28, 232.15 10.29, 231.22 30.8 M200.42 0 C220.62 0.2, 229.16 8.42, 231.22 30.8 M231.22 30.8 C230.73 52.89, 231.63 71.25, 231.22 92.4 M231.22 30.8 C231.1 47.2, 230.25 62.2, 231.22 92.4 M231.22 92.4 C229.47 113.85, 219.96 122.33, 200.42 123.2 M231.22 92.4 C229.42 112.71, 220.47 121.93, 200.42 123.2 M200.42 123.2 C151.12 125.75, 100.22 123.32, 30.8 123.2 M200.42 123.2 C150.68 122.53, 100.94 122.5, 30.8 123.2 M30.8 123.2 C11.86 123.78, -1.68 114.8, 0 92.4 M30.8 123.2 C9.27 121.74, -1.39 113.11, 0 92.4 M0 92.4 C0.7 71.57, -2.46 52.49, 0 30.8 M0 92.4 C0.04 69.74, -0.48 47.47, 0 30.8 M0 30.8 C-0.17 9.36, 9.51 1.2, 30.8 0 M0 30.8 C0.18 9.03, 12.21 0.68, 30.8 0" stroke="#000000" stroke-width="1" fill="none"></path></g><g transform="translate(996.2205810546875 393.5166778564453) rotate(0 74.5 12.5)"><text x="74.5" y="18" font-family="Virgil, Segoe UI Emoji" font-size="20px" fill="#000000" text-anchor="middle" style="white-space: pre;" direction="ltr">Technician Role</text></g><g stroke-linecap="round" transform="translate(1432.97314453125 328.92555236816406) rotate(0 115.6102294921875 61.59857177734375)"><path d="M30.8 0 M30.8 0 C77.3 -1.61, 124.89 -0.96, 200.42 0 M30.8 0 C97.97 -0.6, 163.26 -0.64, 200.42 0 M200.42 0 C220.45 0.88, 230.14 10.35, 231.22 30.8 M200.42 0 C221.19 0.58, 232.58 8.82, 231.22 30.8 M231.22 30.8 C232.39 55.77, 231.25 79.9, 231.22 92.4 M231.22 30.8 C231.43 52.96, 231.81 74.89, 231.22 92.4 M231.22 92.4 C231.55 111.81, 220.08 124.8, 200.42 123.2 M231.22 92.4 C231.67 115.19, 221.17 123.22, 200.42 123.2 M200.42 123.2 C142.9 124.66, 89.17 125.17, 30.8 123.2 M200.42 123.2 C141.89 122.53, 83.97 121.63, 30.8 123.2 M30.8 123.2 C9.01 123.47, 1.45 113.55, 0 92.4 M30.8 123.2 C11.86 121.76, -0.51 111.21, 0 92.4 M0 92.4 C0.64 68.97, -1.26 49.47, 0 30.8 M0 92.4 C-1.5 67.55, 0.21 43.14, 0 30.8 M0 30.8 C-0.85 11.68, 10.2 1.8, 30.8 0 M0 30.8 C-1.79 11.77, 11.75 2.15, 30.8 0" stroke="#000000" stroke-width="1" fill="none"></path></g><g transform="translate(1499.8140869140625 377.17454528808594) rotate(0 49 12.5)"><text x="49" y="18" font-family="Virgil, Segoe UI Emoji" font-size="20px" fill="#000000" text-anchor="middle" style="white-space: pre;" direction="ltr">Technician</text></g><g stroke-linecap="round"><g transform="translate(1198.6534423828125 402.7680206298828) rotate(0 113.73952941140158 -0.7940554445050338)"><path d="M-0.24 0.97 C37.82 1.02, 190.98 -0.4, 229.3 -0.59 M-1.82 0.43 C36.06 0.18, 190.24 -2.14, 228.8 -2.56" stroke="#000000" stroke-width="1" fill="none"></path></g><g transform="translate(1198.6534423828125 402.7680206298828) rotate(0 113.73952941140158 -0.7940554445050338)"><path d="M202.36 9.49 C212.03 6.05, 223.51 -1, 229.21 -1.53 M200.91 7.51 C208.27 5.96, 216.97 3.08, 228.89 -2.55" stroke="#000000" stroke-width="1" fill="none"></path></g><g transform="translate(1198.6534423828125 402.7680206298828) rotate(0 113.73952941140158 -0.7940554445050338)"><path d="M202.09 -11.03 C211.71 -6.62, 223.3 -5.83, 229.21 -1.53 M200.64 -13.01 C208.26 -8.66, 217.04 -5.64, 228.89 -2.55" stroke="#000000" stroke-width="1" fill="none"></path></g></g><g transform="translate(1260.1846923828125 364.69007873535156) rotate(0 59 12.5)"><text x="0" y="18" font-family="Virgil, Segoe UI Emoji" font-size="20px" fill="#000000" text-anchor="start" style="white-space: pre;" direction="ltr">performedBy</text></g><g stroke-linecap="round"><g transform="translate(677.4749755859375 409.2097930908203) rotate(0 134.80803077857007 0.8773276438005269)"><path d="M-0.61 0.66 C43.91 0.77, 223.04 0.54, 268.06 0.39 M1.27 -0.04 C46.07 0.27, 225.62 1.68, 270.23 1.79" stroke="#000000" stroke-width="1" fill="none"></path></g><g transform="translate(677.4749755859375 409.2097930908203) rotate(0 134.80803077857007 0.8773276438005269)"><path d="M243.08 10.18 C252.24 8.88, 261.88 3.67, 270.11 1.86 M241.38 11.54 C250.6 9.48, 259.89 5.57, 269.39 2.1" stroke="#000000" stroke-width="1" fill="none"></path></g><g transform="translate(677.4749755859375 409.2097930908203) rotate(0 134.80803077857007 0.8773276438005269)"><path d="M243.2 -10.34 C252.27 -3.88, 261.86 -1.33, 270.11 1.86 M241.49 -8.98 C250.73 -4.72, 259.99 -2.3, 269.39 2.1" stroke="#000000" stroke-width="1" fill="none"></path></g></g><g transform="translate(718.9366455078125 371.2595977783203) rotate(0 86.5 12.5)"><text x="0" y="18" font-family="Virgil, Segoe UI Emoji" font-size="20px" fill="#000000" text-anchor="start" style="white-space: pre;" direction="ltr">providesAgentRole</text></g><g stroke-linecap="round" transform="translate(10 345.09254455566406) rotate(0 115.6102294921875 61.59857177734375)"><path d="M30.8 0 M30.8 0 C63.54 -3.15, 99.64 0.28, 200.42 0 M30.8 0 C66.01 1.56, 102.2 1.94, 200.42 0 M200.42 0 C219.78 -1.96, 230.22 10.83, 231.22 30.8 M200.42 0 C220.56 -0.67, 230.74 12.18, 231.22 30.8 M231.22 30.8 C231.26 50.17, 232.17 70.04, 231.22 92.4 M231.22 30.8 C230.34 45.55, 232.14 61.5, 231.22 92.4 M231.22 92.4 C230.27 114.55, 219.07 121.88, 200.42 123.2 M231.22 92.4 C228.92 115.1, 220.88 123.88, 200.42 123.2 M200.42 123.2 C135.89 120.47, 68.69 122.15, 30.8 123.2 M200.42 123.2 C155.33 124.33, 108.78 124.65, 30.8 123.2 M30.8 123.2 C10.63 122.67, 0.35 114.32, 0 92.4 M30.8 123.2 C9.94 123.14, -1.34 114.21, 0 92.4 M0 92.4 C1.74 77.39, -0.79 62.91, 0 30.8 M0 92.4 C0.45 75.73, 0.56 59.14, 0 30.8 M0 30.8 C1.07 10.21, 10.59 1.67, 30.8 0 M0 30.8 C1.53 8.74, 8.26 2.06, 30.8 0" stroke="#000000" stroke-width="1" fill="none"></path></g><g transform="translate(81.8409423828125 382.47581481933594) rotate(0 44 25)"><text x="44" y="18" font-family="Virgil, Segoe UI Emoji" font-size="20px" fill="#000000" text-anchor="middle" style="white-space: pre;" direction="ltr">Temporal</text><text x="44" y="43" font-family="Virgil, Segoe UI Emoji" font-size="20px" fill="#000000" text-anchor="middle" style="white-space: pre;" direction="ltr">Entity</text></g><g stroke-linecap="round"><g transform="translate(433.7813720703125 405.9350128173828) rotate(0 -99.04497690324672 0.29188534784208287)"><path d="M0.63 -1.08 C-32.23 -1.01, -165.1 0.25, -198.27 0.38 M-0.5 0.96 C-33.34 1.21, -165.68 1.75, -198.72 1.66" stroke="#000000" stroke-width="1" fill="none"></path></g><g transform="translate(433.7813720703125 405.9350128173828) rotate(0 -99.04497690324672 0.29188534784208287)"><path d="M-172.35 -7.06 C-177.24 -4.99, -184.2 -4.05, -197.4 0.4 M-169.55 -7.79 C-180.97 -4.23, -188.98 -1.44, -198.09 1.1" stroke="#000000" stroke-width="1" fill="none"></path></g><g transform="translate(433.7813720703125 405.9350128173828) rotate(0 -99.04497690324672 0.29188534784208287)"><path d="M-172.32 13.46 C-177.2 11.26, -184.17 7.94, -197.4 0.4 M-169.52 12.73 C-180.92 9.31, -188.93 5.12, -198.09 1.1" stroke="#000000" stroke-width="1" fill="none"></path></g></g><g transform="translate(322.4180908203125 377.17469787597656) rotate(0 34.5 12.5)"><text x="0" y="18" font-family="Virgil, Segoe UI Emoji" font-size="20px" fill="#000000" text-anchor="start" style="white-space: pre;" direction="ltr">atTime</text></g><g stroke-linecap="round" transform="translate(450.464599609375 651.4261016845703) rotate(0 115.6102294921875 61.59857177734375)"><path d="M30.8 0 M30.8 0 C92.54 -0.75, 152.11 2.28, 200.42 0 M30.8 0 C97.94 0.56, 163.6 0.9, 200.42 0 M200.42 0 C220.96 1.03, 231.37 10.24, 231.22 30.8 M200.42 0 C222.2 1.74, 229.25 9.82, 231.22 30.8 M231.22 30.8 C230.48 48.06, 229.14 68.11, 231.22 92.4 M231.22 30.8 C231.16 45.76, 231.7 57.83, 231.22 92.4 M231.22 92.4 C231.53 114.35, 222.64 122.74, 200.42 123.2 M231.22 92.4 C232.18 112.89, 219.94 121.49, 200.42 123.2 M200.42 123.2 C157.92 123.62, 119.41 123.36, 30.8 123.2 M200.42 123.2 C161.57 124.48, 123.1 123.47, 30.8 123.2 M30.8 123.2 C8.27 122.02, 0.77 114.09, 0 92.4 M30.8 123.2 C10.65 122.46, -1.58 112.27, 0 92.4 M0 92.4 C-1.74 73.2, -2.46 52.04, 0 30.8 M0 92.4 C0.07 78.05, -0.98 61.52, 0 30.8 M0 30.8 C-1.47 8.99, 9.37 -1.99, 30.8 0 M0 30.8 C1.29 8.01, 9.95 1.47, 30.8 0" stroke="#000000" stroke-width="1" fill="none"></path></g><g transform="translate(539.3055419921875 689.1346893310547) rotate(0 27 25)"><text x="27" y="18" font-family="Virgil, Segoe UI Emoji" font-size="20px" fill="#000000" text-anchor="middle" style="white-space: pre;" direction="ltr">Place</text><text x="27" y="43" font-family="Virgil, Segoe UI Emoji" font-size="20px" fill="#000000" text-anchor="middle" style="white-space: pre;" direction="ltr">(Site)</text></g><g stroke-linecap="round"><g transform="translate(563.3707010220701 473.4359893798828) rotate(0 0.1283809929576023 83.75964948188516)"><path d="M0.31 0.9 C0.3 28.64, -0.96 138.6, -0.89 166.05 M-0.98 0.33 C-0.56 28.23, 1.02 139.52, 1.24 167.19" stroke="#000000" stroke-width="1" fill="none"></path></g><g transform="translate(563.3707010220701 473.4359893798828) rotate(0 0.1283809929576023 83.75964948188516)"><path d="M-7.84 137.25 C-8.26 146.47, -6.53 151.9, 0.09 168.89 M-9.8 138.13 C-7.7 144.31, -5.19 149.84, 1.8 166.21" stroke="#000000" stroke-width="1" fill="none"></path></g><g transform="translate(563.3707010220701 473.4359893798828) rotate(0 0.1283809929576023 83.75964948188516)"><path d="M12.68 137.01 C7.52 146.35, 4.5 151.83, 0.09 168.89 M10.72 137.89 C8.52 144.24, 6.72 149.82, 1.8 166.21" stroke="#000000" stroke-width="1" fill="none"></path></g></g><g transform="translate(570.9481201171875 538.3724517822266) rotate(0 38.5 12.5)"><text x="0" y="18" font-family="Virgil, Segoe UI Emoji" font-size="20px" fill="#000000" text-anchor="start" style="white-space: pre;" direction="ltr">atPlace</text></g><g stroke-linecap="round" transform="translate(1000.802978515625 638.4813995361328) rotate(0 115.6102294921875 61.59857177734375)"><path d="M30.8 0 M30.8 0 C72.2 0.81, 115.89 -1.56, 200.42 0 M30.8 0 C74.79 -0.92, 120.29 -1.68, 200.42 0 M200.42 0 C222.43 0.96, 232.26 10.77, 231.22 30.8 M200.42 0 C219.09 -0.2, 233.4 12.5, 231.22 30.8 M231.22 30.8 C230.21 49.42, 230.54 66.43, 231.22 92.4 M231.22 30.8 C231.34 50.78, 231.55 72.18, 231.22 92.4 M231.22 92.4 C229.47 114.07, 220.19 123.51, 200.42 123.2 M231.22 92.4 C232.15 113.48, 220.47 121.05, 200.42 123.2 M200.42 123.2 C146.79 125.97, 94.11 125.76, 30.8 123.2 M200.42 123.2 C165.37 122.91, 131.24 121.24, 30.8 123.2 M30.8 123.2 C11.81 123.69, -1.44 113.25, 0 92.4 M30.8 123.2 C9.24 123.32, -1.45 110.79, 0 92.4 M0 92.4 C-2.52 75.26, -1.69 60.22, 0 30.8 M0 92.4 C0.15 76.34, -0.53 58.83, 0 30.8 M0 30.8 C0.45 11.96, 9.99 1.54, 30.8 0 M0 30.8 C1.39 9.68, 10.37 2.2, 30.8 0" stroke="#000000" stroke-width="1" fill="none"></path></g><g transform="translate(1029.6439208984375 676.1899871826172) rotate(0 87 25)"><text x="87" y="18" font-family="Virgil, Segoe UI Emoji" font-size="20px" fill="#000000" text-anchor="middle" style="white-space: pre;" direction="ltr">"Site" Information</text><text x="87" y="43" font-family="Virgil, Segoe UI Emoji" font-size="20px" fill="#000000" text-anchor="middle" style="white-space: pre;" direction="ltr">Object</text></g><g stroke-linecap="round"><g transform="translate(695.5726318359375 706.6741020304098) rotate(0 143.9440991165303 -1.7882027766287933)"><path d="M0.38 -0.33 C48.57 -0.52, 240.99 -1.39, 288.77 -1.68 M-0.88 -1.55 C47.24 -2.01, 239.78 -2.83, 288.16 -3.25" stroke="#000000" stroke-width="1" fill="none"></path></g><g transform="translate(695.5726318359375 706.6741020304098) rotate(0 143.9440991165303 -1.7882027766287933)"><path d="M259.48 8.26 C269.37 2.56, 276.27 0.76, 288.47 -2.44 M260.15 7.13 C270.01 3.68, 278.94 0.37, 288.72 -4.2" stroke="#000000" stroke-width="1" fill="none"></path></g><g transform="translate(695.5726318359375 706.6741020304098) rotate(0 143.9440991165303 -1.7882027766287933)"><path d="M259.35 -12.26 C269.18 -12.48, 276.12 -8.78, 288.47 -2.44 M260.02 -13.39 C269.88 -10.2, 278.85 -6.86, 288.72 -4.2" stroke="#000000" stroke-width="1" fill="none"></path></g></g><g transform="translate(785.0755615234375 672.5039825439453) rotate(0 66 12.5)"><text x="0" y="18" font-family="Virgil, Segoe UI Emoji" font-size="20px" fill="#000000" text-anchor="start" style="white-space: pre;" direction="ltr">isDescribedBy</text></g><g stroke-linecap="round" transform="translate(22.739990234375 814.5346221923828) rotate(0 115.6102294921875 61.59857177734375)"><path d="M30.8 0 M30.8 0 C75.68 -1.71, 123.29 -2.31, 200.42 0 M30.8 0 C80.29 1.81, 130.95 0.53, 200.42 0 M200.42 0 C219.01 -1.83, 230.69 11.48, 231.22 30.8 M200.42 0 C222.32 -1.53, 232.23 11.56, 231.22 30.8 M231.22 30.8 C229.81 54.64, 231.42 76.47, 231.22 92.4 M231.22 30.8 C230.39 45.74, 230.38 58, 231.22 92.4 M231.22 92.4 C231.8 114.54, 222.25 124.43, 200.42 123.2 M231.22 92.4 C231.43 115.19, 221.28 125.22, 200.42 123.2 M200.42 123.2 C144.2 122.31, 88.25 122.37, 30.8 123.2 M200.42 123.2 C143.72 124.1, 85.01 124.08, 30.8 123.2 M30.8 123.2 C9.27 123.68, 1.53 111.02, 0 92.4 M30.8 123.2 C9.25 120.93, -1.66 113.3, 0 92.4 M0 92.4 C1.54 74.94, 0.88 57.92, 0 30.8 M0 92.4 C-0.94 69.16, -0.93 45.93, 0 30.8 M0 30.8 C-1.76 11.59, 10.09 0.07, 30.8 0 M0 30.8 C-0.15 10.81, 11.64 1.51, 30.8 0" stroke="#000000" stroke-width="1" fill="none"></path></g><g transform="translate(93.0809326171875 864.7432098388672) rotate(0 45.5 12.5)"><text x="45.5" y="18" font-family="Virgil, Segoe UI Emoji" font-size="20px" fill="#000000" text-anchor="middle" style="white-space: pre;" direction="ltr">Geometry</text></g><g stroke-linecap="round"><g transform="translate(439.4798583984375 730.7592926025391) rotate(0 -95.08838792013006 41.669269658494784)"><path d="M-1.18 0.05 C-32.79 13.77, -158.37 69.18, -189.64 82.83 M0.4 -0.97 C-31.36 12.9, -159 70.36, -190.57 84.3" stroke="#000000" stroke-width="1" fill="none"></path></g><g transform="translate(439.4798583984375 730.7592926025391) rotate(0 -95.08838792013006 41.669269658494784)"><path d="M-168.92 63.48 C-175.54 70.94, -183.51 75.51, -192.5 83.68 M-169.12 63.01 C-174.32 67.32, -177.56 71.76, -190.02 84.84" stroke="#000000" stroke-width="1" fill="none"></path></g><g transform="translate(439.4798583984375 730.7592926025391) rotate(0 -95.08838792013006 41.669269658494784)"><path d="M-160.56 82.22 C-169.75 84, -180.21 83, -192.5 83.68 M-160.75 81.75 C-167.97 81.99, -173.04 82.32, -190.02 84.84" stroke="#000000" stroke-width="1" fill="none"></path></g></g><g transform="translate(186.2252197265625 727.8723297119141) rotate(0 96 12.5)"><text x="0" y="18" font-family="Virgil, Segoe UI Emoji" font-size="20px" fill="#000000" text-anchor="start" style="white-space: pre;" direction="ltr">hasSpatialFootprint</text></g><g stroke-linecap="round" transform="translate(1498.3577880859375 558.5592803955078) rotate(0 125.802001953125 79.14822387695312)"><path d="M140.44 1.27 C155.23 1.01, 171.24 5.46, 184.86 9.89 C198.48 14.31, 212.15 20.17, 222.15 27.81 C232.16 35.45, 240.04 46.13, 244.88 55.74 C249.72 65.35, 252.22 75.84, 251.19 85.47 C250.16 95.09, 245.73 104.77, 238.7 113.5 C231.67 122.23, 220.65 131.14, 209.02 137.83 C197.38 144.53, 183.73 150.3, 168.9 153.64 C154.07 156.98, 135.92 158.37, 120.01 157.88 C104.1 157.4, 87.6 154.75, 73.46 150.72 C59.33 146.7, 46.05 140.71, 35.22 133.72 C24.38 126.74, 14.46 118.1, 8.47 108.8 C2.49 99.49, -0.87 87.77, -0.72 77.9 C-0.57 68.04, 3.19 58.51, 9.36 49.63 C15.54 40.75, 25.35 31.89, 36.35 24.64 C47.36 17.38, 61.1 10.33, 75.4 6.11 C89.69 1.9, 109.73 0.25, 122.13 -0.63 C134.54 -1.52, 144.08 0.08, 149.85 0.82 C155.62 1.55, 157.32 2.23, 156.76 3.77 M91.59 2.25 C105.52 -1.55, 125.4 -0.4, 141.2 0.6 C157 1.61, 172.58 3.34, 186.39 8.3 C200.21 13.26, 214.3 22.66, 224.1 30.36 C233.9 38.06, 240.81 45.12, 245.21 54.5 C249.62 63.89, 251.76 76.38, 250.54 86.67 C249.31 96.96, 244.91 107.39, 237.87 116.22 C230.84 125.05, 220.03 133.55, 208.31 139.65 C196.59 145.76, 182.37 149.51, 167.57 152.85 C152.76 156.19, 135.28 159.83, 119.5 159.68 C103.72 159.54, 87.05 156.47, 72.9 151.96 C58.74 147.45, 45.04 140.08, 34.56 132.62 C24.07 125.16, 15.8 116.54, 9.98 107.19 C4.17 97.83, -0.2 86.23, -0.33 76.5 C-0.46 66.77, 2.94 57.68, 9.21 48.79 C15.47 39.89, 25.89 30.02, 37.25 23.14 C48.6 16.26, 67.92 11.02, 77.34 7.5 C86.77 3.98, 91.38 2.36, 93.81 2.02 C96.25 1.67, 91.82 3.83, 91.97 5.44" stroke="#000000" stroke-width="1" fill="none"></path></g><g transform="translate(1574.1842041015625 625.9512786865234) rotate(0 47 12.5)"><text x="47" y="18" font-family="Virgil, Segoe UI Emoji" font-size="20px" fill="#000000" text-anchor="middle" style="white-space: pre;" direction="ltr">xsd:String</text></g><g stroke-linecap="round"><g transform="translate(1247.1563720703125 678.42138832997) rotate(0 122.61808927169704 -23.113836569555815)"><path d="M0.05 1.05 C41.29 -6.86, 205.57 -39.13, 246.62 -47.28 M-1.38 0.56 C39.77 -7.16, 204.51 -37.86, 245.64 -45.76" stroke="#000000" stroke-width="1" fill="none"></path></g><g transform="translate(1247.1563720703125 678.42138832997) rotate(0 122.61808927169704 -23.113836569555815)"><path d="M221.59 -30.56 C225.72 -34.59, 230.72 -39.08, 244.46 -45.57 M219.54 -30.7 C226.36 -34.32, 234.44 -38.27, 244.78 -46.42" stroke="#000000" stroke-width="1" fill="none"></path></g><g transform="translate(1247.1563720703125 678.42138832997) rotate(0 122.61808927169704 -23.113836569555815)"><path d="M217.79 -50.72 C222.83 -50.09, 228.7 -49.91, 244.46 -45.57 M215.73 -50.86 C223.8 -48.83, 232.95 -47.13, 244.78 -46.42" stroke="#000000" stroke-width="1" fill="none"></path></g></g><g transform="translate(1272.3216552734375 621.5206451416016) rotate(0 70 12.5)"><text x="0" y="18" font-family="Virgil, Segoe UI Emoji" font-size="20px" fill="#000000" text-anchor="start" style="white-space: pre;" direction="ltr">hasDescription</text></g><g stroke-linecap="round" transform="translate(1523.2349853515625 812.3527679443359) rotate(0 125.802001953125 79.14822387695312)"><path d="M94.63 2.49 C108.68 -1.07, 127.21 -1.35, 142.86 0.03 C158.5 1.41, 175.09 5.93, 188.52 10.76 C201.96 15.59, 213.95 21.48, 223.47 29.01 C232.98 36.54, 241.04 46.37, 245.6 55.92 C250.16 65.47, 252.17 76.2, 250.82 86.31 C249.48 96.42, 244.69 107.67, 237.53 116.61 C230.37 125.55, 219.87 133.69, 207.87 139.94 C195.86 146.19, 180.46 151.01, 165.49 154.12 C150.52 157.23, 133.57 159.25, 118.05 158.57 C102.53 157.9, 86.63 154.3, 72.39 150.06 C58.14 145.83, 43.47 140.26, 32.6 133.17 C21.74 126.08, 12.75 116.75, 7.2 107.55 C1.65 98.34, -1.21 88.02, -0.7 77.94 C-0.19 67.85, 3.72 56.15, 10.27 47.04 C16.81 37.93, 27.26 30.19, 38.57 23.27 C49.89 16.36, 67.12 9.4, 78.16 5.55 C89.2 1.71, 98.35 0.95, 104.81 0.21 C111.28 -0.53, 116.64 -0.22, 116.96 1.11 M171.9 6.72 C186.73 9.05, 200.98 15.82, 212.32 22.26 C223.66 28.71, 233.22 36.46, 239.94 45.4 C246.66 54.34, 252.14 65.7, 252.66 75.92 C253.18 86.13, 248.71 97.35, 243.06 106.68 C237.41 116.01, 228.97 124.53, 218.77 131.88 C208.56 139.24, 195.57 146.45, 181.86 150.82 C168.15 155.18, 152.03 157.2, 136.52 158.07 C121.01 158.95, 104.1 159.27, 88.8 156.07 C73.51 152.88, 56.89 145.52, 44.76 138.89 C32.63 132.26, 23.48 124.75, 16.03 116.29 C8.59 107.82, 2.07 97.67, 0.08 88.08 C-1.9 78.5, -0.18 68.53, 4.14 58.79 C8.46 49.05, 16.57 37.75, 26 29.62 C35.43 21.49, 47.36 14.83, 60.73 10 C74.1 5.18, 90.41 1.95, 106.22 0.66 C122.02 -0.62, 144.47 1.63, 155.57 2.3 C166.67 2.97, 170.38 3.94, 172.8 4.68 C175.22 5.43, 171.06 5.35, 170.06 6.77" stroke="#000000" stroke-width="1" fill="none"></path></g><g transform="translate(1599.0614013671875 879.7447662353516) rotate(0 47 12.5)"><text x="47" y="18" font-family="Virgil, Segoe UI Emoji" font-size="20px" fill="#000000" text-anchor="middle" style="white-space: pre;" direction="ltr">xsd:String</text></g><g stroke-linecap="round"><g transform="translate(1233.4547119140625 737.0649119293973) rotate(0 146.03107053068538 70.8294161141024)"><path d="M0.8 -0.64 C49.12 22.83, 241.68 117.19, 289.93 140.84 M-0.24 1.64 C48.47 25.29, 244.03 118.78, 292.3 142.3" stroke="#000000" stroke-width="1" fill="none"></path></g><g transform="translate(1233.4547119140625 737.0649119293973) rotate(0 146.03107053068538 70.8294161141024)"><path d="M261.38 138.22 C271.27 139.55, 281.03 141.51, 293.94 143.22 M263.03 138.45 C272.34 140.07, 283.49 140.9, 293.17 143.19" stroke="#000000" stroke-width="1" fill="none"></path></g><g transform="translate(1233.4547119140625 737.0649119293973) rotate(0 146.03107053068538 70.8294161141024)"><path d="M270.29 119.73 C277.48 126.73, 284.54 134.3, 293.94 143.22 M271.94 119.96 C278.39 127.87, 286.51 134.97, 293.17 143.19" stroke="#000000" stroke-width="1" fill="none"></path></g></g><g transform="translate(1357.3519287109375 773.3655853271484) rotate(0 36.5 12.5)"><text x="36.5" y="18" font-family="Virgil, Segoe UI Emoji" font-size="20px" fill="#000000" text-anchor="middle" style="white-space: pre;" direction="ltr">seeAlso</text></g><g stroke-linecap="round" transform="translate(1006.873046875 933.4170074462891) rotate(0 115.6102294921875 61.59857177734375)"><path d="M30.8 0 M30.8 0 C93.63 -1.36, 156.35 0.38, 200.42 0 M30.8 0 C76.4 -2.37, 120.17 -1.27, 200.42 0 M200.42 0 C221.56 -1.83, 233.07 11.46, 231.22 30.8 M200.42 0 C220.16 0.04, 231.39 9.98, 231.22 30.8 M231.22 30.8 C229.45 51.06, 231.02 68.74, 231.22 92.4 M231.22 30.8 C231.34 43.92, 231.68 56.28, 231.22 92.4 M231.22 92.4 C232.5 111.41, 220.77 125.03, 200.42 123.2 M231.22 92.4 C230.07 112.66, 221.66 121.48, 200.42 123.2 M200.42 123.2 C150.49 120.31, 98.86 122.89, 30.8 123.2 M200.42 123.2 C162.52 125.48, 125.74 125.18, 30.8 123.2 M30.8 123.2 C12.23 121.43, 0.07 114.68, 0 92.4 M30.8 123.2 C11.85 122.14, -1.65 111.01, 0 92.4 M0 92.4 C1.66 72.87, 1.51 50.01, 0 30.8 M0 92.4 C-0.65 71.08, -0.59 48.1, 0 30.8 M0 30.8 C-0.42 9.63, 12.24 -0.05, 30.8 0 M0 30.8 C1.95 9.84, 10.97 -1.08, 30.8 0" stroke="#000000" stroke-width="1" fill="none"></path></g><g transform="translate(1076.7139892578125 983.6255950927734) rotate(0 46 12.5)"><text x="46" y="18" font-family="Virgil, Segoe UI Emoji" font-size="20px" fill="#000000" text-anchor="middle" style="white-space: pre;" direction="ltr">Identifier</text></g><g stroke-linecap="round"><g transform="translate(1118.3883056640625 769.1175079345703) rotate(0 1.162812260165765 82.42328484760606)"><path d="M-0.29 1.19 C0.15 28.15, 2.24 135.46, 2.61 162.45 M1.77 0.77 C2.05 27.89, 1.84 137.34, 1.68 164.07" stroke="#000000" stroke-width="1" fill="none"></path></g><g transform="translate(1118.3883056640625 769.1175079345703) rotate(0 1.162812260165765 82.42328484760606)"><path d="M-6.5 135.9 C-5 143.23, -0.88 152.87, 2.87 165.25 M-9 136.42 C-5.18 145.09, -2.22 154.56, 2.45 165" stroke="#000000" stroke-width="1" fill="none"></path></g><g transform="translate(1118.3883056640625 769.1175079345703) rotate(0 1.162812260165765 82.42328484760606)"><path d="M14.02 135.97 C9.39 143.23, 7.37 152.85, 2.87 165.25 M11.52 136.49 C8.54 145.3, 4.7 154.74, 2.45 165" stroke="#000000" stroke-width="1" fill="none"></path></g></g><g transform="translate(1127.8065185546875 843.8977203369141) rotate(0 98 12.5)"><text x="0" y="18" font-family="Virgil, Segoe UI Emoji" font-size="20px" fill="#000000" text-anchor="start" style="white-space: pre;" direction="ltr">hasPrimaryIdentifier</text></g></svg>