<svg version="1.1" xmlns="http://www.w3.org/2000/svg" viewBox="0 0 1160.1631698608398 806.2034607889356" width="1160.1631698608398" height="806.2034607889356">
  <!-- svg-source:excalidraw -->
  
  <defs>
    <style>
      @font-face {
        font-family: "Virgil";
        src: url("https://excalidraw.com/Virgil.woff2");
      }
      @font-face {
        font-family: "Cascadia";
        src: url("https://excalidraw.com/Cascadia.woff2");
      }
    </style>
  </defs>
  <rect x="0" y="0" width="1160.1631698608398" height="806.2034607889356" fill="#ffffff"></rect><g stroke-linecap="round" transform="translate(680.9351119995117 217.90052795410156) rotate(0 84.48298645019531 44.91947937011719)"><path d="M22.46 0 M22.46 0 C60.25 0.12, 97.38 -1.48, 146.51 0 M22.46 0 C52.97 0.96, 82.68 0.13, 146.51 0 M146.51 0 C161.75 0.32, 169.14 7.42, 168.97 22.46 M146.51 0 C160.68 -1.42, 166.82 9, 168.97 22.46 M168.97 22.46 C169.78 33.18, 168.76 45.54, 168.97 67.38 M168.97 22.46 C167.73 39.06, 169.5 57.82, 168.97 67.38 M168.97 67.38 C170.88 83.47, 161.01 89.63, 146.51 89.84 M168.97 67.38 C168.23 84.11, 160.22 89.16, 146.51 89.84 M146.51 89.84 C105.49 91.35, 64.37 90.09, 22.46 89.84 M146.51 89.84 C103.5 89.15, 60.61 90.27, 22.46 89.84 M22.46 89.84 C8.92 89.89, 0.48 80.87, 0 67.38 M22.46 89.84 C6.79 88.79, -1.16 83.7, 0 67.38 M0 67.38 C1.26 56.29, -0.3 42, 0 22.46 M0 67.38 C-0.03 54.38, 1.13 40.77, 0 22.46 M0 22.46 C-1.69 9.12, 7.22 0.02, 22.46 0 M0 22.46 C-2.18 9.78, 7.24 -1.1, 22.46 0" stroke="#000000" stroke-width="2" fill="none"></path></g><g transform="translate(713.5486526489258 252.23037719726562) rotate(0 55 12.5)"><text x="55" y="18" font-family="Virgil, Segoe UI Emoji" font-size="20px" fill="#000000" text-anchor="middle" style="white-space: pre;" direction="ltr">Malfunction</text></g><g stroke-linecap="round" transform="translate(680.0276870727539 10) rotate(0 84.48298645019531 44.91947937011719)"><path d="M22.46 0 M22.46 0 C47.11 -1.64, 75.23 0.71, 146.51 0 M22.46 0 C66.28 -1.09, 110.24 -1.38, 146.51 0 M146.51 0 C160.08 1.93, 168.38 8.49, 168.97 22.46 M146.51 0 C160.53 -1.35, 169.2 6.82, 168.97 22.46 M168.97 22.46 C170.48 38.83, 169.43 53.44, 168.97 67.38 M168.97 22.46 C169.3 38.86, 169.81 56.17, 168.97 67.38 M168.97 67.38 C167.06 82.35, 160.46 89.85, 146.51 89.84 M168.97 67.38 C170.43 82.29, 161.9 88.8, 146.51 89.84 M146.51 89.84 C100.66 92.65, 58.26 91.43, 22.46 89.84 M146.51 89.84 C97.59 87.87, 47.78 88.73, 22.46 89.84 M22.46 89.84 C8.37 88.44, -1.22 81.35, 0 67.38 M22.46 89.84 C8.89 89.72, -1.79 80.24, 0 67.38 M0 67.38 C-2 56.25, -1.66 42.19, 0 22.46 M0 67.38 C0.95 50.54, 0.79 31.91, 0 22.46 M0 22.46 C0.2 6.93, 7.42 1.15, 22.46 0 M0 22.46 C-0.81 7.63, 8.79 1.17, 22.46 0" stroke="#000000" stroke-width="2" fill="none"></path></g><g transform="translate(723.3809432983398 44.32984924316406) rotate(0 44.5 12.5)"><text x="44.5" y="18" font-family="Virgil, Segoe UI Emoji" font-size="20px" fill="#000000" text-anchor="middle" style="white-space: pre;" direction="ltr">Situation</text></g><g stroke-linecap="round"><g transform="translate(764.8855130960795 207.99510192871094) rotate(0 -0.6126990382119288 -51.489010243117804)"><path d="M0.1 0.11 C-0.16 -16.9, -1.29 -85.88, -1.33 -103.09" stroke="#000000" stroke-width="2.5" fill="none" stroke-dasharray="8 10"></path></g><g transform="translate(764.8855130960795 207.99510192871094) rotate(0 -0.6126990382119288 -51.489010243117804)"><path d="M9.42 -76.44 C5.79 -83.4, 2.37 -94.33, -0.97 -102.75" stroke="#000000" stroke-width="2.5" fill="none"></path></g><g transform="translate(764.8855130960795 207.99510192871094) rotate(0 -0.6126990382119288 -51.489010243117804)"><path d="M-11.1 -76.23 C-8.19 -83.28, -5.09 -94.27, -0.97 -102.75" stroke="#000000" stroke-width="2.5" fill="none"></path></g></g><g transform="translate(778.2522201538086 151.95375061035156) rotate(0 55 12.5)"><text x="0" y="18" font-family="Virgil, Segoe UI Emoji" font-size="20px" fill="#000000" text-anchor="start" style="white-space: pre;" direction="ltr">subClassOf</text></g><g stroke-linecap="round" transform="translate(681.7666702270508 431.38092041015625) rotate(0 84.48298645019531 44.91947937011719)"><path d="M22.46 0 M22.46 0 C70.22 -0.27, 118.76 -1.17, 146.51 0 M22.46 0 C64.77 0.57, 106.65 -0.13, 146.51 0 M146.51 0 C163.39 -0.7, 167.87 8.33, 168.97 22.46 M146.51 0 C161.01 -1.88, 170.7 7.82, 168.97 22.46 M168.97 22.46 C167.54 33.49, 167.59 43.55, 168.97 67.38 M168.97 22.46 C169.14 40.43, 168.69 58.68, 168.97 67.38 M168.97 67.38 C169.5 82.76, 162.3 89.69, 146.51 89.84 M168.97 67.38 C170.65 82.84, 160.38 91.15, 146.51 89.84 M146.51 89.84 C103.83 90.82, 58.37 91.09, 22.46 89.84 M146.51 89.84 C117.64 88.63, 86.35 88.29, 22.46 89.84 M22.46 89.84 C8.64 90.86, 1 81.88, 0 67.38 M22.46 89.84 C5.82 91.58, -0.36 80.43, 0 67.38 M0 67.38 C1.76 55.2, -1.5 40.23, 0 22.46 M0 67.38 C0.93 50.77, -0.1 33.83, 0 22.46 M0 22.46 C-0.58 7.94, 5.82 0.59, 22.46 0 M0 22.46 C1.99 6.33, 6.37 1.28, 22.46 0" stroke="#000000" stroke-width="2" fill="none"></path></g><g transform="translate(737.1383285522461 452.69459533691406) rotate(0 32.5 25)"><text x="32.5" y="18" font-family="Virgil, Segoe UI Emoji" font-size="20px" fill="#000000" text-anchor="middle" style="white-space: pre;" direction="ltr">Failure</text><text x="32.5" y="43" font-family="Virgil, Segoe UI Emoji" font-size="20px" fill="#000000" text-anchor="middle" style="white-space: pre;" direction="ltr">Event</text></g><g stroke-linecap="round"><g transform="translate(767.4124638923751 311.3008270263672) rotate(0 0.38802196284558477 59.650063840872605)"><path d="M-1.12 -1.09 C-0.96 18.69, 1.47 98.93, 1.89 118.93 M0.49 0.95 C0.4 20.9, 0.9 100.52, 0.88 120.39" stroke="#000000" stroke-width="2" fill="none"></path></g><g transform="translate(767.4124638923751 311.3008270263672) rotate(0 0.38802196284558477 59.650063840872605)"><path d="M-11.29 92.02 C-5.73 102.04, -1.8 112.8, 0.02 122.18 M-8.96 92.27 C-6.02 102.12, -2.11 114.28, 0.75 119.39" stroke="#000000" stroke-width="2" fill="none"></path></g><g transform="translate(767.4124638923751 311.3008270263672) rotate(0 0.38802196284558477 59.650063840872605)"><path d="M9.24 91.96 C7.01 101.81, 3.15 112.59, 0.02 122.18 M11.57 92.21 C6.79 102.22, 3 114.4, 0.75 119.39" stroke="#000000" stroke-width="2" fill="none"></path></g></g><g transform="translate(779.6254501342773 349.07908630371094) rotate(0 69 12.5)"><text x="0" y="18" font-family="Virgil, Segoe UI Emoji" font-size="20px" fill="#000000" text-anchor="start" style="white-space: pre;" direction="ltr">participatesIn</text></g><g stroke-linecap="round" transform="translate(370.58744049072266 280.4064636230469) rotate(0 84.48298645019531 44.91947937011719)"><path d="M22.46 0 M22.46 0 C48.52 0.19, 71.61 -2.36, 146.51 0 M22.46 0 C65.93 0.41, 110.46 0.21, 146.51 0 M146.51 0 C162.85 1.4, 168.53 8.85, 168.97 22.46 M146.51 0 C163.07 1.81, 170.75 7.66, 168.97 22.46 M168.97 22.46 C167.63 30.35, 169.9 41.69, 168.97 67.38 M168.97 22.46 C168.55 32.73, 168.1 45.15, 168.97 67.38 M168.97 67.38 C167.19 81.44, 162.74 90.46, 146.51 89.84 M168.97 67.38 C168.78 84.19, 160.07 88.02, 146.51 89.84 M146.51 89.84 C113.63 89.33, 78.4 88.21, 22.46 89.84 M146.51 89.84 C116.05 89.48, 84.35 88.66, 22.46 89.84 M22.46 89.84 C8.07 88.74, 0.55 83.14, 0 67.38 M22.46 89.84 C7.12 91.83, -1.6 80.85, 0 67.38 M0 67.38 C1.49 56.04, -0.95 43.16, 0 22.46 M0 67.38 C-0.37 53.25, -0.44 37.42, 0 22.46 M0 22.46 C1.41 5.81, 6.78 -0.18, 22.46 0 M0 22.46 C-1.27 8.85, 5.7 -2.13, 22.46 0" stroke="#000000" stroke-width="2" fill="none"></path></g><g transform="translate(426.2031784057617 313.4998321533203) rotate(0 32.5 12.5)"><text x="32.5" y="18" font-family="Virgil, Segoe UI Emoji" font-size="20px" fill="#000000" text-anchor="middle" style="white-space: pre;" direction="ltr">Failure</text></g><g stroke-linecap="round"><g transform="translate(680.7666702270508 435.2687630472898) rotate(0 -69.21837274581196 -44.690684765559354)"><path d="M-0.24 -0.11 C-23.44 -15.04, -115.31 -74.38, -138.2 -89.28 M-1.82 -1.21 C-24.72 -15.98, -113.14 -73.29, -135.9 -87.82" stroke="#000000" stroke-width="2" fill="none"></path></g><g transform="translate(680.7666702270508 435.2687630472898) rotate(0 -69.21837274581196 -44.690684765559354)"><path d="M-106.82 -82.49 C-118.09 -83.99, -129.6 -87.58, -135.83 -89.65 M-106 -80.66 C-116.38 -82.97, -128.01 -85.67, -135.88 -88.56" stroke="#000000" stroke-width="2" fill="none"></path></g><g transform="translate(680.7666702270508 435.2687630472898) rotate(0 -69.21837274581196 -44.690684765559354)"><path d="M-117.93 -65.23 C-125 -73.31, -132.26 -83.5, -135.83 -89.65 M-117.11 -63.4 C-123.38 -72.06, -130.97 -81.03, -135.88 -88.56" stroke="#000000" stroke-width="2" fill="none"></path></g></g><g transform="translate(556.1454086303711 407.4484100341797) rotate(0 36.5 12.5)"><text x="0" y="18" font-family="Virgil, Segoe UI Emoji" font-size="20px" fill="#000000" text-anchor="start" style="white-space: pre;" direction="ltr">involves</text></g><g stroke-linecap="round" transform="translate(469.58480072021484 619.1328125) rotate(0 65.91261291503906 35.04563913366218)"><path d="M17.52 0 M17.52 0 C44.98 -0.71, 73.99 1.76, 114.3 0 M17.52 0 C46.15 0.46, 74.06 0.17, 114.3 0 M114.3 0 C127.98 0.14, 132.72 5.9, 131.83 17.52 M114.3 0 C125.24 -0.61, 133.41 8.06, 131.83 17.52 M131.83 17.52 C130.9 27.39, 130.84 43.21, 131.83 52.57 M131.83 17.52 C131.6 29.44, 131.53 40.24, 131.83 52.57 M131.83 52.57 C133.48 62.39, 126.43 68.74, 114.3 70.09 M131.83 52.57 C130.06 64.61, 127.51 71.82, 114.3 70.09 M114.3 70.09 C75.96 68.22, 39.22 70.97, 17.52 70.09 M114.3 70.09 C86.59 70.89, 57.44 71.45, 17.52 70.09 M17.52 70.09 C6.7 68.66, 1.53 65.52, 0 52.57 M17.52 70.09 C5.06 70.95, -0.95 64.69, 0 52.57 M0 52.57 C-1.75 43.97, 0.68 39.4, 0 17.52 M0 52.57 C0.01 42.17, -0.54 31.57, 0 17.52 M0 17.52 C-0.8 6.38, 6.01 0.02, 17.52 0 M0 17.52 C1.82 4.19, 7.54 -1.31, 17.52 0" stroke="#000000" stroke-width="2" fill="none"></path></g><g transform="translate(515.2851045329118 645.7614860859237) rotate(0 23 10)"><text x="23" y="14" font-family="Virgil, Segoe UI Emoji" font-size="15.60376016155539px" fill="#000000" text-anchor="middle" style="white-space: pre;" direction="ltr">Cause</text></g><g stroke-linecap="round" transform="translate(702.2058792114258 726.1121825216112) rotate(0 65.91261291503906 35.04563913366218)"><path d="M17.52 0 M17.52 0 C53.37 -0.45, 91.85 0.96, 114.3 0 M17.52 0 C51.04 0.04, 85.61 1, 114.3 0 M114.3 0 C126.32 -0.62, 131.92 6.05, 131.83 17.52 M114.3 0 C125.02 1.82, 130.86 4.67, 131.83 17.52 M131.83 17.52 C131.35 29.64, 130.57 40.27, 131.83 52.57 M131.83 17.52 C132.59 25.24, 132.56 33.47, 131.83 52.57 M131.83 52.57 C133.12 64.68, 124.96 69.49, 114.3 70.09 M131.83 52.57 C132.05 64.91, 124.99 69.18, 114.3 70.09 M114.3 70.09 C94.54 68.55, 74.05 68.86, 17.52 70.09 M114.3 70.09 C75.05 70.68, 37.72 69.44, 17.52 70.09 M17.52 70.09 C6.36 70.48, 0.99 66.03, 0 52.57 M17.52 70.09 C6.29 70.03, -0.83 64.46, 0 52.57 M0 52.57 C-0.27 42.61, 1.93 32.68, 0 17.52 M0 52.57 C-0.37 41.57, -0.13 29.93, 0 17.52 M0 17.52 C-0.11 6.44, 5.23 -1.36, 17.52 0 M0 17.52 C-0.37 7.82, 7.45 -0.66, 17.52 0" stroke="#000000" stroke-width="2" fill="none"></path></g><g transform="translate(749.4061830241227 752.7408561075349) rotate(0 21.5 10)"><text x="21.5" y="14" font-family="Virgil, Segoe UI Emoji" font-size="15.60376016155539px" fill="#000000" text-anchor="middle" style="white-space: pre;" direction="ltr">Event</text></g><g stroke-linecap="round" transform="translate(962.5242385864258 603.6715086934862) rotate(0 65.91261291503906 35.04563913366218)"><path d="M17.52 0 M17.52 0 C54.68 -1.26, 92.87 0.32, 114.3 0 M17.52 0 C49.54 0.34, 82.98 0.58, 114.3 0 M114.3 0 C126.1 1.2, 133.08 7.14, 131.83 17.52 M114.3 0 C126.48 -1.17, 131.14 6.06, 131.83 17.52 M131.83 17.52 C129.7 28.72, 130.5 40.29, 131.83 52.57 M131.83 17.52 C132.56 26.08, 131.91 34.15, 131.83 52.57 M131.83 52.57 C132.39 64.22, 124.08 70.61, 114.3 70.09 M131.83 52.57 C132.28 65.39, 128.03 70.54, 114.3 70.09 M114.3 70.09 C84.98 69.84, 56.45 69.86, 17.52 70.09 M114.3 70.09 C87.6 69.1, 59.76 69.11, 17.52 70.09 M17.52 70.09 C6.66 69.42, 0.36 64.14, 0 52.57 M17.52 70.09 C6.53 69.39, -1.56 63.88, 0 52.57 M0 52.57 C-0.57 38.99, -0.36 23.88, 0 17.52 M0 52.57 C0.38 38.88, -0.11 26.98, 0 17.52 M0 17.52 C-1.02 7.22, 4.73 1.41, 17.52 0 M0 17.52 C1.57 5.08, 6.46 1.86, 17.52 0" stroke="#000000" stroke-width="2" fill="none"></path></g><g transform="translate(984.7245423991227 630.3001822794099) rotate(0 46.5 10)"><text x="46.5" y="14" font-family="Virgil, Segoe UI Emoji" font-size="15.60376016155539px" fill="#000000" text-anchor="middle" style="white-space: pre;" direction="ltr">Consequence</text></g><g stroke-linecap="round"><g transform="translate(768.1801098358156 536.5083465576172) rotate(0 1.0769237510555172 92.73971342593427)"><path d="M0.9 -0.16 C0.96 30.59, 1.39 154.33, 1.22 185.64" stroke="#000000" stroke-width="2.5" fill="none" stroke-dasharray="8 10"></path></g><g transform="translate(768.1801098358156 536.5083465576172) rotate(0 1.0769237510555172 92.73971342593427)"><path d="M-9.3 158.02 C-6.7 166.06, 0.49 177.73, -0.77 183.94" stroke="#000000" stroke-width="2.5" fill="none"></path></g><g transform="translate(768.1801098358156 536.5083465576172) rotate(0 1.0769237510555172 92.73971342593427)"><path d="M11.22 158.03 C6.25 166.22, 5.87 177.89, -0.77 183.94" stroke="#000000" stroke-width="2.5" fill="none"></path></g></g><g transform="translate(783.6542587280273 613.2264862060547) rotate(0 55 12.5)"><text x="0" y="18" font-family="Virgil, Segoe UI Emoji" font-size="20px" fill="#000000" text-anchor="start" style="white-space: pre;" direction="ltr">subClassOf</text></g><g stroke-linecap="round"><g transform="translate(680.5097579956055 519.1878263768803) rotate(0 -68.49279691026423 46.902752365308515)"><path d="M-0.01 -0.59 C-22.47 15.28, -113.41 78.59, -135.81 94.39 M-1.47 1.72 C-24.04 17.34, -114.78 77.7, -136.98 92.8" stroke="#000000" stroke-width="2" fill="none"></path></g><g transform="translate(680.5097579956055 519.1878263768803) rotate(0 -68.49279691026423 46.902752365308515)"><path d="M-120.28 67.85 C-121.61 75.42, -125.72 77.23, -137.05 91.1 M-119.89 69.36 C-126.57 78.21, -131.89 86.83, -137.11 92.53" stroke="#000000" stroke-width="2" fill="none"></path></g><g transform="translate(680.5097579956055 519.1878263768803) rotate(0 -68.49279691026423 46.902752365308515)"><path d="M-108.84 84.89 C-112.54 88.76, -119.13 86.88, -137.05 91.1 M-108.44 86.39 C-119.71 88.74, -129.47 90.76, -137.11 92.53" stroke="#000000" stroke-width="2" fill="none"></path></g></g><g transform="translate(927.3099594116211 527.1486053466797) rotate(0 73 12.5)"><text x="0" y="18" font-family="Virgil, Segoe UI Emoji" font-size="20px" fill="#000000" text-anchor="start" style="white-space: pre;" direction="ltr">casuallyFollows</text></g><g stroke-linecap="round"><g transform="translate(972.6502304077148 590.3367767333984) rotate(0 -58.406533760605384 -37.323068582685664)"><path d="M-0.33 -0.9 C-19.94 -13.12, -98.38 -61.87, -117.91 -74.28 M1.7 1.24 C-17.99 -11.21, -98.6 -63.32, -118.51 -75.88" stroke="#000000" stroke-width="2" fill="none"></path></g><g transform="translate(972.6502304077148 590.3367767333984) rotate(0 -58.406533760605384 -37.323068582685664)"><path d="M-90.74 -68.21 C-95.64 -69.48, -105.64 -74.67, -116.7 -75.72 M-88.27 -70.15 C-100.56 -71.32, -110.85 -73.15, -119.13 -76.06" stroke="#000000" stroke-width="2" fill="none"></path></g><g transform="translate(972.6502304077148 590.3367767333984) rotate(0 -58.406533760605384 -37.323068582685664)"><path d="M-101.8 -50.92 C-103.49 -56.96, -110.42 -66.95, -116.7 -75.72 M-99.32 -52.86 C-107.58 -60.48, -113.77 -68.71, -119.13 -76.06" stroke="#000000" stroke-width="2" fill="none"></path></g></g><g transform="translate(481.60640716552734 527.3357391357422) rotate(0 73 12.5)"><text x="0" y="18" font-family="Virgil, Segoe UI Emoji" font-size="20px" fill="#000000" text-anchor="start" style="white-space: pre;" direction="ltr">casuallyFollows</text></g><g stroke-linecap="round"><g transform="translate(535.0388412475586 697.7150115966797) rotate(0 75.5989875172496 30.908236962770047)"><path d="M0.58 -0.67 C2.43 8.56, -15.35 44.95, 10.36 55.43 C36.07 65.92, 130.71 61.37, 154.86 62.24" stroke="#000000" stroke-width="2.5" fill="none" stroke-dasharray="8 10"></path></g><g transform="translate(535.0388412475586 697.7150115966797) rotate(0 75.5989875172496 30.908236962770047)"><path d="M125.58 72.73 C133.62 69.39, 141.5 67.49, 153.47 63.04" stroke="#000000" stroke-width="2.5" fill="none"></path></g><g transform="translate(535.0388412475586 697.7150115966797) rotate(0 75.5989875172496 30.908236962770047)"><path d="M125.51 52.21 C133.58 53.81, 141.48 56.85, 153.47 63.04" stroke="#000000" stroke-width="2.5" fill="none"></path></g></g><g stroke-linecap="round"><g transform="translate(1024.7556991577148 677.8054656982422) rotate(0 -86.7805486436963 50.174747751557106)"><path d="M0.14 -0.34 C0.02 15.55, 30.75 80.27, -0.44 95.19 C-31.63 110.12, -155.98 90.28, -186.98 89.23" stroke="#000000" stroke-width="2.5" fill="none" stroke-dasharray="8 10"></path></g><g transform="translate(1024.7556991577148 677.8054656982422) rotate(0 -86.7805486436963 50.174747751557106)"><path d="M-158.5 81.09 C-165.52 84.39, -175.58 87.77, -186.27 89.82" stroke="#000000" stroke-width="2.5" fill="none"></path></g><g transform="translate(1024.7556991577148 677.8054656982422) rotate(0 -86.7805486436963 50.174747751557106)"><path d="M-160.45 101.52 C-166.81 98.15, -176.23 94.86, -186.27 89.82" stroke="#000000" stroke-width="2.5" fill="none"></path></g></g><g transform="translate(1040.1631698608398 749.4330291748047) rotate(0 55 12.5)"><text x="0" y="18" font-family="Virgil, Segoe UI Emoji" font-size="20px" fill="#000000" text-anchor="start" style="white-space: pre;" direction="ltr">subClassOf</text></g><g transform="translate(420.8177261352539 755.6533660888672) rotate(0 55 12.5)"><text x="0" y="18" font-family="Virgil, Segoe UI Emoji" font-size="20px" fill="#000000" text-anchor="start" style="white-space: pre;" direction="ltr">subClassOf</text></g><g stroke-linecap="round" transform="translate(10.068672180175781 56.912841796875) rotate(0 84.48298645019531 44.91947937011719)"><path d="M22.46 0 M22.46 0 C67.27 0.03, 109.61 -3.13, 146.51 0 M22.46 0 C68.99 0.2, 114.03 0.67, 146.51 0 M146.51 0 C163.22 0.29, 167.71 8.93, 168.97 22.46 M146.51 0 C160.93 1.57, 170.48 8.52, 168.97 22.46 M168.97 22.46 C170 32.88, 170.38 43.95, 168.97 67.38 M168.97 22.46 C170.07 37.78, 170.03 51.29, 168.97 67.38 M168.97 67.38 C169.45 82, 163.21 90.04, 146.51 89.84 M168.97 67.38 C169.34 83.67, 161.23 88.32, 146.51 89.84 M146.51 89.84 C108.95 90.53, 67.86 88.85, 22.46 89.84 M146.51 89.84 C120.51 91.1, 93.5 91.72, 22.46 89.84 M22.46 89.84 C8.89 90.81, -0.2 82.94, 0 67.38 M22.46 89.84 C9.26 89.46, -1.5 81.77, 0 67.38 M0 67.38 C2.05 56.13, 1.63 48.15, 0 22.46 M0 67.38 C0.44 55.42, 1.06 43.33, 0 22.46 M0 22.46 C1.37 8.25, 5.79 -0.76, 22.46 0 M0 22.46 C2.02 8.58, 5.87 -2.28, 22.46 0" stroke="#000000" stroke-width="2" fill="none"></path></g><g transform="translate(47.184410095214844 77.50621032714844) rotate(0 51 25)"><text x="51" y="18" font-family="Virgil, Segoe UI Emoji" font-size="20px" fill="#000000" text-anchor="middle" style="white-space: pre;" direction="ltr">Mechanical</text><text x="51" y="43" font-family="Virgil, Segoe UI Emoji" font-size="20px" fill="#000000" text-anchor="middle" style="white-space: pre;" direction="ltr">System</text></g><g stroke-linecap="round"><g transform="translate(183.55559539794922 134.08597833357334) rotate(0 111.56778629860378 71.839104496727)"><path d="M-0.52 -1.11 C36.41 22.91, 184.21 120.54, 221.41 144.79 M1.41 0.92 C38.73 24.58, 186.87 119.69, 223.65 143.26" stroke="#000000" stroke-width="2" fill="none"></path></g><g transform="translate(183.55559539794922 134.08597833357334) rotate(0 111.56778629860378 71.839104496727)"><path d="M192.53 135.19 C204.72 139.31, 212.38 142.58, 223.79 143.95 M194.47 137.08 C200.28 138.4, 207.86 139.69, 223.23 143.81" stroke="#000000" stroke-width="2" fill="none"></path></g><g transform="translate(183.55559539794922 134.08597833357334) rotate(0 111.56778629860378 71.839104496727)"><path d="M203.61 117.92 C212.71 126.95, 217.2 135.17, 223.79 143.95 M205.55 119.81 C208.81 125.1, 213.85 130.36, 223.23 143.81" stroke="#000000" stroke-width="2" fill="none"></path></g></g><g transform="translate(281.8821029663086 159.2567901611328) rotate(0 54 12.5)"><text x="0" y="18" font-family="Virgil, Segoe UI Emoji" font-size="20px" fill="#000000" text-anchor="start" style="white-space: pre;" direction="ltr">experiences</text></g><g stroke-linecap="round" transform="translate(10 369.78335576067866) rotate(0 84.48298645019531 44.91947937011719)"><path d="M22.46 0 M22.46 0 C53.99 2.89, 81.11 1.71, 146.51 0 M22.46 0 C66.02 0.54, 110.77 0.49, 146.51 0 M146.51 0 C160.85 1.89, 167.38 9.27, 168.97 22.46 M146.51 0 C159.5 0.82, 166.74 6.35, 168.97 22.46 M168.97 22.46 C166.98 36.81, 170.23 51.29, 168.97 67.38 M168.97 22.46 C168.22 39.12, 169.31 56.5, 168.97 67.38 M168.97 67.38 C168.07 80.62, 161.36 88.14, 146.51 89.84 M168.97 67.38 C169.66 83.36, 161.36 87.77, 146.51 89.84 M146.51 89.84 C114.94 90.26, 81.77 88.62, 22.46 89.84 M146.51 89.84 C98.81 87.82, 51.13 89.33, 22.46 89.84 M22.46 89.84 C7.08 90.55, -1.5 81.54, 0 67.38 M22.46 89.84 C9.78 89.09, -0.05 84.06, 0 67.38 M0 67.38 C-1.04 54.23, 0.61 38.34, 0 22.46 M0 67.38 C-0.59 51.29, 0.68 35.97, 0 22.46 M0 22.46 C-1.03 6.31, 6.74 -0.41, 22.46 0 M0 22.46 C-0.56 6.96, 8.25 -0.78, 22.46 0" stroke="#000000" stroke-width="2" fill="none"></path></g><g transform="translate(49.52418518066406 401.24250798235835) rotate(0 49 12.5)"><text x="49" y="18" font-family="Virgil, Segoe UI Emoji" font-size="20px" fill="#000000" text-anchor="middle" style="white-space: pre;" direction="ltr">Component</text></g><g stroke-linecap="round"><g transform="translate(95.65437316894531 162.4004059315771) rotate(0 0.785079987044071 100.44540269204882)"><path d="M-0.27 -0.05 C0.08 33.78, 1.32 168.64, 1.38 202.01 M1.78 -1.12 C2.09 32.46, 1.21 166.64, 0.74 200.34" stroke="#000000" stroke-width="1" fill="none"></path></g><g transform="translate(95.65437316894531 162.4004059315771) rotate(0 0.785079987044071 100.44540269204882)"><path d="M-9.34 173.04 C-5.66 177.74, -6.25 184.63, 1.03 199.73 M-8.97 172.27 C-6.56 180.81, -3.89 189.39, 0.86 199.71" stroke="#000000" stroke-width="1" fill="none"></path></g><g transform="translate(95.65437316894531 162.4004059315771) rotate(0 0.785079987044071 100.44540269204882)"><path d="M11.18 173.24 C9.93 177.84, 4.42 184.69, 1.03 199.73 M11.55 172.46 C7.9 180.9, 4.51 189.42, 0.86 199.71" stroke="#000000" stroke-width="1" fill="none"></path></g></g><g stroke-linecap="round"><g transform="translate(194.9768829345703 411.9199676991552) rotate(0 88.77932805194054 -20.573095012665704)"><path d="M-1.03 0.35 C28.17 -6.29, 146.68 -32.9, 176.24 -39.95 M0.63 -0.52 C30.13 -7.45, 149.49 -34.73, 178.59 -41.49" stroke="#000000" stroke-width="1" fill="none"></path></g><g transform="translate(194.9768829345703 411.9199676991552) rotate(0 88.77932805194054 -20.573095012665704)"><path d="M154 -26.32 C164.97 -32.26, 171.33 -35.75, 180.48 -41.36 M154.34 -26.05 C162.77 -31.02, 172.29 -37.24, 178.5 -42.29" stroke="#000000" stroke-width="1" fill="none"></path></g><g transform="translate(194.9768829345703 411.9199676991552) rotate(0 88.77932805194054 -20.573095012665704)"><path d="M149.39 -46.31 C162.11 -44.52, 170.25 -40.32, 180.48 -41.36 M149.74 -46.05 C159.75 -43.8, 170.93 -42.76, 178.5 -42.29" stroke="#000000" stroke-width="1" fill="none"></path></g></g><g transform="translate(254.7476348876953 409.9454193593115) rotate(0 54 12.5)"><text x="0" y="18" font-family="Virgil, Segoe UI Emoji" font-size="20px" fill="#000000" text-anchor="start" style="white-space: pre;" direction="ltr">experiences</text></g><g transform="translate(106.84651184082031 240.60173039446772) rotate(0 89.5 12.5)"><text x="0" y="18" font-family="Virgil, Segoe UI Emoji" font-size="20px" fill="#000000" text-anchor="start" style="white-space: pre;" direction="ltr">hasComponentPart</text></g></svg>