<svg version="1.1" xmlns="http://www.w3.org/2000/svg" viewBox="0 0 1662.091796875 800.8443603515625" width="1662.091796875" height="800.8443603515625">
  <!-- svg-source:excalidraw -->
  
  <defs>
    <style>
      @font-face {
        font-family: "Virgil";
        src: url("https://excalidraw.com/Virgil.woff2");
      }
      @font-face {
        font-family: "Cascadia";
        src: url("https://excalidraw.com/Cascadia.woff2");
      }
    </style>
  </defs>
  <rect x="0" y="0" width="1662.091796875" height="800.8443603515625" fill="#ffffff"></rect><g stroke-linecap="round" transform="translate(401.25634765625 434.38763427734375) rotate(0 108.4462890625 50.50830078125)"><path d="M25.25 0 M25.25 0 C84.87 -1.79, 146.38 0.36, 191.64 0 M25.25 0 C68.72 -1.57, 112.78 -1.75, 191.64 0 M191.64 0 C207.05 -1.85, 218.47 6.8, 216.89 25.25 M191.64 0 C207.86 1.25, 218.77 7.8, 216.89 25.25 M216.89 25.25 C215.73 46.28, 218.58 66.62, 216.89 75.76 M216.89 25.25 C217.61 38.54, 216.92 51.59, 216.89 75.76 M216.89 75.76 C216.07 94.07, 210.1 100.46, 191.64 101.02 M216.89 75.76 C215.46 94.19, 210.69 103.24, 191.64 101.02 M191.64 101.02 C150.62 101.16, 105.37 100.01, 25.25 101.02 M191.64 101.02 C156.37 103.25, 119.97 103.15, 25.25 101.02 M25.25 101.02 C8.37 99.72, 1.78 92.1, 0 75.76 M25.25 101.02 C7.15 101.87, -2.27 91.6, 0 75.76 M0 75.76 C-0.62 64.22, 1.22 51.44, 0 25.25 M0 75.76 C0.2 62.3, -0.26 48.52, 0 25.25 M0 25.25 C0.67 9.26, 6.99 0.71, 25.25 0 M0 25.25 C0.37 7.68, 10.02 0.2, 25.25 0" stroke="#000000" stroke-width="1" fill="none"></path></g><g transform="translate(435.51220703125 459.97833251953125) rotate(0 75 25)"><text x="75" y="18" font-family="Virgil, Segoe UI Emoji" font-size="20px" fill="#000000" text-anchor="middle" style="white-space: pre;" direction="ltr">Material</text><text x="75" y="43" font-family="Virgil, Segoe UI Emoji" font-size="20px" fill="#000000" text-anchor="middle" style="white-space: pre;" direction="ltr">Transformation</text></g><g stroke-linecap="round" transform="translate(394.2646484375 177.2237548828125) rotate(0 108.4462890625 50.50830078125)"><path d="M25.25 0 M25.25 0 C61.1 -0.55, 97.52 -2.5, 191.64 0 M25.25 0 C73.3 0.72, 121.78 0.66, 191.64 0 M191.64 0 C206.67 1.36, 216.08 8.6, 216.89 25.25 M191.64 0 C207.98 -1.38, 214.7 8, 216.89 25.25 M216.89 25.25 C218.46 44.6, 217.4 61.01, 216.89 75.76 M216.89 25.25 C216.83 36.44, 216.66 45.13, 216.89 75.76 M216.89 75.76 C217.2 92.36, 208.58 99.41, 191.64 101.02 M216.89 75.76 C214.95 93.12, 206.59 100.12, 191.64 101.02 M191.64 101.02 C132.57 99.51, 71.78 98.8, 25.25 101.02 M191.64 101.02 C141.61 101.88, 90.62 101.29, 25.25 101.02 M25.25 101.02 C8.47 99.28, -0.75 91.68, 0 75.76 M25.25 101.02 C6.8 102.63, -1.31 91.16, 0 75.76 M0 75.76 C1.82 60.68, 0.92 43.63, 0 25.25 M0 75.76 C-1.08 63.77, -1.06 51.84, 0 25.25 M0 25.25 C1.26 9.35, 9.27 0.95, 25.25 0 M0 25.25 C-0.05 6.27, 9.88 -0.43, 25.25 0" stroke="#000000" stroke-width="1" fill="none"></path></g><g transform="translate(450.0205078125 215.314453125) rotate(0 53.5 12.5)"><text x="53.5" y="18" font-family="Virgil, Segoe UI Emoji" font-size="20px" fill="#000000" text-anchor="middle" style="white-space: pre;" direction="ltr">sio:Process</text></g><g stroke-linecap="round"><g transform="translate(505.87461800190636 432.3106384277344) rotate(0 -1.7385001992191178 -76.44529078237247)"><path d="M1.14 0.94 C0.18 -24.34, -3.87 -126.48, -4.62 -152.1 M0.28 0.39 C-0.41 -25.2, -1.69 -128.53, -2.38 -153.83" stroke="#000000" stroke-width="1" fill="none"></path></g><g transform="translate(505.87461800190636 432.3106384277344) rotate(0 -1.7385001992191178 -76.44529078237247)"><path d="M9.97 -127.36 C5.48 -136.15, 0.12 -146.46, -4 -155.8 M8.74 -126.16 C4.32 -134.59, 2.26 -143.11, -2.07 -154.27" stroke="#000000" stroke-width="1" fill="none"></path></g><g transform="translate(505.87461800190636 432.3106384277344) rotate(0 -1.7385001992191178 -76.44529078237247)"><path d="M-10.54 -126.97 C-6.94 -136.11, -4.2 -146.57, -4 -155.8 M-11.78 -125.77 C-10 -134.19, -5.87 -142.83, -2.07 -154.27" stroke="#000000" stroke-width="1" fill="none"></path></g></g><g transform="translate(518.6044921875 341.7467346191406) rotate(0 77.5 12.5)"><text x="0" y="18" font-family="Virgil, Segoe UI Emoji" font-size="20px" fill="#000000" text-anchor="start" style="white-space: pre;" direction="ltr">rdfs:subClassOf</text></g><g stroke-linecap="round" transform="translate(10 242.05517578125) rotate(0 108.4462890625 50.50830078125)"><path d="M25.25 0 M25.25 0 C79.79 -1.12, 135.78 1.07, 191.64 0 M191.64 0 C210.19 1.07, 217.08 10.12, 216.89 25.25 M216.89 25.25 C218.42 36.53, 218.32 44.74, 216.89 75.76 M216.89 75.76 C218.76 91.36, 208.02 102.25, 191.64 101.02 M191.64 101.02 C147.44 98.96, 101.96 101.97, 25.25 101.02 M25.25 101.02 C7.24 102.63, -1.69 92.97, 0 75.76 M0 75.76 C-1.23 58.89, -0.69 40.75, 0 25.25 M0 25.25 C-0.78 8.98, 8.55 -1.05, 25.25 0" stroke="#000000" stroke-width="1.5" fill="none" stroke-dasharray="8 9"></path></g><g transform="translate(78.255859375 267.6458740234375) rotate(0 41 25)"><text x="41" y="18" font-family="Virgil, Segoe UI Emoji" font-size="20px" fill="#000000" text-anchor="middle" style="white-space: pre;" direction="ltr">Material</text><text x="41" y="43" font-family="Virgil, Segoe UI Emoji" font-size="20px" fill="#000000" text-anchor="middle" style="white-space: pre;" direction="ltr">Entity</text></g><g stroke-linecap="round"><g transform="translate(399.51318359375 419.83282470703125) rotate(0 -84.2287991672801 -54.28387055858039)"><path d="M-0.86 -0.99 C-29.18 -18.87, -141.35 -89.79, -169.35 -107.93 M0.89 1.1 C-27.1 -17.05, -138.57 -91.29, -167.01 -109.67" stroke="#000000" stroke-width="1" fill="none"></path></g><g transform="translate(399.51318359375 419.83282470703125) rotate(0 -84.2287991672801 -54.28387055858039)"><path d="M-139.47 -103.93 C-146.79 -105.77, -160.24 -107.19, -165.27 -109.88 M-136.97 -103.26 C-149.24 -106.31, -159.6 -108.61, -167.44 -110.47" stroke="#000000" stroke-width="1" fill="none"></path></g><g transform="translate(399.51318359375 419.83282470703125) rotate(0 -84.2287991672801 -54.28387055858039)"><path d="M-150.74 -86.78 C-154 -94.56, -163.49 -102, -165.27 -109.88 M-148.24 -86.11 C-156.48 -95.5, -162.67 -104.14, -167.44 -110.47" stroke="#000000" stroke-width="1" fill="none"></path></g></g><g transform="translate(311.5732421875 333.0444641113281) rotate(0 68 12.5)"><text x="0" y="18" font-family="Virgil, Segoe UI Emoji" font-size="20px" fill="#000000" text-anchor="start" style="white-space: pre;" direction="ltr">`sio:has input'</text></g><g stroke-linecap="round" transform="translate(215.26806640625 689.8277587890625) rotate(0 108.4462890625 50.50830078125)"><path d="M25.25 0 M25.25 0 C71.46 0.1, 120.91 1.43, 191.64 0 M191.64 0 C207.51 1.22, 218.73 7.82, 216.89 25.25 M216.89 25.25 C218.15 39.83, 216.88 52.38, 216.89 75.76 M216.89 75.76 C215.81 94.58, 210.25 102, 191.64 101.02 M191.64 101.02 C130.13 103.94, 64.19 101.48, 25.25 101.02 M25.25 101.02 C9.67 101.62, 0.95 92.1, 0 75.76 M0 75.76 C-1.31 58.67, -1.04 39.02, 0 25.25 M0 25.25 C-1.82 8.52, 10.34 -0.95, 25.25 0" stroke="#000000" stroke-width="1.5" fill="none" stroke-dasharray="8 9"></path></g><g transform="translate(282.69873046875 715.41845703125) rotate(0 41.5 25)"><text x="41.5" y="18" font-family="Virgil, Segoe UI Emoji" font-size="20px" fill="#000000" text-anchor="middle" style="white-space: pre;" direction="ltr">Designed</text><text x="41.5" y="43" font-family="Virgil, Segoe UI Emoji" font-size="20px" fill="#000000" text-anchor="middle" style="white-space: pre;" direction="ltr">Artifact</text></g><g stroke-linecap="round"><g transform="translate(467.378157456993 546.9256591796875) rotate(0 -48.94932006512806 68.1511800281005)"><path d="M-0.11 -0.53 C-16.33 22.18, -80.77 113.07, -96.92 135.92 M-1.62 1.8 C-18.03 24.65, -81.77 114.2, -97.79 136.84" stroke="#000000" stroke-width="1" fill="none"></path></g><g transform="translate(467.378157456993 546.9256591796875) rotate(0 -48.94932006512806 68.1511800281005)"><path d="M-90.72 108.17 C-94.56 117.72, -96.16 127.34, -98.81 136.39 M-88.99 108.59 C-91.68 119.74, -94.78 129.07, -97.06 136.96" stroke="#000000" stroke-width="1" fill="none"></path></g><g transform="translate(467.378157456993 546.9256591796875) rotate(0 -48.94932006512806 68.1511800281005)"><path d="M-73.99 120.05 C-83.43 125.59, -90.66 131.21, -98.81 136.39 M-72.26 120.47 C-81.42 127.1, -90.9 131.9, -97.06 136.96" stroke="#000000" stroke-width="1" fill="none"></path></g></g><g transform="translate(430.0576171875 621.4326782226562) rotate(0 78 12.5)"><text x="0" y="18" font-family="Virgil, Segoe UI Emoji" font-size="20px" fill="#000000" text-anchor="start" style="white-space: pre;" direction="ltr">`sio:has output'</text></g><g stroke-linecap="round" transform="translate(919.8115234375 229.51296997070312) rotate(0 108.4462890625 50.50830078125)"><path d="M25.25 0 M25.25 0 C61.61 -1.72, 98.25 -0.81, 191.64 0 M25.25 0 C74.73 2.51, 123.53 1.09, 191.64 0 M191.64 0 C207.38 1.7, 217.32 7.03, 216.89 25.25 M191.64 0 C207.64 -0.58, 214.99 7.74, 216.89 25.25 M216.89 25.25 C218.41 39.06, 217.16 53.28, 216.89 75.76 M216.89 25.25 C217.07 40.35, 216.25 55.1, 216.89 75.76 M216.89 75.76 C216.02 92.94, 210.09 101.7, 191.64 101.02 M216.89 75.76 C216.51 92.98, 206.18 98.83, 191.64 101.02 M191.64 101.02 C158.14 101.03, 121.24 100.49, 25.25 101.02 M191.64 101.02 C140.65 102.77, 91.57 102.53, 25.25 101.02 M25.25 101.02 C7.72 100.94, 0.61 91.73, 0 75.76 M25.25 101.02 C7.05 102.25, 1.22 94.53, 0 75.76 M0 75.76 C1.3 59.48, -0.63 37.63, 0 25.25 M0 75.76 C0.82 62.64, 0.09 49.43, 0 25.25 M0 25.25 C1.54 10.11, 8.44 -0.26, 25.25 0 M0 25.25 C-1.48 7.44, 8.24 -1.89, 25.25 0" stroke="#000000" stroke-width="1" fill="none"></path></g><g transform="translate(989.5673828125 255.10366821289062) rotate(0 39.5 12.5)"><text x="39.5" y="18" font-family="Virgil, Segoe UI Emoji" font-size="20px" fill="#000000" text-anchor="middle" style="white-space: pre;" direction="ltr">Method?</text></g><g stroke-linecap="round" transform="translate(924.2080078125 35.76263427734375) rotate(0 108.4462890625 50.50830078125)"><path d="M25.25 0 M25.25 0 C85.67 1.26, 144.76 1.47, 191.64 0 M25.25 0 C72.35 0.26, 120.55 0.23, 191.64 0 M191.64 0 C210.34 -1.03, 216.59 8.46, 216.89 25.25 M191.64 0 C208.93 -0.21, 216.15 8.15, 216.89 25.25 M216.89 25.25 C218.44 39.61, 216.44 50.84, 216.89 75.76 M216.89 25.25 C216.36 36.44, 217.94 46.94, 216.89 75.76 M216.89 75.76 C218.45 93.94, 210.01 102.94, 191.64 101.02 M216.89 75.76 C218.94 93.78, 206.44 102.28, 191.64 101.02 M191.64 101.02 C140.75 98.18, 91.18 100.93, 25.25 101.02 M191.64 101.02 C136.12 100.11, 80.89 101.34, 25.25 101.02 M25.25 101.02 C10.25 102.3, -0.16 91.25, 0 75.76 M25.25 101.02 C9.41 101.21, -2.25 91.07, 0 75.76 M0 75.76 C-1.18 61.94, 0.5 48.79, 0 25.25 M0 75.76 C0.58 60.64, 0.07 46.96, 0 25.25 M0 25.25 C-0.89 8.76, 8.75 -0.47, 25.25 0 M0 25.25 C-0.54 10.1, 8.07 -1.47, 25.25 0" stroke="#000000" stroke-width="1" fill="none"></path></g><g transform="translate(968.70556640625 71.44622802734375) rotate(0 62.5 12.5)"><text x="62.5" y="18" font-family="Virgil, Segoe UI Emoji" font-size="20px" fill="#000000" text-anchor="middle" style="white-space: pre;" direction="ltr">sio:Capability</text></g><g transform="translate(1043.0654296875 184.33074951171875) rotate(0 77.5 12.5)"><text x="0" y="18" font-family="Virgil, Segoe UI Emoji" font-size="20px" fill="#000000" text-anchor="start" style="white-space: pre;" direction="ltr">rdfs:subClassOf</text></g><g stroke-linecap="round" transform="translate(916.349609375 431.583740234375) rotate(0 108.4462890625 50.50830078125)"><path d="M25.25 0 M25.25 0 C58.35 2.83, 90.85 1.85, 191.64 0 M25.25 0 C68.52 -0.19, 111.3 -0.42, 191.64 0 M191.64 0 C210.09 -1.89, 217.65 6.84, 216.89 25.25 M191.64 0 C206.44 1.71, 218.99 8.47, 216.89 25.25 M216.89 25.25 C215 34.93, 217.15 48.11, 216.89 75.76 M216.89 25.25 C217.07 40.41, 216.18 54.82, 216.89 75.76 M216.89 75.76 C215.94 90.86, 206.48 100.86, 191.64 101.02 M216.89 75.76 C217.27 91.34, 206.44 100.25, 191.64 101.02 M191.64 101.02 C136.5 99.92, 82.81 100.72, 25.25 101.02 M191.64 101.02 C142.58 103.54, 94.77 102.02, 25.25 101.02 M25.25 101.02 C6.88 100.18, -1.84 93.01, 0 75.76 M25.25 101.02 C6.39 99.97, -0.03 92.1, 0 75.76 M0 75.76 C0.82 62.92, 0 50.82, 0 25.25 M0 75.76 C-1.28 62.77, -0.1 50.47, 0 25.25 M0 25.25 C0.13 8.96, 8.09 0.77, 25.25 0 M0 25.25 C-0.64 6.93, 6.61 0.69, 25.25 0" stroke="#000000" stroke-width="1" fill="none"></path></g><g transform="translate(957.10546875 457.1744384765625) rotate(0 68.5 25)"><text x="68.5" y="18" font-family="Virgil, Segoe UI Emoji" font-size="20px" fill="#000000" text-anchor="middle" style="white-space: pre;" direction="ltr">Additive</text><text x="68.5" y="43" font-family="Virgil, Segoe UI Emoji" font-size="20px" fill="#000000" text-anchor="middle" style="white-space: pre;" direction="ltr">Manufacturing</text></g><g stroke-linecap="round"><g transform="translate(1019.4575843514467 429.36737060546875) rotate(0 0.6991349072370667 -45.218548268824804)"><path d="M-1.06 1.12 C-0.51 -13.99, 1.88 -76.35, 2.46 -91.56 M0.58 0.66 C1.04 -14.22, 1.29 -74.85, 1.45 -90.29" stroke="#000000" stroke-width="1" fill="none"></path></g><g transform="translate(1019.4575843514467 429.36737060546875) rotate(0 0.6991349072370667 -45.218548268824804)"><path d="M13.37 -62.23 C8.54 -68.86, 8.6 -74.9, 0.57 -91.74 M12.22 -61.15 C7.58 -73.14, 3.91 -83.24, 1.71 -89.88" stroke="#000000" stroke-width="1" fill="none"></path></g><g transform="translate(1019.4575843514467 429.36737060546875) rotate(0 0.6991349072370667 -45.218548268824804)"><path d="M-7.15 -62.38 C-7.29 -68.79, -2.52 -74.8, 0.57 -91.74 M-8.3 -61.3 C-5.22 -73.43, -1.18 -83.48, 1.71 -89.88" stroke="#000000" stroke-width="1" fill="none"></path></g></g><g stroke-linecap="round"><g transform="translate(1021.9713527794038 223.41281127929688) rotate(0 0.6478051797524813 -41.22227532453369)"><path d="M0.7 -0.55 C1.05 -14.5, 1.81 -70.24, 1.67 -84.22 M-0.39 1.78 C-0.07 -11.97, 0.83 -68.79, 1.29 -83.02" stroke="#000000" stroke-width="1" fill="none"></path></g><g transform="translate(1021.9713527794038 223.41281127929688) rotate(0 0.6478051797524813 -41.22227532453369)"><path d="M9.99 -52.79 C7.41 -63.27, 4.48 -70.24, 1.88 -82.25 M10.23 -53.77 C7.72 -63.87, 5.42 -71.65, 0.65 -83.78" stroke="#000000" stroke-width="1" fill="none"></path></g><g transform="translate(1021.9713527794038 223.41281127929688) rotate(0 0.6478051797524813 -41.22227532453369)"><path d="M-10.53 -53.27 C-7.66 -63.74, -5.12 -70.58, 1.88 -82.25 M-10.29 -54.24 C-6.72 -64.35, -2.93 -71.99, 0.65 -83.78" stroke="#000000" stroke-width="1" fill="none"></path></g></g><g transform="translate(1040.07763671875 381.4632568359375) rotate(0 77.5 12.5)"><text x="0" y="18" font-family="Virgil, Segoe UI Emoji" font-size="20px" fill="#000000" text-anchor="start" style="white-space: pre;" direction="ltr">rdfs:subClassOf</text></g><g stroke-linecap="round"><g transform="translate(895.9501953125 469.76239013671875) rotate(0 -135.67896867847537 8.240774300368486)"><path d="M0.23 0.81 C-44.79 3.13, -225.83 12.62, -271.15 14.76 M-1.11 0.19 C-46.1 2.65, -226.39 13.92, -271.59 16.29" stroke="#000000" stroke-width="1" fill="none"></path></g><g transform="translate(895.9501953125 469.76239013671875) rotate(0 -135.67896867847537 8.240774300368486)"><path d="M-242.69 6.05 C-249.78 7.66, -257.4 11.39, -271.77 17.33 M-244.96 5 C-253.2 8.12, -260.13 11.93, -271.41 16.16" stroke="#000000" stroke-width="1" fill="none"></path></g><g transform="translate(895.9501953125 469.76239013671875) rotate(0 -135.67896867847537 8.240774300368486)"><path d="M-241.5 26.54 C-248.98 23.83, -256.85 23.24, -271.77 17.33 M-243.77 25.49 C-252.25 22.27, -259.54 19.75, -271.41 16.16" stroke="#000000" stroke-width="1" fill="none"></path></g></g><g transform="translate(676.048828125 440.99383544921875) rotate(0 85 12.5)"><text x="0" y="18" font-family="Virgil, Segoe UI Emoji" font-size="20px" fill="#000000" text-anchor="start" style="white-space: pre;" direction="ltr">`sio:is realized in'</text></g><g stroke-linecap="round" transform="translate(1378.63427734375 245.89224243164062) rotate(0 108.4462890625 50.50830078125)"><path d="M25.25 0 M25.25 0 C83.06 -1.86, 144.67 -1.24, 191.64 0 M191.64 0 C209.49 1.75, 216.75 7.61, 216.89 25.25 M216.89 25.25 C215.39 45.53, 217.5 65.26, 216.89 75.76 M216.89 75.76 C216.2 90.71, 208.38 99.96, 191.64 101.02 M191.64 101.02 C140.26 99.59, 88.89 102.29, 25.25 101.02 M25.25 101.02 C8.75 102.32, -0.18 91.02, 0 75.76 M0 75.76 C-0.42 60.9, -1.42 41.71, 0 25.25 M0 25.25 C1.51 8.56, 8.86 0.88, 25.25 0" stroke="#000000" stroke-width="1.5" fill="none" stroke-dasharray="8 9"></path></g><g transform="translate(1419.39013671875 271.4829406738281) rotate(0 68.5 37.5)"><text x="68.5" y="18" font-family="Virgil, Segoe UI Emoji" font-size="20px" fill="#000000" text-anchor="middle" style="white-space: pre;" direction="ltr">Additive</text><text x="68.5" y="43" font-family="Virgil, Segoe UI Emoji" font-size="20px" fill="#000000" text-anchor="middle" style="white-space: pre;" direction="ltr">Manufacturing</text><text x="68.5" y="68" font-family="Virgil, Segoe UI Emoji" font-size="20px" fill="#000000" text-anchor="middle" style="white-space: pre;" direction="ltr">System</text></g><g stroke-linecap="round"><g transform="translate(1376.0849609375 317.84511800667013) rotate(0 -118.75517178458153 82.64299042234774)"><path d="M-0.76 -0.98 C-40.19 26.84, -198.4 138.37, -237.76 166.27 M1.03 1.12 C-38.42 28.63, -198.85 137.18, -238.54 164.38" stroke="#000000" stroke-width="1" fill="none"></path></g><g transform="translate(1376.0849609375 317.84511800667013) rotate(0 -118.75517178458153 82.64299042234774)"><path d="M-222.65 140.56 C-223.92 146.7, -227.26 148.27, -239.42 165.66 M-220.88 140.06 C-227.52 149.13, -232.87 158.56, -238.45 164.35" stroke="#000000" stroke-width="1" fill="none"></path></g><g transform="translate(1376.0849609375 317.84511800667013) rotate(0 -118.75517178458153 82.64299042234774)"><path d="M-211.1 157.53 C-214.6 160.18, -220.27 158.34, -239.42 165.66 M-209.33 157.02 C-220.28 159.91, -229.8 163.19, -238.45 164.35" stroke="#000000" stroke-width="1" fill="none"></path></g></g><g transform="translate(1270.81005859375 394.5548095703125) rotate(0 93.5 12.5)"><text x="0" y="18" font-family="Virgil, Segoe UI Emoji" font-size="20px" fill="#000000" text-anchor="start" style="white-space: pre;" direction="ltr">'sio: has capability'</text></g><g stroke-linecap="round" transform="translate(1377.78759765625 10) rotate(0 108.4462890625 50.50830078125)"><path d="M25.25 0 M25.25 0 C64.86 1.17, 102.1 0.22, 191.64 0 M25.25 0 C92.1 0.16, 158.13 0.13, 191.64 0 M191.64 0 C208.2 0.66, 214.99 9.1, 216.89 25.25 M191.64 0 C207.03 1.5, 215.71 8.92, 216.89 25.25 M216.89 25.25 C215.01 36.2, 215.35 46.49, 216.89 75.76 M216.89 25.25 C216.61 40.48, 218.1 54.93, 216.89 75.76 M216.89 75.76 C215.5 92, 207.3 99.87, 191.64 101.02 M216.89 75.76 C219.08 93.91, 209.66 103.03, 191.64 101.02 M191.64 101.02 C146.69 99.21, 97.23 100.8, 25.25 101.02 M191.64 101.02 C125.95 102.52, 59.95 103.3, 25.25 101.02 M25.25 101.02 C6.64 101.28, 0.31 91.91, 0 75.76 M25.25 101.02 C7.62 100.78, 1.89 91.89, 0 75.76 M0 75.76 C1.56 59.05, 0.18 44.53, 0 25.25 M0 75.76 C-0.18 57.92, -0.36 41.18, 0 25.25 M0 25.25 C1.86 8.21, 9.91 0.89, 25.25 0 M0 25.25 C0.77 9.85, 8.92 1.56, 25.25 0" stroke="#000000" stroke-width="1" fill="none"></path></g><g transform="translate(1445.21826171875 35.5906982421875) rotate(0 41.5 25)"><text x="41.5" y="18" font-family="Virgil, Segoe UI Emoji" font-size="20px" fill="#000000" text-anchor="middle" style="white-space: pre;" direction="ltr">Designed</text><text x="41.5" y="43" font-family="Virgil, Segoe UI Emoji" font-size="20px" fill="#000000" text-anchor="middle" style="white-space: pre;" direction="ltr">Artifact</text></g><g stroke-linecap="round"><g transform="translate(1481.3046575526582 238.88760375976562) rotate(0 -1.8957546809642736 -61.71248307022267)"><path d="M-0.2 -0.63 C-0.63 -21.25, -2.97 -102.8, -3.59 -123.34 M-1.76 1.65 C-1.72 -19.34, -1.3 -104.4, -1.28 -125.08" stroke="#000000" stroke-width="1" fill="none"></path></g><g transform="translate(1481.3046575526582 238.88760375976562) rotate(0 -1.8957546809642736 -61.71248307022267)"><path d="M7.84 -98.13 C7.82 -104.8, 4.8 -109.85, 0.3 -125.84 M9.36 -97.81 C6.97 -102.03, 4.43 -109.09, -0.29 -125.73" stroke="#000000" stroke-width="1" fill="none"></path></g><g transform="translate(1481.3046575526582 238.88760375976562) rotate(0 -1.8957546809642736 -61.71248307022267)"><path d="M-12.68 -98.19 C-8.28 -104.82, -6.88 -109.86, 0.3 -125.84 M-11.16 -97.88 C-9.03 -102.22, -7.04 -109.27, -0.29 -125.73" stroke="#000000" stroke-width="1" fill="none"></path></g></g><g transform="translate(1497.091796875 174.20501708984375) rotate(0 77.5 12.5)"><text x="0" y="18" font-family="Virgil, Segoe UI Emoji" font-size="20px" fill="#000000" text-anchor="start" style="white-space: pre;" direction="ltr">rdfs:subClassOf</text></g><g stroke-linecap="round" transform="translate(698.5205078125 614.0841674804688) rotate(0 108.4462890625 50.50830078125)"><path d="M25.25 0 M25.25 0 C88.9 -1.36, 152.76 -2.27, 191.64 0 M25.25 0 C66.43 -0.74, 106.35 -1.57, 191.64 0 M191.64 0 C209.46 0.81, 215.12 6.99, 216.89 25.25 M191.64 0 C208.28 -1.68, 215.37 9.83, 216.89 25.25 M216.89 25.25 C215.87 36.77, 215.84 47.4, 216.89 75.76 M216.89 25.25 C217.31 39.3, 217.14 55.8, 216.89 75.76 M216.89 75.76 C216.03 93.33, 209.51 100.27, 191.64 101.02 M216.89 75.76 C214.99 90.65, 207.5 99.6, 191.64 101.02 M191.64 101.02 C136.09 98.84, 83.28 97.9, 25.25 101.02 M191.64 101.02 C146.58 100.96, 102.24 101.26, 25.25 101.02 M25.25 101.02 C6.68 100.35, -0.59 93.82, 0 75.76 M25.25 101.02 C9.88 102.07, -0.29 93.81, 0 75.76 M0 75.76 C0.87 54.67, -1.32 36.41, 0 25.25 M0 75.76 C-0.31 56.3, 0.73 36.79, 0 25.25 M0 25.25 C0.86 7.19, 7.2 -1.22, 25.25 0 M0 25.25 C-0.2 8.36, 8.78 0.07, 25.25 0" stroke="#000000" stroke-width="1" fill="none"></path></g><g transform="translate(744.2763671875 652.1748657226562) rotate(0 63.5 12.5)"><text x="63.5" y="18" font-family="Virgil, Segoe UI Emoji" font-size="20px" fill="#000000" text-anchor="middle" style="white-space: pre;" direction="ltr">sio:Procedure</text></g><g stroke-linecap="round"><g transform="translate(617.42138671875 539.56640625) rotate(0 46.97587178864978 43.26076105919665)"><path d="M0.49 0.57 C16.08 15, 78.7 71.28, 94.66 85.48 M-0.71 -0.17 C14.58 14.51, 77.34 72.17, 93.46 86.69" stroke="#000000" stroke-width="1" fill="none"></path></g><g transform="translate(617.42138671875 539.56640625) rotate(0 46.97587178864978 43.26076105919665)"><path d="M66.67 74.5 C75.58 81.54, 87.12 85.51, 94.18 86.27 M66.59 75.68 C73.91 79.26, 82.09 82.39, 92.71 85.79" stroke="#000000" stroke-width="1" fill="none"></path></g><g transform="translate(617.42138671875 539.56640625) rotate(0 46.97587178864978 43.26076105919665)"><path d="M80.5 59.33 C83.79 72.44, 89.84 82.43, 94.18 86.27 M80.41 60.51 C83.72 68.54, 87.75 76.21, 92.71 85.79" stroke="#000000" stroke-width="1" fill="none"></path></g></g><g transform="translate(652.86572265625 540.7675170898438) rotate(0 71 12.5)"><text x="0" y="18" font-family="Virgil, Segoe UI Emoji" font-size="20px" fill="#000000" text-anchor="start" style="white-space: pre;" direction="ltr">`sio: has part'</text></g></svg>