<svg version="1.1" xmlns="http://www.w3.org/2000/svg" viewBox="0 0 1126.336441040039 806.2034607889356" width="1126.336441040039" height="806.2034607889356">
  <!-- svg-source:excalidraw -->
  
  <defs>
    <style>
      @font-face {
        font-family: "Virgil";
        src: url("https://excalidraw.com/Virgil.woff2");
      }
      @font-face {
        font-family: "Cascadia";
        src: url("https://excalidraw.com/Cascadia.woff2");
      }
    </style>
  </defs>
  <rect x="0" y="0" width="1126.336441040039" height="806.2034607889356" fill="#ffffff"></rect><g stroke-linecap="round" transform="translate(647.1083831787109 217.90052795410156) rotate(0 84.48298645019531 44.91947937011719)"><path d="M22.46 0 M22.46 0 C60.25 0.12, 97.38 -1.48, 146.51 0 M22.46 0 C52.97 0.96, 82.68 0.13, 146.51 0 M146.51 0 C161.75 0.32, 169.14 7.42, 168.97 22.46 M146.51 0 C160.68 -1.42, 166.82 9, 168.97 22.46 M168.97 22.46 C169.78 33.18, 168.76 45.54, 168.97 67.38 M168.97 22.46 C167.73 39.06, 169.5 57.82, 168.97 67.38 M168.97 67.38 C170.88 83.47, 161.01 89.63, 146.51 89.84 M168.97 67.38 C168.23 84.11, 160.22 89.16, 146.51 89.84 M146.51 89.84 C105.49 91.35, 64.37 90.09, 22.46 89.84 M146.51 89.84 C103.5 89.15, 60.61 90.27, 22.46 89.84 M22.46 89.84 C8.92 89.89, 0.48 80.87, 0 67.38 M22.46 89.84 C6.79 88.79, -1.16 83.7, 0 67.38 M0 67.38 C1.26 56.29, -0.3 42, 0 22.46 M0 67.38 C-0.03 54.38, 1.13 40.77, 0 22.46 M0 22.46 C-1.69 9.12, 7.22 0.02, 22.46 0 M0 22.46 C-2.18 9.78, 7.24 -1.1, 22.46 0" stroke="#000000" stroke-width="2" fill="none"></path></g><g transform="translate(679.721923828125 252.23037719726562) rotate(0 55 12.5)"><text x="55" y="18" font-family="Virgil, Segoe UI Emoji" font-size="20px" fill="#000000" text-anchor="middle" style="white-space: pre;" direction="ltr">Malfunction</text></g><g stroke-linecap="round" transform="translate(646.2009582519531 10) rotate(0 84.48298645019531 44.91947937011719)"><path d="M22.46 0 M22.46 0 C47.11 -1.64, 75.23 0.71, 146.51 0 M22.46 0 C66.28 -1.09, 110.24 -1.38, 146.51 0 M146.51 0 C160.08 1.93, 168.38 8.49, 168.97 22.46 M146.51 0 C160.53 -1.35, 169.2 6.82, 168.97 22.46 M168.97 22.46 C170.48 38.83, 169.43 53.44, 168.97 67.38 M168.97 22.46 C169.3 38.86, 169.81 56.17, 168.97 67.38 M168.97 67.38 C167.06 82.35, 160.46 89.85, 146.51 89.84 M168.97 67.38 C170.43 82.29, 161.9 88.8, 146.51 89.84 M146.51 89.84 C100.66 92.65, 58.26 91.43, 22.46 89.84 M146.51 89.84 C97.59 87.87, 47.78 88.73, 22.46 89.84 M22.46 89.84 C8.37 88.44, -1.22 81.35, 0 67.38 M22.46 89.84 C8.89 89.72, -1.79 80.24, 0 67.38 M0 67.38 C-2 56.25, -1.66 42.19, 0 22.46 M0 67.38 C0.95 50.54, 0.79 31.91, 0 22.46 M0 22.46 C0.2 6.93, 7.42 1.15, 22.46 0 M0 22.46 C-0.81 7.63, 8.79 1.17, 22.46 0" stroke="#000000" stroke-width="2" fill="none"></path></g><g transform="translate(689.5542144775391 44.32984924316406) rotate(0 44.5 12.5)"><text x="44.5" y="18" font-family="Virgil, Segoe UI Emoji" font-size="20px" fill="#000000" text-anchor="middle" style="white-space: pre;" direction="ltr">Situation</text></g><g stroke-linecap="round"><g transform="translate(731.0587842752788 207.99510192871094) rotate(0 -0.6126990382119288 -51.489010243117804)"><path d="M0.1 0.11 C-0.16 -16.9, -1.29 -85.88, -1.33 -103.09" stroke="#000000" stroke-width="2.5" fill="none" stroke-dasharray="8 10"></path></g><g transform="translate(731.0587842752788 207.99510192871094) rotate(0 -0.6126990382119288 -51.489010243117804)"><path d="M9.42 -76.44 C5.79 -83.4, 2.37 -94.33, -0.97 -102.75" stroke="#000000" stroke-width="2.5" fill="none"></path></g><g transform="translate(731.0587842752788 207.99510192871094) rotate(0 -0.6126990382119288 -51.489010243117804)"><path d="M-11.1 -76.23 C-8.19 -83.28, -5.09 -94.27, -0.97 -102.75" stroke="#000000" stroke-width="2.5" fill="none"></path></g></g><g transform="translate(744.4254913330078 151.95375061035156) rotate(0 55 12.5)"><text x="0" y="18" font-family="Virgil, Segoe UI Emoji" font-size="20px" fill="#000000" text-anchor="start" style="white-space: pre;" direction="ltr">subClassOf</text></g><g stroke-linecap="round" transform="translate(647.93994140625 431.38092041015625) rotate(0 84.48298645019531 44.91947937011719)"><path d="M22.46 0 M22.46 0 C70.22 -0.27, 118.76 -1.17, 146.51 0 M22.46 0 C64.77 0.57, 106.65 -0.13, 146.51 0 M146.51 0 C163.39 -0.7, 167.87 8.33, 168.97 22.46 M146.51 0 C161.01 -1.88, 170.7 7.82, 168.97 22.46 M168.97 22.46 C167.54 33.49, 167.59 43.55, 168.97 67.38 M168.97 22.46 C169.14 40.43, 168.69 58.68, 168.97 67.38 M168.97 67.38 C169.5 82.76, 162.3 89.69, 146.51 89.84 M168.97 67.38 C170.65 82.84, 160.38 91.15, 146.51 89.84 M146.51 89.84 C103.83 90.82, 58.37 91.09, 22.46 89.84 M146.51 89.84 C117.64 88.63, 86.35 88.29, 22.46 89.84 M22.46 89.84 C8.64 90.86, 1 81.88, 0 67.38 M22.46 89.84 C5.82 91.58, -0.36 80.43, 0 67.38 M0 67.38 C1.76 55.2, -1.5 40.23, 0 22.46 M0 67.38 C0.93 50.77, -0.1 33.83, 0 22.46 M0 22.46 C-0.58 7.94, 5.82 0.59, 22.46 0 M0 22.46 C1.99 6.33, 6.37 1.28, 22.46 0" stroke="#000000" stroke-width="2" fill="none"></path></g><g transform="translate(658.3115997314453 452.69459533691406) rotate(0 77.5 25)"><text x="77.5" y="18" font-family="Virgil, Segoe UI Emoji" font-size="20px" fill="#000000" text-anchor="middle" style="white-space: pre;" direction="ltr">Misconfiguration</text><text x="77.5" y="43" font-family="Virgil, Segoe UI Emoji" font-size="20px" fill="#000000" text-anchor="middle" style="white-space: pre;" direction="ltr">Event</text></g><g stroke-linecap="round"><g transform="translate(733.5857350715743 311.3008270263672) rotate(0 0.38802196284558477 59.650063840872605)"><path d="M-1.12 -1.09 C-0.96 18.69, 1.47 98.93, 1.89 118.93 M0.49 0.95 C0.4 20.9, 0.9 100.52, 0.88 120.39" stroke="#000000" stroke-width="2" fill="none"></path></g><g transform="translate(733.5857350715743 311.3008270263672) rotate(0 0.38802196284558477 59.650063840872605)"><path d="M-11.29 92.02 C-5.73 102.04, -1.8 112.8, 0.02 122.18 M-8.96 92.27 C-6.02 102.12, -2.11 114.28, 0.75 119.39" stroke="#000000" stroke-width="2" fill="none"></path></g><g transform="translate(733.5857350715743 311.3008270263672) rotate(0 0.38802196284558477 59.650063840872605)"><path d="M9.24 91.96 C7.01 101.81, 3.15 112.59, 0.02 122.18 M11.57 92.21 C6.79 102.22, 3 114.4, 0.75 119.39" stroke="#000000" stroke-width="2" fill="none"></path></g></g><g transform="translate(745.7987213134766 349.07908630371094) rotate(0 69 12.5)"><text x="0" y="18" font-family="Virgil, Segoe UI Emoji" font-size="20px" fill="#000000" text-anchor="start" style="white-space: pre;" direction="ltr">participatesIn</text></g><g stroke-linecap="round" transform="translate(336.7607116699219 280.4064636230469) rotate(0 84.48298645019531 44.91947937011719)"><path d="M22.46 0 M22.46 0 C48.52 0.19, 71.61 -2.36, 146.51 0 M22.46 0 C65.93 0.41, 110.46 0.21, 146.51 0 M146.51 0 C162.85 1.4, 168.53 8.85, 168.97 22.46 M146.51 0 C163.07 1.81, 170.75 7.66, 168.97 22.46 M168.97 22.46 C167.63 30.35, 169.9 41.69, 168.97 67.38 M168.97 22.46 C168.55 32.73, 168.1 45.15, 168.97 67.38 M168.97 67.38 C167.19 81.44, 162.74 90.46, 146.51 89.84 M168.97 67.38 C168.78 84.19, 160.07 88.02, 146.51 89.84 M146.51 89.84 C113.63 89.33, 78.4 88.21, 22.46 89.84 M146.51 89.84 C116.05 89.48, 84.35 88.66, 22.46 89.84 M22.46 89.84 C8.07 88.74, 0.55 83.14, 0 67.38 M22.46 89.84 C7.12 91.83, -1.6 80.85, 0 67.38 M0 67.38 C1.49 56.04, -0.95 43.16, 0 22.46 M0 67.38 C-0.37 53.25, -0.44 37.42, 0 22.46 M0 22.46 C1.41 5.81, 6.78 -0.18, 22.46 0 M0 22.46 C-1.27 8.85, 5.7 -2.13, 22.46 0" stroke="#000000" stroke-width="2" fill="none"></path></g><g transform="translate(346.37644958496094 313.4998321533203) rotate(0 78.5 12.5)"><text x="78.5" y="18" font-family="Virgil, Segoe UI Emoji" font-size="20px" fill="#000000" text-anchor="middle" style="white-space: pre;" direction="ltr">MisConfiguration</text></g><g stroke-linecap="round"><g transform="translate(646.93994140625 435.2687630472898) rotate(0 -69.21837274581196 -44.690684765559354)"><path d="M-0.24 -0.11 C-23.44 -15.04, -115.31 -74.38, -138.2 -89.28 M-1.82 -1.21 C-24.72 -15.98, -113.14 -73.29, -135.9 -87.82" stroke="#000000" stroke-width="2" fill="none"></path></g><g transform="translate(646.93994140625 435.2687630472898) rotate(0 -69.21837274581196 -44.690684765559354)"><path d="M-106.82 -82.49 C-118.09 -83.99, -129.6 -87.58, -135.83 -89.65 M-106 -80.66 C-116.38 -82.97, -128.01 -85.67, -135.88 -88.56" stroke="#000000" stroke-width="2" fill="none"></path></g><g transform="translate(646.93994140625 435.2687630472898) rotate(0 -69.21837274581196 -44.690684765559354)"><path d="M-117.93 -65.23 C-125 -73.31, -132.26 -83.5, -135.83 -89.65 M-117.11 -63.4 C-123.38 -72.06, -130.97 -81.03, -135.88 -88.56" stroke="#000000" stroke-width="2" fill="none"></path></g></g><g transform="translate(522.3186798095703 407.4484100341797) rotate(0 36.5 12.5)"><text x="0" y="18" font-family="Virgil, Segoe UI Emoji" font-size="20px" fill="#000000" text-anchor="start" style="white-space: pre;" direction="ltr">involves</text></g><g stroke-linecap="round" transform="translate(435.75807189941406 619.1328125) rotate(0 65.91261291503906 35.04563913366218)"><path d="M17.52 0 M17.52 0 C44.98 -0.71, 73.99 1.76, 114.3 0 M17.52 0 C46.15 0.46, 74.06 0.17, 114.3 0 M114.3 0 C127.98 0.14, 132.72 5.9, 131.83 17.52 M114.3 0 C125.24 -0.61, 133.41 8.06, 131.83 17.52 M131.83 17.52 C130.9 27.39, 130.84 43.21, 131.83 52.57 M131.83 17.52 C131.6 29.44, 131.53 40.24, 131.83 52.57 M131.83 52.57 C133.48 62.39, 126.43 68.74, 114.3 70.09 M131.83 52.57 C130.06 64.61, 127.51 71.82, 114.3 70.09 M114.3 70.09 C75.96 68.22, 39.22 70.97, 17.52 70.09 M114.3 70.09 C86.59 70.89, 57.44 71.45, 17.52 70.09 M17.52 70.09 C6.7 68.66, 1.53 65.52, 0 52.57 M17.52 70.09 C5.06 70.95, -0.95 64.69, 0 52.57 M0 52.57 C-1.75 43.97, 0.68 39.4, 0 17.52 M0 52.57 C0.01 42.17, -0.54 31.57, 0 17.52 M0 17.52 C-0.8 6.38, 6.01 0.02, 17.52 0 M0 17.52 C1.82 4.19, 7.54 -1.31, 17.52 0" stroke="#000000" stroke-width="2" fill="none"></path></g><g transform="translate(481.458375712111 645.7614860859237) rotate(0 23 10)"><text x="23" y="14" font-family="Virgil, Segoe UI Emoji" font-size="15.60376016155539px" fill="#000000" text-anchor="middle" style="white-space: pre;" direction="ltr">Cause</text></g><g stroke-linecap="round" transform="translate(668.379150390625 726.1121825216112) rotate(0 65.91261291503906 35.04563913366218)"><path d="M17.52 0 M17.52 0 C53.37 -0.45, 91.85 0.96, 114.3 0 M17.52 0 C51.04 0.04, 85.61 1, 114.3 0 M114.3 0 C126.32 -0.62, 131.92 6.05, 131.83 17.52 M114.3 0 C125.02 1.82, 130.86 4.67, 131.83 17.52 M131.83 17.52 C131.35 29.64, 130.57 40.27, 131.83 52.57 M131.83 17.52 C132.59 25.24, 132.56 33.47, 131.83 52.57 M131.83 52.57 C133.12 64.68, 124.96 69.49, 114.3 70.09 M131.83 52.57 C132.05 64.91, 124.99 69.18, 114.3 70.09 M114.3 70.09 C94.54 68.55, 74.05 68.86, 17.52 70.09 M114.3 70.09 C75.05 70.68, 37.72 69.44, 17.52 70.09 M17.52 70.09 C6.36 70.48, 0.99 66.03, 0 52.57 M17.52 70.09 C6.29 70.03, -0.83 64.46, 0 52.57 M0 52.57 C-0.27 42.61, 1.93 32.68, 0 17.52 M0 52.57 C-0.37 41.57, -0.13 29.93, 0 17.52 M0 17.52 C-0.11 6.44, 5.23 -1.36, 17.52 0 M0 17.52 C-0.37 7.82, 7.45 -0.66, 17.52 0" stroke="#000000" stroke-width="2" fill="none"></path></g><g transform="translate(715.5794542033219 752.7408561075349) rotate(0 21.5 10)"><text x="21.5" y="14" font-family="Virgil, Segoe UI Emoji" font-size="15.60376016155539px" fill="#000000" text-anchor="middle" style="white-space: pre;" direction="ltr">Event</text></g><g stroke-linecap="round" transform="translate(928.697509765625 603.6715086934862) rotate(0 65.91261291503906 35.04563913366218)"><path d="M17.52 0 M17.52 0 C54.68 -1.26, 92.87 0.32, 114.3 0 M17.52 0 C49.54 0.34, 82.98 0.58, 114.3 0 M114.3 0 C126.1 1.2, 133.08 7.14, 131.83 17.52 M114.3 0 C126.48 -1.17, 131.14 6.06, 131.83 17.52 M131.83 17.52 C129.7 28.72, 130.5 40.29, 131.83 52.57 M131.83 17.52 C132.56 26.08, 131.91 34.15, 131.83 52.57 M131.83 52.57 C132.39 64.22, 124.08 70.61, 114.3 70.09 M131.83 52.57 C132.28 65.39, 128.03 70.54, 114.3 70.09 M114.3 70.09 C84.98 69.84, 56.45 69.86, 17.52 70.09 M114.3 70.09 C87.6 69.1, 59.76 69.11, 17.52 70.09 M17.52 70.09 C6.66 69.42, 0.36 64.14, 0 52.57 M17.52 70.09 C6.53 69.39, -1.56 63.88, 0 52.57 M0 52.57 C-0.57 38.99, -0.36 23.88, 0 17.52 M0 52.57 C0.38 38.88, -0.11 26.98, 0 17.52 M0 17.52 C-1.02 7.22, 4.73 1.41, 17.52 0 M0 17.52 C1.57 5.08, 6.46 1.86, 17.52 0" stroke="#000000" stroke-width="2" fill="none"></path></g><g transform="translate(950.8978135783219 630.3001822794099) rotate(0 46.5 10)"><text x="46.5" y="14" font-family="Virgil, Segoe UI Emoji" font-size="15.60376016155539px" fill="#000000" text-anchor="middle" style="white-space: pre;" direction="ltr">Consequence</text></g><g stroke-linecap="round"><g transform="translate(734.3533810150149 536.5083465576172) rotate(0 1.0769237510555172 92.73971342593427)"><path d="M0.9 -0.16 C0.96 30.59, 1.39 154.33, 1.22 185.64" stroke="#000000" stroke-width="2.5" fill="none" stroke-dasharray="8 10"></path></g><g transform="translate(734.3533810150149 536.5083465576172) rotate(0 1.0769237510555172 92.73971342593427)"><path d="M-9.3 158.02 C-6.7 166.06, 0.49 177.73, -0.77 183.94" stroke="#000000" stroke-width="2.5" fill="none"></path></g><g transform="translate(734.3533810150149 536.5083465576172) rotate(0 1.0769237510555172 92.73971342593427)"><path d="M11.22 158.03 C6.25 166.22, 5.87 177.89, -0.77 183.94" stroke="#000000" stroke-width="2.5" fill="none"></path></g></g><g transform="translate(749.8275299072266 613.2264862060547) rotate(0 55 12.5)"><text x="0" y="18" font-family="Virgil, Segoe UI Emoji" font-size="20px" fill="#000000" text-anchor="start" style="white-space: pre;" direction="ltr">subClassOf</text></g><g stroke-linecap="round"><g transform="translate(646.6830291748047 519.1878263768803) rotate(0 -68.49279691026423 46.902752365308515)"><path d="M-0.01 -0.59 C-22.47 15.28, -113.41 78.59, -135.81 94.39 M-1.47 1.72 C-24.04 17.34, -114.78 77.7, -136.98 92.8" stroke="#000000" stroke-width="2" fill="none"></path></g><g transform="translate(646.6830291748047 519.1878263768803) rotate(0 -68.49279691026423 46.902752365308515)"><path d="M-120.28 67.85 C-121.61 75.42, -125.72 77.23, -137.05 91.1 M-119.89 69.36 C-126.57 78.21, -131.89 86.83, -137.11 92.53" stroke="#000000" stroke-width="2" fill="none"></path></g><g transform="translate(646.6830291748047 519.1878263768803) rotate(0 -68.49279691026423 46.902752365308515)"><path d="M-108.84 84.89 C-112.54 88.76, -119.13 86.88, -137.05 91.1 M-108.44 86.39 C-119.71 88.74, -129.47 90.76, -137.11 92.53" stroke="#000000" stroke-width="2" fill="none"></path></g></g><g transform="translate(893.4832305908203 527.1486053466797) rotate(0 73 12.5)"><text x="0" y="18" font-family="Virgil, Segoe UI Emoji" font-size="20px" fill="#000000" text-anchor="start" style="white-space: pre;" direction="ltr">casuallyFollows</text></g><g stroke-linecap="round"><g transform="translate(938.8235015869141 590.3367767333984) rotate(0 -58.406533760605384 -37.323068582685664)"><path d="M-0.33 -0.9 C-19.94 -13.12, -98.38 -61.87, -117.91 -74.28 M1.7 1.24 C-17.99 -11.21, -98.6 -63.32, -118.51 -75.88" stroke="#000000" stroke-width="2" fill="none"></path></g><g transform="translate(938.8235015869141 590.3367767333984) rotate(0 -58.406533760605384 -37.323068582685664)"><path d="M-90.74 -68.21 C-95.64 -69.48, -105.64 -74.67, -116.7 -75.72 M-88.27 -70.15 C-100.56 -71.32, -110.85 -73.15, -119.13 -76.06" stroke="#000000" stroke-width="2" fill="none"></path></g><g transform="translate(938.8235015869141 590.3367767333984) rotate(0 -58.406533760605384 -37.323068582685664)"><path d="M-101.8 -50.92 C-103.49 -56.96, -110.42 -66.95, -116.7 -75.72 M-99.32 -52.86 C-107.58 -60.48, -113.77 -68.71, -119.13 -76.06" stroke="#000000" stroke-width="2" fill="none"></path></g></g><g transform="translate(447.77967834472656 527.3357391357422) rotate(0 73 12.5)"><text x="0" y="18" font-family="Virgil, Segoe UI Emoji" font-size="20px" fill="#000000" text-anchor="start" style="white-space: pre;" direction="ltr">casuallyFollows</text></g><g stroke-linecap="round"><g transform="translate(501.2121124267578 697.7150115966797) rotate(0 75.5989875172496 30.908236962770047)"><path d="M0.58 -0.67 C2.43 8.56, -15.35 44.95, 10.36 55.43 C36.07 65.92, 130.71 61.37, 154.86 62.24" stroke="#000000" stroke-width="2.5" fill="none" stroke-dasharray="8 10"></path></g><g transform="translate(501.2121124267578 697.7150115966797) rotate(0 75.5989875172496 30.908236962770047)"><path d="M125.58 72.73 C133.62 69.39, 141.5 67.49, 153.47 63.04" stroke="#000000" stroke-width="2.5" fill="none"></path></g><g transform="translate(501.2121124267578 697.7150115966797) rotate(0 75.5989875172496 30.908236962770047)"><path d="M125.51 52.21 C133.58 53.81, 141.48 56.85, 153.47 63.04" stroke="#000000" stroke-width="2.5" fill="none"></path></g></g><g stroke-linecap="round"><g transform="translate(990.9289703369141 677.8054656982422) rotate(0 -86.7805486436963 50.174747751557106)"><path d="M0.14 -0.34 C0.02 15.55, 30.75 80.27, -0.44 95.19 C-31.63 110.12, -155.98 90.28, -186.98 89.23" stroke="#000000" stroke-width="2.5" fill="none" stroke-dasharray="8 10"></path></g><g transform="translate(990.9289703369141 677.8054656982422) rotate(0 -86.7805486436963 50.174747751557106)"><path d="M-158.5 81.09 C-165.52 84.39, -175.58 87.77, -186.27 89.82" stroke="#000000" stroke-width="2.5" fill="none"></path></g><g transform="translate(990.9289703369141 677.8054656982422) rotate(0 -86.7805486436963 50.174747751557106)"><path d="M-160.45 101.52 C-166.81 98.15, -176.23 94.86, -186.27 89.82" stroke="#000000" stroke-width="2.5" fill="none"></path></g></g><g transform="translate(1006.3364410400391 749.4330291748047) rotate(0 55 12.5)"><text x="0" y="18" font-family="Virgil, Segoe UI Emoji" font-size="20px" fill="#000000" text-anchor="start" style="white-space: pre;" direction="ltr">subClassOf</text></g><g transform="translate(386.9909973144531 755.6533660888672) rotate(0 55 12.5)"><text x="0" y="18" font-family="Virgil, Segoe UI Emoji" font-size="20px" fill="#000000" text-anchor="start" style="white-space: pre;" direction="ltr">subClassOf</text></g><g stroke-linecap="round" transform="translate(10 289.5068054199219) rotate(0 84.48298645019531 44.91947937011719)"><path d="M22.46 0 M22.46 0 C67.27 0.03, 109.61 -3.13, 146.51 0 M22.46 0 C68.99 0.2, 114.03 0.67, 146.51 0 M146.51 0 C163.22 0.29, 167.71 8.93, 168.97 22.46 M146.51 0 C160.93 1.57, 170.48 8.52, 168.97 22.46 M168.97 22.46 C170 32.88, 170.38 43.95, 168.97 67.38 M168.97 22.46 C170.07 37.78, 170.03 51.29, 168.97 67.38 M168.97 67.38 C169.45 82, 163.21 90.04, 146.51 89.84 M168.97 67.38 C169.34 83.67, 161.23 88.32, 146.51 89.84 M146.51 89.84 C108.95 90.53, 67.86 88.85, 22.46 89.84 M146.51 89.84 C120.51 91.1, 93.5 91.72, 22.46 89.84 M22.46 89.84 C8.89 90.81, -0.2 82.94, 0 67.38 M22.46 89.84 C9.26 89.46, -1.5 81.77, 0 67.38 M0 67.38 C2.05 56.13, 1.63 48.15, 0 22.46 M0 67.38 C0.44 55.42, 1.06 43.33, 0 22.46 M0 22.46 C1.37 8.25, 5.79 -0.76, 22.46 0 M0 22.46 C2.02 8.58, 5.87 -2.28, 22.46 0" stroke="#000000" stroke-width="2" fill="none"></path></g><g transform="translate(47.11573791503906 310.1001739501953) rotate(0 51 25)"><text x="51" y="18" font-family="Virgil, Segoe UI Emoji" font-size="20px" fill="#000000" text-anchor="middle" style="white-space: pre;" direction="ltr">Mechanical</text><text x="51" y="43" font-family="Virgil, Segoe UI Emoji" font-size="20px" fill="#000000" text-anchor="middle" style="white-space: pre;" direction="ltr">System</text></g><g stroke-linecap="round"><g transform="translate(183.48692321777344 321.46583689784376) rotate(0 75.71520951534156 -0.8259414581097815)"><path d="M-0.52 -1.11 C24.46 -1.39, 124.46 -0.99, 149.7 -1.05 M1.41 0.92 C26.78 0.28, 127.12 -1.84, 151.95 -2.57" stroke="#000000" stroke-width="2" fill="none"></path></g><g transform="translate(183.48692321777344 321.46583689784376) rotate(0 75.71520951534156 -0.8259414581097815)"><path d="M122.17 6.89 C133.87 5.98, 141.15 4.22, 152.08 -1.89 M124.11 8.78 C129.61 6.07, 136.88 3.33, 151.53 -2.03" stroke="#000000" stroke-width="2" fill="none"></path></g><g transform="translate(183.48692321777344 321.46583689784376) rotate(0 75.71520951534156 -0.8259414581097815)"><path d="M121.66 -13.63 C133.62 -8.65, 141.04 -4.53, 152.08 -1.89 M123.6 -11.74 C129.22 -9.73, 136.61 -7.76, 151.53 -2.03" stroke="#000000" stroke-width="2" fill="none"></path></g></g><g transform="translate(200.0248565673828 282.9817657470703) rotate(0 54 12.5)"><text x="0" y="18" font-family="Virgil, Segoe UI Emoji" font-size="20px" fill="#000000" text-anchor="start" style="white-space: pre;" direction="ltr">experiences</text></g></svg>